<svg version="1.1" xmlns="http://www.w3.org/2000/svg" x="0" y="0" viewBox="0 0 948 381" xml:space="preserve"><style>.st0{fill:#eef3f5}.st1{stroke:#dbdee5;stroke-width:2}.st1,.st2,.st3{fill:none}.st3{stroke:#de5846;stroke-width:2}.st4{fill:#dbdee5}</style><g id="_419_" transform="translate(-430 -224)"><g id="_4"><path id="Прямоугольник_скругл._углы_623" class="st0" d="M562 521h-32c-22.1 0-40-17.9-40-40V292h13v183c0 16.3 12.7 33 33 33h74v85h52v12h-65v-84h-35z"/><path id="_4-2" class="st1" d="M664 444.5V272h-53v182h-54V272h-53v203.2c-.1 8.4 3.3 16.5 9.3 22.4 6 6.1 14.2 9.5 22.7 9.4h75v85h53v-65.1"/><path id="Прямоугольник_скругл._углы_623-2" class="st1" d="M664 535v-8c0-11 9-20 20-20h6"/><path id="Фигура_619_копия" class="st1" d="M682 507h12"/><g id="Эллипс_621" transform="translate(692 503)"><circle class="st2" cx="5" cy="5" r="5"/><circle class="st1" cx="5" cy="5" r="4"/></g><g id="Эллипс_621_копия" transform="translate(660 444)"><circle class="st2" cx="4.9" cy="4.9" r="4.9"/><circle class="st1" cx="4.9" cy="4.9" r="3.9"/></g></g><g id="_1_копия_3"><path id="Фигура_722" class="st0" d="M813 605v-58h11v47h170v11H813zm63-67V338h-63v-58h10v47h63v211h-10z"/><path id="_1_копия_2" class="st1" d="M836 539h-11v54h177v-54h-62V272H824v54h63v213h-14"/><g id="Эллипс_718" transform="translate(835 533)"><circle class="st2" cx="5" cy="5" r="5"/><circle class="st1" cx="5" cy="5" r="4"/></g><g id="Эллипс_718_копия" transform="translate(863 533)"><circle class="st2" cx="5" cy="5" r="5"/><circle class="st1" cx="5" cy="5" r="4"/></g><path id="Фигура_784" class="st3" d="M851 298h63v269"/><path id="Фигура_785" class="st3" d="M847 567h140"/></g><g id="_9"><path id="Фигура_797" class="st0" d="M1122 573c-14-19.6-13-46-13-46v-10l12-3v10c0 6.1 2.4 28.8 18 45s31 25 48 25h49c24.1 0 37-11 37-11s-13.7 22-47 22h-45.6c-6.3 0-35.9-.6-58.4-32zm118-92c-5.3.7-10.6 1-16 1h-35c-7.6 0-46.2-1.4-65-29-12.3-18.1-14-40-14-52v-46c0-33.3 25-54 25-54s-14 14.2-14 38v58c0 46.2 36.7 75 72 75h28c6.9 0 29-2 29-2v55c0 8.7-10 13-10 13v-57zm0-128c-.3-8.5-7.5-15.2-16-15h-46s3.5-11 13-11h44c6.9 0 15 5.1 15 15v58c0 10.8-10 15-10 15v-62z"/><g id="_9_копия"><path class="st2" d="M1304.9 361.6v-18.2c0-9.6-1.5-19.2-5.3-27.8-7.3-17-20.9-30.5-37.9-37.9-8.8-3.8-18.2-5.8-27.8-5.7h-40.3c-9.6-.1-19 1.9-27.8 5.7-17 7.3-30.5 20.9-37.9 37.9-3.8 8.6-5.7 17.9-5.7 27.4v56.5c-.1 9.6 1.9 19 5.7 27.8 7.3 17 20.9 30.5 37.9 37.9 8.9 3.9 18.4 5.9 28.1 5.9 11.7 0 22.1.2 29 0 9.5-.1 19.1-.9 28.5-2.4v53.8c.2 9.5-7.4 17.3-16.9 17.5h-40.9c-9.5.2-17.3-7.4-17.5-16.9v-31.2l-53.8 13.6v17.1c-.1 9.6 1.9 19 5.7 27.8 7.3 17 20.9 30.5 37.9 37.9 8.6 3.8 17.9 4.9 27.9 4.9h40.4c9.9 0 19-1.1 27.6-4.9 17-7.3 30.5-20.9 37.9-37.9 3.8-8.6 5.3-17 5.3-27V411.9m-53.5-12.5c.2 9.5-7.4 17.3-16.9 17.5h-40.9c-9.5.2-17.3-7.4-17.5-16.9v-57.1c-.1-4.5 1.8-8.9 5-12 3.3-3.3 7.8-5.1 12.5-5h40.3c4.7-.1 9.2 1.7 12.5 5 3.3 3.1 5.1 7.5 5 12v56.5z"/><path class="st4" d="M1193.7 274c-4.8 0-9.5.5-14 1.4-4.5.9-8.8 2.3-13 4.1-4.2 1.8-8.1 4-11.8 6.5-3.6 2.5-7.1 5.3-10.2 8.4-3.1 3.1-5.9 6.5-8.4 10.2-2.5 3.6-4.7 7.6-6.5 11.8-1.8 4.2-3.2 8.5-4.1 12.9-.9 4.4-1.4 9-1.4 13.7v56.5c0 4.8.5 9.5 1.4 14 .9 4.5 2.3 8.8 4.1 13 1.8 4.2 4 8.1 6.5 11.8 2.5 3.6 5.3 7.1 8.4 10.2 3.1 3.1 6.5 5.9 10.2 8.4 3.6 2.5 7.6 4.7 11.8 6.5 4.2 1.9 8.6 3.3 13.2 4.3s9.4 1.5 14.1 1.5h21.1c3.3 0 5.9 0 7.9-.1 14.2-.3 25.7-1.9 28.1-2.4l2.4-.5v56.3c0 5.5-1.9 10.2-5.6 13.9-3.7 3.7-8.4 5.6-13.9 5.6h-40.3c-5.5 0-10.2-1.9-13.9-5.6-3.7-3.7-5.6-8.4-5.6-13.9v-28.1l-49.8 12.6v15.5c0 4.8.5 9.5 1.4 14 .9 4.5 2.3 8.8 4.1 13 1.8 4.2 4 8.1 6.5 11.8 2.5 3.6 5.3 7.1 8.4 10.2 3.1 3.1 6.5 5.9 10.2 8.4 3.6 2.5 7.6 4.7 11.8 6.5 3.9 1.7 8.2 3 12.9 3.7 4.2.7 8.8 1 14.1 1h40.4c11.1 0 19.4-1.5 26.8-4.7 4.2-1.8 8.1-4 11.8-6.5 3.6-2.5 7.1-5.3 10.2-8.4 3.1-3.1 5.9-6.5 8.4-10.2 2.5-3.6 4.7-7.6 6.5-11.8 3.5-8 5.1-16.1 5.1-26.2V343.4c0-10.2-1.7-19.3-5.1-27-1.8-4.2-4-8.1-6.5-11.8-2.5-3.6-5.3-7.1-8.4-10.2-3.1-3.1-6.5-5.9-10.2-8.4-3.6-2.5-7.6-4.7-11.8-6.5-4.2-1.8-8.5-3.2-13-4.1-4.5-.9-9.2-1.4-14-1.4h-40.3m40.3 144.9h-40.3c-5.5 0-10.2-1.9-13.9-5.6-3.7-3.7-5.6-8.4-5.6-13.9v-56.5c0-5.2 1.9-9.7 5.6-13.5 3.7-3.7 8.4-5.6 13.9-5.6h40.3c5.5 0 10.2 1.9 13.9 5.6 3.7 3.7 5.6 8.3 5.6 13.5v56.5c0 5.5-1.9 10.2-5.6 13.9-3.8 3.7-8.4 5.6-13.9 5.6M1193.7 272h40.3c9.9 0 19.2 1.9 27.8 5.7 8.6 3.8 16.1 8.9 22.5 15.3 6.4 6.4 11.5 13.9 15.3 22.5 3.8 8.6 5.3 18.2 5.3 27.8v179.9c0 9.9-1.5 18.4-5.3 27-3.8 8.6-8.9 16.1-15.3 22.5-6.4 6.4-13.9 11.5-22.5 15.3-8.6 3.8-17.7 4.9-27.6 4.9h-40.4c-9.9 0-19.3-1.1-27.9-4.9-8.6-3.8-16.1-8.9-22.5-15.3-6.4-6.4-11.5-13.9-15.3-22.5-3.8-8.6-5.7-17.9-5.7-27.8v-17.1l53.8-13.6v30.6c0 5 1.7 9.1 5 12.5 3.4 3.4 7.5 5 12.5 5h40.3c5 0 9.1-1.7 12.5-5 3.4-3.4 5-7.5 5-12.5v-53.8c-2.9.6-14.8 2.1-28.5 2.4-2.3.1-5 .1-8 .1-6 0-13.2-.1-21-.1-9.9 0-19.5-2.1-28.1-5.9-8.6-3.8-16.1-8.9-22.5-15.3-6.4-6.4-11.5-13.9-15.3-22.5-3.8-8.6-5.7-17.9-5.7-27.8v-56.5c0-9.6 1.9-18.7 5.7-27.4 3.8-8.6 8.9-16.1 15.3-22.5 6.4-6.4 13.9-11.5 22.5-15.3 8.6-3.8 17.9-5.7 27.8-5.7zm40.3 144.9c5 0 9.1-1.7 12.5-5 3.4-3.4 5-7.5 5-12.5v-56.5c0-4.7-1.7-8.7-5-12-3.4-3.4-7.5-5-12.5-5h-40.3c-5 0-9.1 1.7-12.5 5-3.4 3.4-5 7.4-5 12v56.5c0 5 1.7 9.1 5 12.5 3.4 3.4 7.5 5 12.5 5h40.3z"/></g><g id="Эллипс_798" transform="translate(1301 361)"><circle class="st2" cx="5" cy="5" r="5"/><circle class="st1" cx="5" cy="5" r="4"/></g><g id="Эллипс_798_копия" transform="translate(1301 404)"><circle class="st2" cx="5" cy="5" r="5"/><circle class="st1" cx="5" cy="5" r="4"/></g></g><g id="шьфп_копия_7"><path id="Прямоугольник_1_копия_15" class="st4" d="M1022 605v-15h-5v-2h5v-38h-6v-2h6v-4h2v4h21v2h-21v38h38v-9h2v9h38v-7h2v7h18v2h-18v13h-2v-13h-38v8h-2v-8h-38v15h-2zm0-67v-4h-4v-2h4v-4h2v4h4v2h-4v4h-2z"/><path id="Прямоугольник_1_копия_29" class="st4" d="M755 388v-15h-5v-2h5v-38h-6v-2h6v-4h2v4h21v2h-21v38h38v-9h2v9h38v-7h2v7h18v2h-18v13h-2v-13h-38v8h-2v-8h-38v15h-2zm0-67v-4h-4v-2h4v-4h2v4h4v2h-4v4h-2z"/><path id="Прямоугольник_1_копия_17" class="st4" d="M1366 520v-5h-10v-2h10v-38h-38v6h-2v-6h-4v-2h4v-21h2v21h38v-38h-9v-2h9v-38h-7v-2h7v-38h-38v11h-2v-11h-4v-2h4v-11h2v11h38v-21h2v21h5v2h-5v38h3v2h-3v38h3v2h-3v38h10v2h-10v38h10v2h-10v5h-2zm-26-1v-4h-4v-2h4v-4h2v4h4v2h-4v4h-2zm-14-187v-4h-4v-2h4v-4h2v4h4v2h-4v4h-2z"/><path id="Прямоугольник_1_копия_28" class="st4" d="M981 523v-21h-5v-2h5v-38h-3v-2h3v-38h-3v-2h3v-38h-10v-2h10v-38h-10v-2h10v-5h2v5h10v2h-10v38h38v-6h2v6h4v2h-4v21h-2v-21h-38v38h9v2h-9v38h7v2h-7v38h38v-11h2v11h4v2h-4v11h-2v-11h-38v21h-2zm26-177v-4h-4v-2h4v-4h2v4h4v2h-4v4h-2z"/><path id="Прямоугольник_1_копия_16" class="st4" d="M525 601v-11h-11v-2h11v-38h-38v36h-2v-36h-38v38h10v2h-10v5h-2v-5h-15v-2h15v-38h-15v-2h15v-38h-8v-2h8v-38h-13v-2h13v-38h-5v-2h5v-21h2v21h4v2h-4v38h7v2h-7v38h9v2h-9v38h38v-21h2v21h38v-11h2v11h14v2h-14v38h4v2h-4v11h-2zm-54-7v-4h-4v-2h4v-4h2v4h4v2h-4v4h-2zm-2-120v-4h-4v-2h4v-4h2v4h4v2h-4v4h-2z"/><path id="Прямоугольник_1_копия_22" class="st4" d="M694 309v-21h-5v-2h5v-38h-38v9h-2v-9h-10v-2h10v-22h2v22h38v-12h2v12h7v2h-7v38h38v-11h2v11h4v2h-4v11h-2v-11h-38v21h-2zm24-57v-4h-4v-2h4v-4h2v4h4v2h-4v4h-2z"/></g></g></svg>
