<svg xmlns="http://www.w3.org/2000/svg" viewBox="0 0 60 61"><path fill="none" d="M.4.7h59v60H.4z"/><path d="M19.4 43.8c-1.2-.9-1-2.5-.3-3.1.6-.6 2-.3 2.7.3s3.4 2 8.1 2 7.8-2.1 8.8-2.7c1-.6 1.7-.5 2.4.3.2.3.3.7.3 1.1-.1.4-.3.7-.6.9-1.1.9-5.2 3.7-11.2 3.7-4.5.2-9-1.6-10.2-2.5zm6.8-6.1c-.2 0-.4 0-.7-.1-.2-.1-.4-.2-.6-.4s-.3-.3-.4-.6c-.1-.2-.1-.4-.1-.7s0-.4.1-.7c.1-.2.2-.4.4-.6s.4-.3.6-.4.4-.1.7-.1h1c.9 0 1.4-1.4 1.4-2.4v-9.5c0-.4.2-.9.5-1.2.3-.3.7-.5 1.2-.5s.9.2 1.2.5c.3.3.5.7.5 1.2V32c0 2.2-.5 5.4-4.4 5.4l-1.4.3zm15.9-8.2c-.4 0-.9-.2-1.2-.5s-.5-.7-.5-1.2v-5.4c0-.4.2-.9.5-1.2.3-.3.7-.5 1.2-.5.4 0 .9.2 1.2.5s.5.7.5 1.2v5.4c0 .4-.2.9-.5 1.2-.3.4-.7.5-1.2.5zm-23.7 0c-.4 0-.9-.2-1.2-.5-.3-.3-.5-.7-.5-1.2v-5.4c0-.4.2-.9.5-1.2.3-.3.7-.5 1.2-.5.4 0 .9.2 1.2.5.3.3.5.7.5 1.2v5.4c0 .4-.2.9-.5 1.2-.3.4-.8.5-1.2.5z" fill="#c9292c"/><path d="M44.2 60.7c-1.9 0-1.8-3.7 0-3.7h7.1c1.5 0 4.4-1.5 4.4-4.4v-8.1c0-1.7 3.7-2 3.7.3v8.1c0 4.5-3.3 7.8-7.8 7.8h-7.4zm-36 0c-4.5 0-7.8-3.3-7.8-7.8v-8.1c0-2.3 3.7-2 3.7-.3v8.1c0 3 2.9 4.4 4.4 4.4h7.1c1.8 0 1.9 3.7 0 3.7H8.2zm-7.8-44V8.5C.4 4 3.7.7 8.2.7h7.4c1.9 0 1.8 3.7 0 3.7h-7c-1.5 0-4.4 1.5-4.4 4.4V17c0 .8-.9 1.3-1.8 1.3-1 .1-2-.5-2-1.6zm55.3.3V8.9c0-3-2.9-4.4-4.4-4.4h-7.1c-1.8 0-1.9-3.7 0-3.7h7.5c4.5 0 7.8 3.3 7.8 7.8v8.1c0 1.2-.9 1.7-1.9 1.7-1-.1-1.9-.6-1.9-1.4z" fill="#fddcdd"/></svg>