<svg id="Regular" xmlns="http://www.w3.org/2000/svg" viewBox="0 0 24 24"><path d="M11.68 9a.52.52 0 00-.19-.71l-1.36-.78a.52.52 0 00-.71.19l-5.2 9.07a.52.52 0 00.19.71l1.36.78a.52.52 0 00.71-.19zM3.17 19.61a.28.28 0 00-.44.22l-.2 1.78c0 .25.12.34.32.2l1.52-1a.26.26 0 000-.48l-1.18-.68m17.04-2.91c-.41-.74-7.32-16-8.8-15s6.4 16 7 16.3a1 1 0 001.11 0c.37-.2 1.02-.7.69-1.3zm.69 3.77c-.33.25-.41.51-.09 1s1.08.56 1.18.86c0 0 .34-2.72-1.09-1.82m-10.11-5.93h3.09M4.88 10.7H.75v3.92H3.2m18.26 0h1.79V10.7h-3.57" fill="none" stroke="currentColor" stroke-linecap="round" stroke-linejoin="round" stroke-width="1.5"/></svg>