<svg xmlns="http://www.w3.org/2000/svg" viewBox="0 0 20.6 17.5"><g id="Контур_5" transform="translate(-921.263 -1225)"><path id="Контур_461" d="M925.8 1241h10.3l2.2-8.8h-4.2l-.9 4h-3.6l-1.2-5.6h10.8l1.2-4.2h-17.6l3 14.6z" fill="none"/><path id="Контур_462" d="M936.1 1241l1.9-7.8c.1-.5-.2-.9-.7-1h-2.6c-.4 0-.7.3-.8.6l-.6 2.7c-.1.4-.4.7-.8.7h-2.2c-.4 0-.7-.3-.8-.6l-.9-4.2c-.1-.3.1-.7.5-.8h10.1l.9-3.1c.1-.4-.1-.9-.6-1h-15.7c-.5 0-.8.4-.8.9v.1l2.6 12.9c.1.4.4.7.8.7l9.7-.1m0 1.5h-10.3c-.7 0-1.3-.5-1.5-1.2l-3-14.5c-.1-.4 0-.9.3-1.2.3-.4.7-.6 1.2-.6h17.6c.5 0 .9.2 1.2.6.3.4.4.9.2 1.3l-1.2 4.2c-.1.5-.5.8-.9 1v.5l-2.2 8.8c-.1.7-.7 1.2-1.4 1.1zm-5.2-7.7h1.1l.6-2.6h-2.3l.6 2.6z"/></g></svg>