<?xml version="1.0" encoding="utf-8"?>
<!-- Generator: Adobe Illustrator 25.0.0, SVG Export Plug-In . SVG Version: 6.00 Build 0)  -->
<svg version="1.1" id="Слой_1" xmlns="http://www.w3.org/2000/svg" xmlns:xlink="http://www.w3.org/1999/xlink" x="0px" y="0px"
	 viewBox="0 0 20.6 17.5" style="enable-background:new 0 0 20.6 17.5;" xml:space="preserve">
<style type="text/css">
	.bitbucket-st0{fill:none;}
</style>
<g id="Контур_5" transform="translate(-921.263 -1225)">
	<path id="Контур_461" class="bitbucket-st0" d="M925.8,1241h10.3l2.2-8.8h-4.2l-0.9,4h-3.6l-1.2-5.6h10.8l1.2-4.2h-17.6L925.8,1241z"/>
	<path id="Контур_462" d="M936.1,1241l1.9-7.8c0.1-0.5-0.2-0.9-0.7-1c0,0-0.1,0-0.1,0h-2.5c-0.4,0-0.7,0.3-0.8,0.6l-0.6,2.7
		c-0.1,0.4-0.4,0.7-0.8,0.7h-2.2c-0.4,0-0.7-0.3-0.8-0.6l-0.9-4.2c-0.1-0.3,0.1-0.7,0.5-0.8c0,0,0.1,0,0.1,0h10l0.9-3.1
		c0.1-0.4-0.1-0.9-0.6-1c-0.1,0-0.1,0-0.2,0h-15.5c-0.5,0-0.8,0.4-0.8,0.9c0,0,0,0.1,0,0.1l2.6,12.9c0.1,0.4,0.4,0.7,0.8,0.7
		L936.1,1241 M936.1,1242.5h-10.3c-0.7,0-1.3-0.5-1.5-1.2l-3-14.5c-0.1-0.4,0-0.9,0.3-1.2c0.3-0.4,0.7-0.6,1.2-0.6h17.6
		c0.5,0,0.9,0.2,1.2,0.6c0.3,0.4,0.4,0.9,0.2,1.3l-1.2,4.2c-0.1,0.5-0.5,0.8-0.9,1v0.5l-2.2,8.8
		C937.4,1242.1,936.8,1242.6,936.1,1242.5L936.1,1242.5z M930.9,1234.8h1.1l0.6-2.6h-2.3L930.9,1234.8z"/>
</g>
</svg>
