<svg xmlns="http://www.w3.org/2000/svg" viewBox="0 0 17.72 21.78"><g data-name="ios-outlined" fill="none"><path d="M14.797 11.58a4.949 4.949 0 012.357-4.152 5.066 5.066 0 00-3.991-2.158c-1.679-.176-3.307 1-4.163 1-.872 0-2.19-.987-3.608-.958A5.315 5.315 0 00.919 8.04c-1.934 3.348-.491 8.269 1.361 10.976.927 1.325 2.01 2.806 3.428 2.753 1.387-.058 1.905-.884 3.579-.884 1.659 0 2.145.884 3.591.851 1.488-.024 2.426-1.331 3.321-2.669a10.962 10.962 0 001.517-3.087 4.782 4.782 0 01-2.919-4.4z"/><path d="M12.813 6.753c-.618 0-1.329.282-1.956.531-.637.253-1.239.492-1.858.492-.668 0-1.302-.255-1.916-.501-.56-.225-1.139-.458-1.63-.458H5.43a3.835 3.835 0 00-3.201 1.958l-.006.01-.006.01c-1.615 2.796-.215 7.162 1.296 9.374.482.688 1.476 2.107 2.12 2.107h.016c.37-.016.64-.13 1.046-.3.62-.261 1.39-.586 2.591-.586 1.153 0 1.929.33 2.495.572.445.19.674.28 1.017.28h.055c.648-.01 1.215-.683 2.098-2.003l.01-.016.01-.015a9.452 9.452 0 00.894-1.564 6.27 6.27 0 01-2.568-5.062v-.02a6.416 6.416 0 011.641-4.221 3.575 3.575 0 00-1.823-.57l-.055-.003-.054-.005a1.85 1.85 0 00-.193-.01m0-1.5c.116 0 .233.006.35.018 1.595.05 3.075.85 3.99 2.158a4.949 4.949 0 00-2.356 4.152 4.782 4.782 0 002.92 4.399 10.962 10.962 0 01-1.52 3.092c-.894 1.338-1.831 2.645-3.32 2.67h-.08c-1.384 0-1.883-.852-3.51-.852-1.675 0-2.193.827-3.58.885l-.073.001c-1.382 0-2.444-1.452-3.355-2.754C.427 16.315-1.016 11.394.918 8.046a5.315 5.315 0 014.535-2.729c1.395 0 2.687.959 3.546.959.797 0 2.262-1.023 3.814-1.023z" fill="currentColor"/></g><path data-name="ios-outlined-2" d="M12.065 3.491A4.872 4.872 0 0013.18 0a4.957 4.957 0 00-3.208 1.66 4.636 4.636 0 00-1.144 3.361 4.1 4.1 0 003.237-1.53z" fill="currentColor"/></svg>