<svg xmlns="http://www.w3.org/2000/svg" viewBox="0 0 14.58 17.48"><g fill="none"><path d="M14.128 14.036c-.5-.211-.715-.489-.694-.905a1.4 1.4 0 00-.375-.98 4.351 4.351 0 000-2.253 19.539 19.539 0 00-2.34-3.907 3.423 3.423 0 01-.462-2 6.215 6.215 0 00-.438-2.437A2.462 2.462 0 007.477.003a3.154 3.154 0 00-1.781.556c-1.023.723-.887 2.3-.8 3.341.012.143.024.277.031.393a5.289 5.289 0 01-.065 1.723 6.936 6.936 0 01-.51.732c-.247.334-.527.712-.756 1.063a8.412 8.412 0 00-.709 1.7 8.179 8.179 0 01-.448 1.148 1.6 1.6 0 00-.148 1.176 1.2 1.2 0 00-.378.49c-.152.332-.461.511-1.1.638a.848.848 0 00-.6.377 1.094 1.094 0 00.006.855 1.361 1.361 0 01-.086.965c-.03.091-.063.2-.1.31a.573.573 0 00.057.49c.242.38.95.515 1.678.6a6.365 6.365 0 011.371.4 6.355 6.355 0 001.341.4 1.407 1.407 0 00.19.013 1.115 1.115 0 001.021-.613 11.019 11.019 0 011.84-.222 7.825 7.825 0 011.829.191 1.5 1.5 0 00.551.614 1.312 1.312 0 00.62.144 1.479 1.479 0 001.09-.461 9.743 9.743 0 011.976-1.293l.417-.232a.954.954 0 00.57-.847.711.711 0 00-.456-.618zm-8.423-.078c-.048-.342-.477-.681-.974-1.073a3.48 3.48 0 01-.994-.991 3.053 3.053 0 01.3-2.327 5.97 5.97 0 00.464-1.147 4.2 4.2 0 01.485-1.134 2.924 2.924 0 00.581-1.442 1.75 1.75 0 001.038.577.629.629 0 00.167-.022 5.56 5.56 0 00.995-.514 4.288 4.288 0 01.845-.435 24.5 24.5 0 011.846 4.7 5.1 5.1 0 01-.069 1.793 1.132 1.132 0 00-.172-.014c-.4 0-.51.226-.538.359a14.944 14.944 0 00-.08 1.721 3.337 3.337 0 01-1.943 1.244 8.184 8.184 0 01-1.2.1 3.976 3.976 0 01-.591-.037l-.532-.624a.666.666 0 00.373-.734zM6.38 3.677l-.049.023a1.061 1.061 0 00-.011-.111c-.058-.343-.28-.592-.527-.592a.392.392 0 00-.057 0 .446.446 0 00-.326.3c.055-.352.25-.611.481-.611.271 0 .5.374.5.816a1.2 1.2 0 01-.01.178zm2.11.264a.875.875 0 00.038-.259.648.648 0 00-.567-.717.655.655 0 00-.564.717v.08l-.048-.019a1.108 1.108 0 01-.054-.344.693.693 0 111.338 0 1.04 1.04 0 01-.143.541zm-.272.937c-.005.023-.017.035-.142.1a3.203 3.203 0 00-.24.137l-.066.041a6.161 6.161 0 01-1.05.571c-.114.015-.184-.031-.343-.141-.036-.025-.074-.052-.115-.078a1.37 1.37 0 01-.49-.486c.093-.074.324-.259.443-.368a1.27 1.27 0 01.6-.382.056.056 0 01.018 0 6.129 6.129 0 01.74.269c.117.05.218.091.289.117a.678.678 0 01.356.222zm2.012 10.681a8.672 8.672 0 00.249-1.845 14.19 14.19 0 00-.024-.334 3.162 3.162 0 01-.016-.613l.017-.006c0 .268.058.8.474.987a1.01 1.01 0 00.422.084 1.7 1.7 0 001.07-.4 1.971 1.971 0 00.272-.365.449.449 0 01.019.172 1.242 1.242 0 00.519 1.111l.052.028c.127.067.464.249.47.335a.083.083 0 01-.022.028 4.846 4.846 0 01-.669.385 5.83 5.83 0 00-1.348.849 1.838 1.838 0 01-1.029.657.269.269 0 01-.082-.011c-.27-.093-.493-.492-.374-1.063zM.988 14.071a.8.8 0 01-.026-.339c.017-.075.379-.155.533-.189a2.077 2.077 0 00.589-.189 1.219 1.219 0 00.4-.552.854.854 0 01.224-.344.045.045 0 01.026-.007c.158 0 .49.341.682.646.049.077.138.23.242.409a13.031 13.031 0 00.959 1.507c.2.221.525.644.445 1.006a1.091 1.091 0 01-.443.561.405.405 0 01-.1.01 6.148 6.148 0 01-1.721-.559l-.067-.027a5.444 5.444 0 00-1.065-.244 3.361 3.361 0 01-.825-.189c-.058-.066.01-.286.069-.478a3.2 3.2 0 00.112-.431 1.61 1.61 0 00-.034-.593z"/><path d="M11.459 12.818a.88.88 0 00.262-.104c.02-.024.062-.075.114-.162l.156-.265.1-.385c.116-.456.192-1.172.02-1.687-.197-.587-.726-1.463-1.34-2.384.333.857.613 1.691.682 2.182.095.675.06 1.269 0 1.699l.003 1.044c0 .022.001.043.003.062M6.807 2.056c.3-.327.71-.53 1.161-.53.314 0 .608.098.86.268-.28-.52-.744-.794-1.35-.794-.424 0-.874.14-1.204.373a.805.805 0 00-.258.322c.299.029.57.158.79.36m3.722 15.425c-.232 0-.458-.052-.62-.143-.296-.162-.48-.477-.551-.614a8 8 0 00-1.663-.194c-.055 0-.11 0-.166.002-.818.02-1.61.174-1.84.222-.092.179-.381.613-1.021.613-.062 0-.126-.004-.19-.012-.424-.054-.89-.228-1.341-.397-.46-.172-.937-.35-1.371-.402-.729-.087-1.436-.222-1.678-.602a.573.573 0 01-.058-.49c.034-.114.068-.219.098-.31.128-.398.2-.618.085-.965-.077-.236-.16-.58-.006-.855.106-.188.31-.315.605-.377.642-.127.95-.306 1.103-.638.125-.272.275-.417.378-.49a1.599 1.599 0 01.148-1.176c.144-.257.292-.69.448-1.148.214-.626.435-1.274.71-1.696.229-.352.509-.73.755-1.064.24-.321.465-.625.511-.732.07-.163.125-.702.065-1.723-.006-.115-.018-.25-.03-.392-.09-1.043-.225-2.619.798-3.341A3.154 3.154 0 017.477 0C8.54 0 9.395.566 9.82 1.55c.392.906.416 1.72.438 2.438.023.753.043 1.404.462 2.002 1.023 1.455 2.015 2.939 2.34 3.907.303.909.077 1.952 0 2.253.127.141.397.496.375.98-.02.417.194.695.694.906.263.11.436.344.452.611.018.323-.19.631-.57.847l-.417.233c-.677.376-1.604.89-1.976 1.293-.372.4-.842.46-1.09.46zm-.072-4.72a.274.274 0 00-.017.006c-.025.091 0 .403.016.613.01.111.018.227.024.334.023.468-.122 1.262-.249 1.845-.12.57.104.97.375 1.058.024.008.052.011.082.011.25 0 .663-.265 1.029-.657.259-.28.837-.582 1.347-.849.288-.15.585-.306.67-.385.018-.018.021-.028.021-.028-.006-.086-.343-.268-.47-.335l-.051-.028c-.357-.193-.544-.716-.52-1.112a.45.45 0 00-.018-.171c-.066.11-.16.25-.272.365-.19.194-.653.404-1.07.404a1.01 1.01 0 01-.422-.084c-.417-.185-.474-.72-.475-.987zm-7.72-.31a.045.045 0 00-.026.006c-.084.049-.155.2-.224.344-.095.201-.202.429-.401.552-.147.09-.372.14-.59.189-.154.034-.516.114-.533.19-.023.101-.002.206.026.338.033.156.073.35.039.59a3.2 3.2 0 01-.112.43c-.06.192-.128.412-.07.478.073.066.508.138.825.19.4.067.812.136 1.065.244l.067.027c.453.197 1.296.559 1.722.559a.405.405 0 00.098-.01c.073-.05.385-.278.443-.56.08-.363-.245-.786-.445-1.006-.223-.244-.649-.974-.96-1.507a17.823 17.823 0 00-.242-.41c-.191-.304-.524-.645-.682-.645zm2.837-6.607c-.046.494-.303 1.12-.581 1.442-.176.207-.333.679-.485 1.134-.14.423-.286.86-.464 1.147-.36.576-.567 1.692-.305 2.328.127.307.587.67.994.99.497.393.926.732.974 1.074.055.403-.155.627-.365.733l.532.624c.083.013.28.038.59.038.364 0 .767-.033 1.198-.097 1.06-.161 1.797-1.055 1.943-1.244 0-.251.008-1.37.08-1.721.028-.134.135-.36.538-.36.063 0 .122.007.172.014.062-.27.186-.96.07-1.793-.149-1.054-1.597-4.336-1.847-4.703-.145.022-.531.25-.845.435-.363.216-.739.437-.994.513a.629.629 0 01-.167.023c-.374 0-.778-.323-1.038-.577zm1.243-1.57c-.12 0-.361.153-.601.381-.118.11-.35.294-.443.368.021.083.205.294.49.487.041.026.08.053.115.078.14.096.211.143.304.143.013 0 .026 0 .04-.002.167-.024.786-.409 1.05-.572l.066-.04c.098-.062.177-.104.24-.137.125-.067.136-.079.141-.102-.014-.038-.13-.14-.355-.217a7.438 7.438 0 01-.289-.117c-.253-.102-.6-.243-.74-.269-.006-.002-.012-.002-.018-.002zm1.146-1.308c.317 0 .567.314.567.717 0 .09-.014.178-.039.258a1.04 1.04 0 00.147-.54c0-.482-.3-.874-.669-.874-.368 0-.668.392-.668.873 0 .119.018.234.053.344a.754.754 0 00.049.019.863.863 0 01-.004-.08c0-.396.253-.717.564-.717zm-2.169.032c.248 0 .47.25.528.592.005.038.009.075.01.111.017-.009.033-.015.05-.023.008-.059.012-.114.012-.171 0-.443-.23-.817-.501-.817-.231 0-.426.26-.481.612.063-.16.178-.274.326-.299a.392.392 0 01.056-.005z" fill="currentColor"/></g></svg>