<svg xmlns="http://www.w3.org/2000/svg" viewBox="0 0 24 22.18"><g fill="none" stroke="currentColor" stroke-linecap="round" stroke-linejoin="round" stroke-width="1.5"><path data-name="Контур 529" d="M11.68 8.055a.52.52 0 00-.19-.71l-1.36-.78a.52.52 0 00-.71.19l-5.2 9.07a.52.52 0 00.19.71l1.36.78a.52.52 0 00.71-.19z"/><path data-name="Контур 530" d="M3.17 18.665a.28.28 0 00-.44.22l-.2 1.78c0 .25.12.34.32.2l1.52-1a.26.26 0 000-.48l-1.18-.68"/><path data-name="Контур 531" d="M20.23 15.795c-.41-.74-7.32-16-8.8-15s6.4 16 7 16.3a1 1 0 001.11 0c.37-.2 1.02-.7.69-1.3z"/><path data-name="Контур 532" d="M20.92 19.565c-.33.25-.41.51-.09 1s1.08.56 1.18.86c0 0 .34-2.72-1.09-1.82"/><path data-name="Линия 189" d="M10.81 13.675h3.09"/><path data-name="Контур 533" d="M4.88 9.755H.75v3.92H3.2"/><path data-name="Контур 534" d="M21.46 13.675h1.79v-3.92h-3.57"/></g></svg>