<svg xmlns="http://www.w3.org/2000/svg" width="22" height="12.998" viewBox="0 0 22 12.998">
  <path id="Medium" d="M15230,22788.17a6.311,6.311,0,1,1,6.309,6.5A6.407,6.407,0,0,1,15230,22788.17Zm12.94.041c0-3.334,1.413-6.039,3.155-6.039s3.154,2.705,3.154,6.039-1.413,6.041-3.154,6.041S15242.94,22791.549,15242.94,22788.211Zm6.795-.041c0-2.99.507-5.416,1.132-5.416s1.133,2.426,1.133,5.416-.507,5.414-1.133,5.414S15249.735,22791.16,15249.735,22788.17Z" transform="translate(-15230 -22781.67)" fill="currentColor"/>
</svg>
