<svg id="Regular" xmlns="http://www.w3.org/2000/svg" viewBox="0 0 24 24"><defs><style>.cls-1{fill:none;stroke:currentColor;stroke-linecap:round;stroke-linejoin:round;stroke-width:2px}</style></defs><ellipse class="cls-1" cx="12" cy="15.33" rx="9.29" ry="6.36"/><path class="cls-1" d="M15.46 18.15A7 7 0 0112 19a7 7 0 01-3.48-.87m8.14-4.26a.75.75 0 11-.75-.75.75.75 0 01.75.75m-7.82 0a.75.75 0 11-.75-.75.75.75 0 01.75.75m9.76-3.02a2.45 2.45 0 112.58 3.47"/><circle class="cls-1" cx="19.53" cy="4.46" r="2.15"/><path class="cls-1" d="M5.4 10.86a2.45 2.45 0 10-2.58 3.47M12 9s0-6.67 5.38-4.91"/></svg>