<svg version="1.1" id="Слой_1" xmlns="http://www.w3.org/2000/svg" x="0" y="0" viewBox="0 0 22.6 22.6" xml:space="preserve"><g id="Slack" transform="translate(-824.199 -4661.219)"><path id="Forma_1_копия_3" d="M845.9 4673.2c-.3-1-1.4-1.5-2.4-1.2l-1.9.6c-.4-1.3-.9-2.7-1.3-3.9l1.9-.6c1-.3 1.5-1.4 1.2-2.4s-1.4-1.5-2.4-1.2h0l-1.9.6-.6-1.9c-.3-1-1.4-1.5-2.4-1.2-1 .3-1.5 1.4-1.2 2.4h0l.6 1.9-3.9 1.3-.6-1.9c-.3-1-1.4-1.5-2.4-1.2-1 .3-1.5 1.4-1.2 2.3l.6 1.9-1.9.6c-1 .4-1.5 1.4-1.1 2.4.3.9 1.3 1.4 2.3 1.2l1.9-.6 1.3 3.9-1.9.6c-1 .4-1.5 1.4-1.1 2.4.3.9 1.3 1.4 2.3 1.2l1.9-.6.6 1.9c.4 1 1.4 1.5 2.4 1.1.9-.3 1.4-1.3 1.2-2.3l-.6-1.9 3.9-1.3.6 1.9c.4 1 1.4 1.5 2.4 1.1.9-.3 1.4-1.3 1.2-2.3 0 0-.3-.8-.6-1.9l1.9-.6c1-.2 1.6-1.3 1.2-2.3 0 .1 0 .1 0 0zm-11.7 1.9c-.4-1.3-.9-2.7-1.3-3.9 1.3-.4 2.7-.9 3.9-1.3l1.3 3.9-3.9 1.3z" fill="none" stroke="currentColor" stroke-width="1.5"/></g></svg>