<svg version="1.1" id="Объединение_1" xmlns="http://www.w3.org/2000/svg" x="0" y="0" viewBox="0 0 21.4 21.4" xml:space="preserve"><path id="Контур_465" d="M11.6 19.2V17h2.2c1.2 0 2.2 1 2.2 2.2 0 1.2-1 2.2-2.2 2.2s-2.2-1-2.2-2.2zm-6.2 0v-5.4c0-1.2 1-2.2 2.2-2.2s2.2 1 2.2 2.2v5.4c0 1.2-1 2.2-2.2 2.2s-2.2-1-2.2-2.2zm8.4-3.1c-1.2 0-2.2-1-2.2-2.2 0-1.2 1-2.2 2.2-2.2h5.4c1.2 0 2.2 1 2.2 2.2 0 1.2-1 2.2-2.2 2.2h-5.4zM0 13.8c0-1.2 1-2.2 2.2-2.2h2.2v2.2c0 1.2-1 2.2-2.2 2.2C1 16 0 15.1 0 13.8c0 .1 0 0 0 0zm17-4V7.6c0-1.2 1-2.2 2.2-2.2 1.2 0 2.2 1 2.2 2.2s-1 2.2-2.2 2.2H17zm-5.4-2.2V2.2c0-1.2 1-2.2 2.2-2.2S16 1 16 2.2v5.4c0 1.2-1 2.2-2.2 2.2s-2.2-1-2.2-2.2zM2.2 9.8C1 9.8 0 8.8 0 7.6s1-2.2 2.2-2.2h5.4c1.2 0 2.2 1 2.2 2.2s-1 2.2-2.2 2.2H2.2zm5.4-5.3c-1.2 0-2.2-1-2.2-2.2 0-1.2.9-2.3 2.2-2.3 1.2 0 2.2 1 2.2 2.2v2.2l-2.2.1z" fill="none"/><path id="Контур_466" d="M13.8 19.9c.4 0 .7-.3.7-.7 0-.4-.3-.7-.7-.7h-.7v.7c0 .4.3.7.7.7m-6.2 0c.4 0 .7-.3.7-.7v-5.4c0-.4-.3-.7-.7-.7-.4 0-.7.3-.7.7v5.4c0 .4.3.7.7.7m11.6-5.3c.4 0 .7-.3.7-.7s-.3-.7-.7-.7h-5.4c-.4 0-.7.3-.7.7 0 .4.3.7.7.7h5.4m-17 0c.4 0 .7-.3.7-.7v-.7h-.7c-.4 0-.7.3-.7.7 0 .4.3.7.7.7m17-6.3c.4 0 .7-.3.7-.7s-.3-.7-.7-.7c-.4 0-.7.3-.7.7v.7h.7m-5.4 0c.4 0 .7-.3.7-.7V2.2c0-.4-.3-.7-.7-.7s-.7.3-.7.7v5.4c0 .4.3.7.7.7m-6.2 0c.4 0 .7-.3.7-.7 0-.4-.3-.7-.7-.7H2.2c-.4 0-.7.3-.7.7 0 .4.3.7.7.7h5.4M8.3 3v-.8c0-.4-.3-.7-.7-.7-.4 0-.7.3-.7.7 0 .4.3.8.7.8h.7m5.5 18.4c-1.2 0-2.2-1-2.2-2.2V17h2.2c1.2 0 2.2 1 2.2 2.2.1 1.2-.8 2.1-2 2.2h-.2zm-6.2 0c-1.2 0-2.2-1-2.2-2.2v-5.4c0-1.2 1-2.2 2.2-2.2s2.2 1 2.2 2.2v5.4c0 1.2-1 2.2-2.2 2.2zm11.6-5.3h-5.4c-1.2 0-2.2-1-2.2-2.2 0-1.2 1-2.2 2.2-2.2h5.4c1.2 0 2.2 1 2.2 2.2 0 1.2-1 2.2-2.2 2.2zm-17 0c-1.2 0-2.2-1-2.2-2.2s1-2.2 2.2-2.2h2.2v2.2c.1 1.2-.8 2.1-2 2.2h-.2zm17-6.3H17V7.6c0-1.2 1-2.2 2.2-2.2 1.2 0 2.2 1 2.2 2.2s-1 2.2-2.2 2.2zm-5.4 0c-1.2 0-2.2-1-2.2-2.2V2.2c0-1.2 1-2.2 2.2-2.2S16 1 16 2.2v5.4c.1 1.2-.8 2.1-2 2.2h-.2zm-6.2 0H2.2C1 9.8 0 8.8 0 7.6s1-2.2 2.2-2.2h5.4c1.2 0 2.2 1 2.2 2.2s-1 2.2-2.2 2.2zm2.2-5.3H7.6c-1.2 0-2.2-1-2.2-2.2 0-1.2 1-2.2 2.2-2.3 1.2 0 2.2 1 2.2 2.2v2.3z"/></svg>