<?xml version="1.0" encoding="utf-8"?>
<!-- Generator: Adobe Illustrator 25.0.0, SVG Export Plug-In . SVG Version: 6.00 Build 0)  -->
<svg version="1.1" id="Объединение_1" xmlns="http://www.w3.org/2000/svg" xmlns:xlink="http://www.w3.org/1999/xlink"
	 x="0px" y="0px" viewBox="0 0 21.4 21.4" style="enable-background:new 0 0 21.4 21.4;" xml:space="preserve">
<style type="text/css">
	.slack-st0{fill:none;}
</style>
<path id="Контур_465" class="slack-st0" d="M11.6,19.2V17h2.2c1.2,0,2.2,1,2.2,2.2c0,1.2-1,2.2-2.2,2.2S11.6,20.4,11.6,19.2z
	 M5.4,19.2v-5.4c0-1.2,1-2.2,2.2-2.2s2.2,1,2.2,2.2l0,0v5.4c0,1.2-1,2.2-2.2,2.2S5.4,20.4,5.4,19.2z M13.8,16.1
	c-1.2,0-2.2-1-2.2-2.2c0-1.2,1-2.2,2.2-2.2h5.4c1.2,0,2.2,1,2.2,2.2c0,1.2-1,2.2-2.2,2.2c0,0,0,0,0,0H13.8z M0,13.8
	c0-1.2,1-2.2,2.2-2.2h2.2v2.2c0,1.2-1,2.2-2.2,2.2C1,16,0,15.1,0,13.8C0,13.9,0,13.8,0,13.8z M17,9.8V7.6c0-1.2,1-2.2,2.2-2.2
	c1.2,0,2.2,1,2.2,2.2s-1,2.2-2.2,2.2H17z M11.6,7.6V2.2c0-1.2,1-2.2,2.2-2.2S16,1,16,2.2c0,0,0,0,0,0l0,0v5.4c0,1.2-1,2.2-2.2,2.2
	S11.6,8.8,11.6,7.6C11.6,7.6,11.6,7.6,11.6,7.6z M2.2,9.8C1,9.8,0,8.8,0,7.6s1-2.2,2.2-2.2h5.4c1.2,0,2.2,1,2.2,2.2s-1,2.2-2.2,2.2
	H2.2z M7.6,4.5c-1.2,0-2.2-1-2.2-2.2C5.4,1.1,6.3,0,7.6,0c0,0,0,0,0,0c1.2,0,2.2,1,2.2,2.2l0,0v2.2L7.6,4.5L7.6,4.5z"/>
<path id="Контур_466" d="M13.8,19.9c0.4,0,0.7-0.3,0.7-0.7c0-0.4-0.3-0.7-0.7-0.7h-0.7v0.7C13.1,19.6,13.4,19.9,13.8,19.9
	C13.8,19.9,13.8,19.9,13.8,19.9 M7.6,19.9c0.4,0,0.7-0.3,0.7-0.7c0,0,0,0,0,0v-5.4c0-0.4-0.3-0.7-0.7-0.7c-0.4,0-0.7,0.3-0.7,0.7
	v5.4C6.9,19.6,7.2,19.9,7.6,19.9C7.6,19.9,7.6,19.9,7.6,19.9 M19.2,14.6c0.4,0,0.7-0.3,0.7-0.7s-0.3-0.7-0.7-0.7c0,0,0,0,0,0h-5.4
	c-0.4,0-0.7,0.3-0.7,0.7c0,0.4,0.3,0.7,0.7,0.7H19.2 M2.2,14.6c0.4,0,0.7-0.3,0.7-0.7c0,0,0,0,0,0v-0.7H2.2c-0.4,0-0.7,0.3-0.7,0.7
	c0,0,0,0,0,0C1.5,14.3,1.8,14.6,2.2,14.6 M19.2,8.3c0.4,0,0.7-0.3,0.7-0.7s-0.3-0.7-0.7-0.7c-0.4,0-0.7,0.3-0.7,0.7v0.7H19.2
	 M13.8,8.3c0.4,0,0.7-0.3,0.7-0.7c0,0,0,0,0,0V2.2c0-0.4-0.3-0.7-0.7-0.7s-0.7,0.3-0.7,0.7c0,0,0,0,0,0v5.4
	C13.1,8,13.4,8.3,13.8,8.3C13.8,8.3,13.8,8.3,13.8,8.3 M7.6,8.3C8,8.3,8.3,8,8.3,7.6c0-0.4-0.3-0.7-0.7-0.7H2.2
	c-0.4,0-0.7,0.3-0.7,0.7c0,0.4,0.3,0.7,0.7,0.7H7.6 M8.3,3V2.2c0-0.4-0.3-0.7-0.7-0.7c-0.4,0-0.7,0.3-0.7,0.7C6.9,2.6,7.2,3,7.6,3
	H8.3 M13.8,21.4c-1.2,0-2.2-1-2.2-2.2V17h2.2c1.2,0,2.2,1,2.2,2.2c0.1,1.2-0.8,2.1-2,2.2C13.9,21.4,13.9,21.4,13.8,21.4z M7.6,21.4
	c-1.2,0-2.2-1-2.2-2.2v-5.4c0-1.2,1-2.2,2.2-2.2s2.2,1,2.2,2.2v5.4C9.8,20.4,8.8,21.4,7.6,21.4z M19.2,16.1h-5.4
	c-1.2,0-2.2-1-2.2-2.2c0-1.2,1-2.2,2.2-2.2h5.4c1.2,0,2.2,1,2.2,2.2C21.4,15.1,20.4,16.1,19.2,16.1C19.2,16.1,19.2,16.1,19.2,16.1z
	 M2.2,16.1c-1.2,0-2.2-1-2.2-2.2s1-2.2,2.2-2.2c0,0,0,0,0,0h2.2v2.2c0.1,1.2-0.8,2.1-2,2.2C2.3,16.1,2.3,16.1,2.2,16.1z M19.2,9.8
	H17V7.6c0-1.2,1-2.2,2.2-2.2c1.2,0,2.2,1,2.2,2.2S20.4,9.8,19.2,9.8z M13.8,9.8c-1.2,0-2.2-1-2.2-2.2V2.2c0-1.2,1-2.2,2.2-2.2
	S16,1,16,2.2v5.4c0.1,1.2-0.8,2.1-2,2.2C13.9,9.8,13.9,9.8,13.8,9.8z M7.6,9.8H2.2C1,9.8,0,8.8,0,7.6s1-2.2,2.2-2.2h5.4
	c1.2,0,2.2,1,2.2,2.2S8.8,9.8,7.6,9.8z M9.8,4.5H7.6c-1.2,0-2.2-1-2.2-2.2c0-1.2,1-2.2,2.2-2.3c1.2,0,2.2,1,2.2,2.2V4.5z"/>
</svg>
