<?xml version="1.0" encoding="utf-8"?>
<!-- Generator: Adobe Illustrator 25.0.0, SVG Export Plug-In . SVG Version: 6.00 Build 0)  -->
<svg version="1.1" id="Слой_1" xmlns="http://www.w3.org/2000/svg" xmlns:xlink="http://www.w3.org/1999/xlink" x="0px" y="0px"
	 viewBox="0 0 29.6 24.8" style="enable-background:new 0 0 29.6 24.8;" xml:space="preserve">
<style type="text/css">
	.telegram-st0{fill:none;stroke:currentColor;stroke-width:2;}
</style>
<path id="Контур_33" class="telegram-st0" d="M22.3,23.6c1,0.6,2.9,1.2,3.5-1.4s2.7-16.9,3-18.5s0.1-3.8-3.2-2.5S4.3,10.1,2.4,10.8
	s-2.1,1.8-0.7,2.4c1.4,0.6,2.9,1.1,4.5,1.4c1.3,0.4,2.7,0.2,3.9-0.5c1.3-0.8,10.2-6.8,11.1-7.4s1,0.2,0.8,0.5s-6.5,6.3-7.7,7.6
	s-1.6,2.2,0,3.3S22.3,23.6,22.3,23.6z"/>
</svg>
