<svg xmlns="http://www.w3.org/2000/svg" width="23.676" height="19.769" viewBox="0 0 23.676 19.769">
  <g id="Weibo" transform="translate(-559.72 -1046.717)">
    <path id="Контур_12" data-name="Контур 12" d="M569.465,1058.923a.3.3,0,0,0-.3.2h0c-.094.334.428.375.51.07a.219.219,0,0,0-.215-.274m-1.438,2.656A.966.966,0,0,0,567,1060.4a1.359,1.359,0,0,0-1.284.972.95.95,0,0,0,1.03,1.182,1.318,1.318,0,0,0,1.283-.974Zm10.231-4.252a4.352,4.352,0,0,0-1.139-.561c-.411-.156-.478-.227-.305-.635a3.665,3.665,0,0,0,.258-.893c.248-1.549-1-2.063-2.436-2a7.848,7.848,0,0,0-1.85.346c-.385.107-1.109.479-1.256.231-.082-.124.029-.311.068-.43.256-.839.388-2.011-.424-2.562a3.023,3.023,0,0,0-2.3-.139c-3.5,1.046-8.966,5.829-8.044,9.83a4.61,4.61,0,0,0,1.151,2.1,10.317,10.317,0,0,0,5.63,2.741,14.431,14.431,0,0,0,4.57.084,10.145,10.145,0,0,0,6.464-3.289c1.07-1.277,1.468-3.132.165-4.376a4.553,4.553,0,0,0-.555-.454Z" transform="translate(0 -0.104)" fill="none" stroke="currentColor" stroke-linecap="round" stroke-linejoin="round" stroke-width="2"/>
    <path id="Контур_13" data-name="Контур 13" d="M575.126,1047.952a6.125,6.125,0,0,1,7.8,6.119,6.2,6.2,0,0,1-.115.98" transform="translate(-0.534)" fill="none" stroke="currentColor" stroke-linecap="round" stroke-linejoin="round" stroke-width="2"/>
    <path id="Контур_14" data-name="Контур 14" d="M576.417,1050.873a2.828,2.828,0,0,1,3.5,3.689" transform="translate(-0.582 -0.112)" fill="none" stroke="currentColor" stroke-linecap="round" stroke-linejoin="round" stroke-width="2"/>
    <path id="Контур_15" data-name="Контур 15" d="M574.321,1058.488a8.934,8.934,0,0,0-7.312-.88,6.833,6.833,0,0,0-3.188,1.906,3.084,3.084,0,0,0-.455,3.776c1.224,1.985,4.228,2.457,7.6,2.33a6.5,6.5,0,0,0,4.652-2.977,3.22,3.22,0,0,0-1.3-4.155Z" transform="translate(-0.081 -0.352)" fill="none" stroke="currentColor" stroke-linecap="round" stroke-linejoin="round" stroke-width="2"/>
  </g>
</svg>
