<svg xmlns="http://www.w3.org/2000/svg" viewBox="0 0 17.66 17.48"><g fill="none"><path d="M7.669 16.152V9.129h9.983v8.352zm-7.67-1.171V9.129h6.9v6.838zm7.67-6.615V1.317L17.65 0v8.366zm-7.67 0V2.491l6.9-.978v6.852z"/><path d="M16.152 15.768v-5.14H9.169v4.21l6.983.93m-10.754-1.53v-3.61H1.5v3.052l3.898.557M16.15 6.866V1.711l-6.98.92v4.235h6.98m-10.752 0V3.241L1.5 3.794v3.072h3.898m12.254 10.615l-9.983-1.329V9.13h9.983v8.352zM6.898 15.967L0 14.981V9.129h6.898v6.838zM17.65 8.366H7.67v-7.05L17.65 0v8.366zm-10.752 0H0V2.491l6.898-.977v6.852z" fill="currentColor"/></g></svg>