<svg xmlns="http://www.w3.org/2000/svg" xmlns:xlink="http://www.w3.org/1999/xlink" viewBox="0 0 29 30"><defs><path id="alert-default_svg__a" d="M.5.3h28v29H.5z"/></defs><clipPath id="alert-default_svg__b"><use xlink:href="#alert-default_svg__a" overflow="visible"/></clipPath><g clip-path="url(#alert-default_svg__b)"><defs><path id="alert-default_svg__c" d="M0 .5h29v29H0z"/></defs><clipPath id="alert-default_svg__d"><use xlink:href="#alert-default_svg__c" overflow="visible"/></clipPath><g clip-path="url(#alert-default_svg__d)"><path d="M27.4 13.9c-.6 0-1.2.5-1.2 1.2 0 3.1-1.2 6.1-3.5 8.3-2.2 2.2-5.2 3.4-8.3 3.5-6.4 0-11.7-5.3-11.7-11.8S8 3.3 14.5 3.3c1.6 0 3.1.3 4.5.9 1.4.6 2.7 1.5 3.8 2.6.3.3 1.3.5 1.8 0s.5-1 .3-1.4c-.1-.1-.2-.3-.3-.4-1.3-1.3-2.9-2.4-4.6-3.1-1.7-.7-3.6-1.1-5.4-1.1C6.7 1 .4 7.3.4 15.1s6.3 14.1 14.1 14.1 14.1-6.3 14.1-14.1c0-.6-.5-1.2-1.2-1.2z"/></g><path d="M17.6 13.9c0-1.5-1-2.8-2.3-3.2-.1 0-.2-.1-.2-.2-.1-.1-.1-.2-.1-.3 0-.4-.4-.8-.8-.8s-.8.4-.8.8c0 .1 0 .2-.1.3l-.2.2c-1.3.5-2.2 1.7-2.2 3.2v2.2c0 .5-.2.9-.5 1.3l-.4.4c-.1.1-.1.1-.1.2v.2c0 .1 0 .1.1.2s.1.1.2.1h8.1c.1 0 .2 0 .2-.1.1-.1.1-.1.1-.2V18c0-.1 0-.1-.1-.2l-.4-.4c-.2-.2-.3-.4-.4-.6s-.1-.5-.1-.7v-2.2zm-3.4 6c.6 0 .8-.3.9-.6 0-.1.1-.3.1-.4h-2.1c0 .3.1.7.3.8.3.2.5.2.8.2z"/></g></svg>