<?xml version="1.0" encoding="utf-8"?>
<svg version="1.1" id="arrow-rotate-left" xmlns="http://www.w3.org/2000/svg" xmlns:xlink="http://www.w3.org/1999/xlink" x="0px"
	 y="0px" viewBox="0 0 20 20" enable-background="new 0 0 20 20" xml:space="preserve">
<g>
	<g>
		<path fill="currentColor" d="M10.01027,20c1.40719,0,2.80941-0.29555,4.12672-0.88335c2.4532-1.09509,4.31144-3.07574,5.23228-5.57581
			c1.92109-5.21795-0.69477-11.00329-5.83056-12.89627C9.82721-0.71464,5.824,0.11026,3.04823,2.7934V1.92328
			c0-0.62364-0.50509-1.12928-1.12928-1.12928S0.78967,1.29964,0.78967,1.92328v3.59296c0,0.0011,0,0.00276,0,0.00276
			c0.0011,0.28452,0.10697,0.54424,0.28011,0.74219c0.0011,0,0.0011,0.00055,0.0011,0.00055l0,0
			c0.04632,0.05294,0.09815,0.10201,0.15439,0.14557c0.17314,0.13509,0.38709,0.22111,0.62088,0.236
			c0.02647,0.00165,0.04411,0.0011,0.08051,0.00221h3.58634c0.62419,0,1.12928-0.50564,1.12928-1.12928
			S6.1372,4.38696,5.51301,4.38696h-0.8635c2.14717-2.05012,5.23725-2.67432,8.11062-1.62223
			c3.96516,1.46178,5.98054,5.9458,4.48954,9.99532c-0.70856,1.92441-2.14056,3.44959-4.03298,4.29434
			c-1.88967,0.84365-4.00486,0.91202-5.95904,0.19079c-1.90014-0.69477-3.47054-2.15158-4.31089-3.99769
			c-0.25916-0.56795-0.92746-0.81829-1.49651-0.55912c-0.56684,0.25916-0.81718,0.92857-0.55912,1.49651
			c1.09068,2.39089,3.12647,4.28001,5.58794,5.181C7.6271,19.78936,8.82034,20,10.01027,20z"/>
	</g>
</g>
</svg>
