<?xml version="1.0" encoding="utf-8"?>
<!-- Generator: Adobe Illustrator 25.0.0, SVG Export Plug-In . SVG Version: 6.00 Build 0)  -->
<svg version="1.1" id="Слой_1" xmlns="http://www.w3.org/2000/svg" xmlns:xlink="http://www.w3.org/1999/xlink" x="0px" y="0px"
	 viewBox="0 0 23.4 23.9" style="enable-background:new 0 0 23.4 23.9;" xml:space="preserve">
<g id="Business_Registration" transform="translate(-406.389 -270.043)" fill="none" stroke="currentColor" stroke-width="2">
	<path id="Фигура_1006_копия" class="st0" d="M423,273.5c0,0,2.6,1.5,4.1,2.4s1.1,2.9-0.6,2.9h-16.6
		c-1.9,0-2.3-1.9-0.8-2.9s4-2.4,4-2.4"/>
	<g id="Forma_1_копия" transform="translate(-15.074 -0.957)">
		<g id="Контур_461">
			<path d="M433.1,275.7l1.1-0.4V273H432l0,2.3L433.1,275.7 M433.1,277.8c-0.1,0-0.2,0-0.3-0.1l-2.4-0.9c-0.2-0.1-0.4-0.3-0.4-0.6
				v-0.8l0-3.7c0-0.1,0.1-0.3,0.2-0.4c0.1-0.2,0.4-0.3,0.6-0.3h4.7c0.4,0,0.7,0.3,0.7,0.7v4.5c0,0.3-0.1,0.5-0.4,0.6l-2.4,0.9
				C433.3,277.7,433.2,277.8,433.1,277.8z"/>
		</g>
	</g>
	<path id="Прямоугольник_скругл._углы_780" class="st0" d="M409.7,289.4h-0.4c-1-0.1-1.8,0.6-1.9,1.6
		s0.6,1.8,1.6,1.9l0,0h18c1,0,1.8-0.8,1.8-1.7c0-0.9-0.7-1.7-1.7-1.8h-14c-0.4,0.1-0.8-0.2-0.9-0.7c-0.1-0.3,0.1-0.7,0.4-0.8"/>
	<line id="Фигура_1008" class="st0" x1="410" y1="279.5" x2="410" y2="284.5"/>
	<line id="Фигура_1008_копия_2" class="st0" x1="416" y1="279.5" x2="416" y2="282.5"/>
	<line id="Фигура_1008_копия_3" class="st0" x1="423" y1="279.5" x2="423" y2="280.5"/>
	<path id="Фигура_1006" class="st0" d="M426.1,283.4c0,0-5.9,3.3-6.5,3.6s-1.1,0.4-1.5-0.2c-0.2-0.2-0.4-0.5-0.5-0.8
		c-0.3-0.4-0.8-0.5-1.1-0.2c0,0,0,0-0.1,0l-3.9,2.1"/>
	<path id="Фигура_1007" class="st0" d="M424.3,282.7c0.7-0.1,1.3-0.2,2-0.2c0.4,0,0.5-0.2,0.3,0.5l-0.9,1.8"/>
</g>
</svg>
