<svg xmlns="http://www.w3.org/2000/svg" viewBox="0 0 22.294 22.787"><g id="Business" transform="translate(1)" fill="none" stroke-linecap="round"><path id="Фигура_1006_копия" data-name="Фигура 1006 копия" d="M14.875 3.251s2.444 1.4 3.911 2.287 1.027 2.74-.535 2.74h-6.685l-2.727.005s-4.563-.005-6.388-.005c-1.792 0-2.179-1.789-.769-2.721s3.756-2.306 3.756-2.306" stroke="currentColor" stroke-width="2"/><g id="Forma_1_копия" data-name="Forma 1 копия"><path d="M430 275.181v.734a.641.641 0 00.426.589l2.323.9a.757.757 0 00.546 0l2.323-.9a.641.641 0 00.426-.588v-4.275a.671.671 0 00-.7-.639h-4.6a.716.716 0 00-.587.292.607.607 0 00-.161.408v3.48z" transform="translate(-422.762 -271)"/><path d="M433.018 275.366l1.022-.397V273h-2.044v1.97l1.022.397m0 2.09a.753.753 0 01-.273-.05l-2.323-.903a.64.64 0 01-.426-.588V271.7a.61.61 0 01.162-.409.716.716 0 01.587-.292h4.596c.387 0 .7.286.7.64v4.275a.64.64 0 01-.426.588l-2.323.902a.754.754 0 01-.274.051z" fill="currentColor" transform="translate(-422.762 -271)"/></g><path id="Прямоугольник_скругл._углы_780" data-name="Прямоугольник, скругл. углы 780" d="M2.266 18.444h-.413a1.681 1.681 0 100 3.344h16.7a1.673 1.673 0 100-3.344s-8.3-.006-13.216-.006c-1.093 0-1.111-1.114-.512-1.4" stroke="currentColor" stroke-width="2"/><path id="Фигура_1008" data-name="Фигура 1008" stroke="currentColor" stroke-width="2" d="M2.556 8.955v4.753"/><path id="Фигура_1008_копия_2" data-name="Фигура 1008 копия 2" stroke="currentColor" stroke-width="2" d="M8.259 8.955v2.852"/><path id="Фигура_1008_копия_3" data-name="Фигура 1008 копия 3" stroke="currentColor" stroke-width="2" d="M14.913 8.955v.951"/><path id="Фигура_1006" data-name="Фигура 1006" d="M17.821 12.67s-5.614 3.125-6.189 3.436-1.027.372-1.4-.16-.241-.4-.488-.754a.857.857 0 00-1.188-.213l-3.675 2.026" stroke="currentColor" stroke-width="2"/><path id="Фигура_1007" data-name="Фигура 1007" d="M16.153 11.985c.552-.063 1.537-.155 1.905-.172s.517-.158.308.441a17.522 17.522 0 01-.84 1.747" stroke="currentColor" stroke-width="2"/></g></svg>