<svg version="1.1" id="Слой_1" xmlns="http://www.w3.org/2000/svg" x="0" y="0" viewBox="0 0 23.4 23.9" xml:space="preserve"><g id="Business_Registration" transform="translate(-406.389 -270.043)" fill="none" stroke="currentColor" stroke-width="2"><path id="Фигура_1006_копия" class="st0" d="M423 273.5s2.6 1.5 4.1 2.4 1.1 2.9-.6 2.9h-16.6c-1.9 0-2.3-1.9-.8-2.9s4-2.4 4-2.4"/><g id="Forma_1_копия" transform="translate(-15.074 -.957)"><path d="M433.1 275.7l1.1-.4V273H432v2.3l1.1.4m0 2.1c-.1 0-.2 0-.3-.1l-2.4-.9c-.2-.1-.4-.3-.4-.6v-4.5c0-.1.1-.3.2-.4.1-.2.4-.3.6-.3h4.7c.4 0 .7.3.7.7v4.5c0 .3-.1.5-.4.6l-2.4.9c-.1 0-.2.1-.3.1z" id="Контур_461"/></g><path id="Прямоугольник_скругл._углы_780" class="st0" d="M409.7 289.4h-.4c-1-.1-1.8.6-1.9 1.6s.6 1.8 1.6 1.9h18c1 0 1.8-.8 1.8-1.7 0-.9-.7-1.7-1.7-1.8h-14c-.4.1-.8-.2-.9-.7-.1-.3.1-.7.4-.8"/><path id="Фигура_1008" class="st0" d="M410 279.5v5"/><path id="Фигура_1008_копия_2" class="st0" d="M416 279.5v3"/><path id="Фигура_1008_копия_3" class="st0" d="M423 279.5v1"/><path id="Фигура_1006" class="st0" d="M426.1 283.4s-5.9 3.3-6.5 3.6-1.1.4-1.5-.2c-.2-.2-.4-.5-.5-.8-.3-.4-.8-.5-1.1-.2h-.1l-3.9 2.1"/><path id="Фигура_1007" class="st0" d="M424.3 282.7c.7-.1 1.3-.2 2-.2.4 0 .5-.2.3.5l-.9 1.8"/></g></svg>