<svg xmlns="http://www.w3.org/2000/svg" viewBox="0 0 22.294 22.787">
  <g id="Business" transform="translate(1)">
    <path id="Фигура_1006_копия" data-name="Фигура 1006 копия" d="M422.514,278.15s2.444,1.4,3.911,2.287,1.027,2.74-.535,2.74h-6.685l-2.727.005s-4.563-.005-6.388-.005c-1.792,0-2.179-1.789-.769-2.721s3.756-2.306,3.756-2.306" transform="translate(-407.639 -274.899)" fill="none" stroke="currentColor" stroke-linecap="round" stroke-width="2"/>
    <g id="Forma_1_копия" data-name="Forma 1 копия" transform="translate(-422.762 -271)" fill="none" stroke-linecap="round">
      <path d="M430,275.181v.734a.641.641,0,0,0,.426.589l2.323.9a.757.757,0,0,0,.546,0l2.323-.9a.641.641,0,0,0,.426-.588v-4.275a.671.671,0,0,0-.7-.639h-4.6a.716.716,0,0,0-.587.292.607.607,0,0,0-.161.408v3.48Z" stroke="none"/>
      <path d="M 433.0184631347656 275.3659057617188 L 434.0404663085938 274.9690246582031 L 434.0405578613281 273.9169311523438 L 434.0405578613281 273.0002746582031 L 431.9964294433594 273.0002746582031 L 431.9964294433594 273.8739318847656 L 431.9964294433594 274.968994140625 L 433.0184631347656 275.3659057617188 M 433.0183410644531 277.4563598632812 C 432.9254150390625 277.4563293457031 432.8324279785156 277.4393615722656 432.7452087402344 277.4053344726562 L 430.4224548339844 276.5032348632812 C 430.1641540527344 276.4030151367188 429.9964294433594 276.1712646484375 429.9964294433594 275.9147338867188 L 429.9964294433594 275.1811218261719 L 429.9964294433594 273.8739318847656 L 429.9964294433594 271.7008361816406 C 429.9964294433594 271.5497131347656 430.0549011230469 271.4056396484375 430.1578979492188 271.2923889160156 C 430.2822875976562 271.1166381835938 430.4987487792969 271.0002746582031 430.7449340820312 271.0002746582031 L 435.3414001464844 271.0002746582031 C 435.7275085449219 271.0002746582031 436.0405578613281 271.2864685058594 436.0405578613281 271.6394653320312 L 436.0405578613281 273.9169311523438 L 436.0404357910156 275.2231140136719 L 436.0404357910156 275.9148254394531 C 436.0404357910156 276.1712646484375 435.872802734375 276.4031372070312 435.6145935058594 276.5032348632812 L 433.2916564941406 277.4053344726562 C 433.2043762207031 277.4393310546875 433.1113891601562 277.4563598632812 433.0183410644531 277.4563598632812 Z" stroke="none" fill="currentColor"/>
    </g>
    <path id="Прямоугольник_скругл._углы_780" data-name="Прямоугольник, скругл. углы 780" d="M409.577,319.13h-.413a1.681,1.681,0,1,0,0,3.344h16.7a1.673,1.673,0,1,0,0-3.344s-8.3-.006-13.216-.006c-1.093,0-1.111-1.114-.512-1.4" transform="translate(-407.311 -300.686)" fill="none" stroke="currentColor" stroke-linecap="round" stroke-width="2"/>
    <line id="Фигура_1008" data-name="Фигура 1008" y2="4.753" transform="translate(2.556 8.955)" fill="none" stroke="currentColor" stroke-linecap="round" stroke-width="2"/>
    <line id="Фигура_1008_копия_2" data-name="Фигура 1008 копия 2" y2="2.852" transform="translate(8.259 8.955)" fill="none" stroke="currentColor" stroke-linecap="round" stroke-width="2"/>
    <line id="Фигура_1008_копия_3" data-name="Фигура 1008 копия 3" y2="0.951" transform="translate(14.913 8.955)" fill="none" stroke="currentColor" stroke-linecap="round" stroke-width="2"/>
    <path id="Фигура_1006" data-name="Фигура 1006" d="M433.294,305.665s-5.614,3.125-6.189,3.436-1.027.372-1.4-.16-.241-.4-.488-.754a.857.857,0,0,0-1.188-.213L420.354,310" transform="translate(-415.473 -292.995)" fill="none" stroke="currentColor" stroke-linecap="round" stroke-width="2"/>
    <path id="Фигура_1007" data-name="Фигура 1007" d="M0,.161C.553.107,1.539.032,1.908.021s.519-.149.3.447A17.519,17.519,0,0,1,1.338,2.2" transform="matrix(1, -0.017, 0.017, 1, 16.15, 11.824)" fill="none" stroke="currentColor" stroke-linecap="round" stroke-width="2"/>
  </g>
</svg>
