<svg xmlns="http://www.w3.org/2000/svg" xmlns:xlink="http://www.w3.org/1999/xlink" viewBox="0 0 30 27"><defs><path id="business_svg__a" d="M.4.2h29v26H.4z"/></defs><clipPath id="business_svg__b"><use xlink:href="#business_svg__a"/></clipPath><g clip-path="url(#business_svg__b)"><path d="M11.9 9.8c2.3 0 4.2-1.9 4.2-4.2s-1.9-4.2-4.2-4.2c-2.3 0-4.2 1.9-4.2 4.2s1.9 4.2 4.2 4.2z" fill="none" stroke="currentColor" stroke-width="2"/><path d="M17.3 16.7c-1-.8-2.3-1.2-3.5-1.2h-4c-3.1 0-5.2 1.9-7 6.6l-.5 1.3c-.2.4-.7.8-1.3.6s-.8-.8-.6-1.4l.5-1.3c1.3-3.3 3.6-7.9 8.9-7.9h4c1.9 0 3.7.6 5.1 1.9.8.6-.7 2-1.6 1.4z"/><path d="M28.2 15.7l-9.5 8a2.11 2.11 0 01-2.4 0c-.2-.4-1-1.2-1.2-1.6s-1-.6-1.8 0-4.5 3.2-4.5 3.2" fill="none" stroke="currentColor" stroke-width="2"/><path d="M23.1 19.8l2.2-3.1c.1-.1.1-.4 0-.5l-.1-.1h-1.6c-.2 0-.5-.2-.5-.5v-1.1c0-.1 0-.2.1-.4.1-.1.2-.1.4-.1l5.3.1c.1 0 .2.1.4.1.1.1.1.2.1.4l-.1 5.2c0 .1 0 .2-.1.4-.1.1-.2.1-.4.1h-1.1c-.2 0-.5-.2-.5-.5v-1.6c0-.1-.1-.2-.2-.2s-.1 0-.2.1l-3.3 2c-.3.4-.6-.1-.4-.3z"/></g></svg>