<svg xmlns="http://www.w3.org/2000/svg" viewBox="0 0 20 20"><style>.calendar-st0{fill:none;stroke:currentColor;stroke-width:2;stroke-linecap:round;stroke-linejoin:round}</style><path class="calendar-st0" d="M1.019 4.6c0-.6.5-1.2 1.2-1.2h15.6c.6 0 1.2.5 1.2 1.2v13.1c0 .6-.5 1.2-1.2 1.2h-15.6c-.6 0-1.2-.5-1.2-1.2V4.6zm0 3.6h17.4m-12.6-3V1m8.3 4.2V1"/><path class="calendar-st0" d="M4.919 11.3c-.2 0-.3.1-.3.3s.1.3.3.3c.2-.1.3-.2.3-.3 0-.2-.1-.3-.3-.3m0 4.2c-.2 0-.3.1-.3.3s.1.3.3.3c.2 0 .3-.1.3-.3 0-.2-.1-.3-.3-.3m5-4.2c-.2 0-.3.1-.3.3s.1.3.3.3.3-.1.3-.3c0-.2-.1-.3-.3-.3m0 4.2c-.2 0-.3.1-.3.3s.1.3.3.3.3-.1.3-.3c0-.2-.1-.3-.3-.3m5.2-4.2c-.2 0-.3.1-.3.3s.1.3.3.3c.2 0 .3-.1.3-.3 0-.2-.2-.3-.3-.3m0 4.2c-.2 0-.3.1-.3.3s.1.3.3.3c.2 0 .3-.1.3-.3 0-.2-.2-.3-.3-.3"/></svg>