<?xml version="1.0" encoding="utf-8"?>
<!-- Generator: Adobe Illustrator 22.0.1, SVG Export Plug-In . SVG Version: 6.00 Build 0)  -->
<svg version="1.1" id="Layer_1" xmlns="http://www.w3.org/2000/svg" xmlns:xlink="http://www.w3.org/1999/xlink" x="0px" y="0px"
	 viewBox="0 0 23 23" style="enable-background:new 0 0 23 23;" xml:space="preserve">
<style type="text/css">
	.st0{fill:none;stroke:#000000;stroke-width:1.5;stroke-linecap:round;stroke-linejoin:round;}
</style>
<g id="Timestamp" transform="translate(-303.005 -2847)">
	<g id="Group_266" transform="translate(303.755 2847.75)">
		<g id="calendar-3">
			<path id="Rectangle-path_79" class="st0" d="M0,4.3c0-0.8,0.6-1.4,1.4-1.4c0,0,0,0,0,0h18.6c0.8,0,1.4,0.6,1.4,1.4l0,0v15.8
				c0,0.8-0.6,1.4-1.4,1.4c0,0,0,0,0,0H1.4c-0.8,0-1.4-0.6-1.4-1.4l0,0V4.3z"/>
			<path id="Shape_1209" class="st0" d="M0,8.6h21.5"/>
			<path id="Shape_1210" class="st0" d="M5.7,5V0"/>
			<path id="Shape_1211" class="st0" d="M15.8,5V0"/>
			<path id="Shape_1212" class="st0" d="M4.7,12.2c-0.2,0-0.4,0.2-0.4,0.4c0,0.2,0.2,0.4,0.4,0.4c0.2,0,0.4-0.2,0.4-0.4l0,0
				C5,12.4,4.9,12.2,4.7,12.2C4.7,12.2,4.7,12.2,4.7,12.2"/>
			<path id="Shape_1213" class="st0" d="M4.7,17.2c-0.2,0-0.4,0.2-0.4,0.4c0,0.2,0.2,0.4,0.4,0.4c0.2,0,0.4-0.2,0.4-0.4l0,0
				C5,17.4,4.9,17.2,4.7,17.2"/>
			<path id="Shape_1214" class="st0" d="M10.8,12.2c-0.2,0-0.4,0.2-0.4,0.4c0,0.2,0.2,0.4,0.4,0.4c0.2,0,0.4-0.2,0.4-0.4l0,0
				C11.1,12.4,11,12.2,10.8,12.2C10.8,12.2,10.8,12.2,10.8,12.2"/>
			<path id="Shape_1215" class="st0" d="M10.8,17.2c-0.2,0-0.4,0.2-0.4,0.4c0,0.2,0.2,0.4,0.4,0.4c0.2,0,0.4-0.2,0.4-0.4l0,0
				C11.1,17.4,11,17.2,10.8,17.2"/>
			<path id="Shape_1216" class="st0" d="M16.9,12.2c-0.2,0-0.4,0.2-0.4,0.4c0,0.2,0.2,0.4,0.4,0.4c0.2,0,0.4-0.2,0.4-0.4l0,0
				C17.2,12.4,17.1,12.2,16.9,12.2C16.9,12.2,16.9,12.2,16.9,12.2"/>
			<path id="Shape_1217" class="st0" d="M16.9,17.2c-0.2,0-0.4,0.2-0.4,0.4c0,0.2,0.2,0.4,0.4,0.4c0.2,0,0.4-0.2,0.4-0.4l0,0
				C17.2,17.4,17.1,17.2,16.9,17.2"/>
		</g>
	</g>
</g>
</svg>
