<svg version="1.1" xmlns="http://www.w3.org/2000/svg" x="0" y="0" viewBox="0 0 23 23" xml:space="preserve"><style>.calendar{fill:none;stroke:currentColor;stroke-width:2;stroke-linecap:round;stroke-linejoin:round}</style><g id="Timestamp" transform="translate(-303.005 -2847)"><g id="Group_266" transform="translate(303.755 2847.75)"><g id="calendar-3"><path id="Rectangle-path_79" class="calendar" d="M0 4.3c0-.8.6-1.4 1.4-1.4H20c.8 0 1.4.6 1.4 1.4v15.8c0 .8-.6 1.4-1.4 1.4H1.4c-.8 0-1.4-.6-1.4-1.4V4.3z"/><path id="Shape_1209" class="calendar" d="M0 8.6h21.5"/><path id="Shape_1210" class="calendar" d="M5.7 5V0"/><path id="Shape_1211" class="calendar" d="M15.8 5V0"/><path id="Shape_1212" class="calendar" d="M4.7 12.2c-.2 0-.4.2-.4.4s.2.4.4.4.4-.2.4-.4c-.1-.2-.2-.4-.4-.4"/><path id="Shape_1213" class="calendar" d="M4.7 17.2c-.2 0-.4.2-.4.4s.2.4.4.4.4-.2.4-.4c-.1-.2-.2-.4-.4-.4"/><path id="Shape_1214" class="calendar" d="M10.8 12.2c-.2 0-.4.2-.4.4s.2.4.4.4.4-.2.4-.4c-.1-.2-.2-.4-.4-.4"/><path id="Shape_1215" class="calendar" d="M10.8 17.2c-.2 0-.4.2-.4.4s.2.4.4.4.4-.2.4-.4c-.1-.2-.2-.4-.4-.4"/><path id="Shape_1216" class="calendar" d="M16.9 12.2c-.2 0-.4.2-.4.4s.2.4.4.4.4-.2.4-.4c-.1-.2-.2-.4-.4-.4"/><path id="Shape_1217" class="calendar" d="M16.9 17.2c-.2 0-.4.2-.4.4s.2.4.4.4.4-.2.4-.4c-.1-.2-.2-.4-.4-.4"/></g></g></g></svg>
