<svg version="1.1" id="Слой_1" xmlns="http://www.w3.org/2000/svg" x="0" y="0" viewBox="0 0 20 20" xml:space="preserve"><style>.calendar-st0{fill:none;stroke:currentColor;stroke-width:2;stroke-linecap:round;stroke-linejoin:round}</style><g id="Timestamp" transform="translate(-187.636 -2553.75)"><g id="Group_266" transform="translate(303.755 2847.75)"><g id="calendar-3"><path id="Rectangle-path_79" class="calendar-st0" d="M-115.1-289.4c0-.6.5-1.2 1.2-1.2h15.6c.6 0 1.2.5 1.2 1.2v13.1c0 .6-.5 1.2-1.2 1.2h-15.6c-.6 0-1.2-.5-1.2-1.2v-13.1z"/><path id="Shape_1209" class="calendar-st0" d="M-115.1-285.8h17.4"/><path id="Shape_1210" class="calendar-st0" d="M-110.3-288.8v-4.2"/><path id="Shape_1211" class="calendar-st0" d="M-102-288.8v-4.2"/><path id="Shape_1212" class="calendar-st0" d="M-111.2-282.7c-.2 0-.3.1-.3.3s.1.3.3.3c.2-.1.3-.2.3-.3 0-.2-.1-.3-.3-.3"/><path id="Shape_1213" class="calendar-st0" d="M-111.2-278.5c-.2 0-.3.1-.3.3s.1.3.3.3c.2 0 .3-.1.3-.3 0-.2-.1-.3-.3-.3"/><path id="Shape_1214" class="calendar-st0" d="M-106.2-282.7c-.2 0-.3.1-.3.3s.1.3.3.3.3-.1.3-.3c0-.2-.1-.3-.3-.3"/><path id="Shape_1215" class="calendar-st0" d="M-106.2-278.5c-.2 0-.3.1-.3.3s.1.3.3.3.3-.1.3-.3c0-.2-.1-.3-.3-.3"/><path id="Shape_1216" class="calendar-st0" d="M-101-282.7c-.2 0-.3.1-.3.3s.1.3.3.3c.2 0 .3-.1.3-.3 0-.2-.2-.3-.3-.3"/><path id="Shape_1217" class="calendar-st0" d="M-101-278.5c-.2 0-.3.1-.3.3s.1.3.3.3c.2 0 .3-.1.3-.3 0-.2-.2-.3-.3-.3"/></g></g></g></svg>