<svg xmlns="http://www.w3.org/2000/svg" viewBox="0 0 23.748 23.748"><g id="Cards" transform="translate(-251.75 -1564.75)"><g id="Group_177" data-name="Group 177" transform="translate(252.75 1565.75)"><g id="credit-card" fill="none" stroke="currentColor" stroke-linecap="round" stroke-linejoin="round" stroke-width="2"><path id="Shape_1151" data-name="Shape 1151" d="M274.6 1578.074V1567.2a1.45 1.45 0 00-1.45-1.45H257.2a1.45 1.45 0 00-1.45 1.45v3.625" transform="translate(-252.85 -1565.75)"/><path id="Shape_1152" data-name="Shape 1152" d="M255.75 1570.25h18.85" transform="translate(-252.85 -1565.9)"/><path id="Rectangle-path_47" data-name="Rectangle-path 47" d="M252.75 1575.45a1.45 1.45 0 011.45-1.45h15.949a1.45 1.45 0 011.45 1.45v10.874a1.45 1.45 0 01-1.45 1.45H254.2a1.45 1.45 0 01-1.45-1.45z" transform="translate(-252.75 -1566.026)"/><path id="Shape_1153" data-name="Shape 1153" d="M252.75 1578.5h18.85" transform="translate(-252.75 -1566.176)"/><path id="Shape_1154" data-name="Shape 1154" d="M255.75 1583h2.175" transform="translate(-252.85 -1566.327)"/><path id="Shape_1155" data-name="Shape 1155" d="M265.762 1582.225a1.812 1.812 0 100 2.175 1.813 1.813 0 100-2.175z" transform="translate(-253.076 -1566.276)"/></g></g></g></svg>