<svg version="1.1" id="Layer_1" xmlns="http://www.w3.org/2000/svg" x="0" y="0" viewBox="0 0 25.3 25.3" xml:space="preserve"><style>.careers-st0{fill:none;stroke:currentColor;stroke-width:2;stroke-linecap:round;stroke-linejoin:round}</style><g id="careers" transform="translate(-299.343 -304.86)"><path id="Shape_175" class="careers-st0" d="M300.7 307.7l1.5 1.9v4.5c0 1.7 1.9 3.2 3.7 4.8"/><path id="Shape_176" class="careers-st0" d="M305.2 312.9l1.8 1.8c.5.5 1.2.5 1.7 0s.5-1.2 0-1.7l-2.8-2.8v-1.5c-.1-.9-.5-1.7-1-2.5"/><path id="Shape_177" class="careers-st0" d="M306 313.6v12.1c0 .8.7 1.5 1.5 1.5h6.8"/><path id="Shape_178" class="careers-st0" d="M323.2 327.3l-1.5-1.9v-4.5c0-1.5-1.4-2.8-3-4.1"/><path id="Shape_179" class="careers-st0" d="M309.7 309.2h7.5c.8 0 1.5.7 1.5 1.5v11.4l-1.8-1.8c-.5-.5-1.2-.5-1.7 0s-.5 1.2 0 1.7l2.8 2.8v1.5c.1.9.5 1.7 1 2.4"/></g></svg>