<svg version="1.1" id="Layer_1" xmlns="http://www.w3.org/2000/svg" x="0" y="0" viewBox="0 0 21.5 24.5" xml:space="preserve"><style>.category-st0{fill:none;stroke:currentColor;stroke-width:2;stroke-linecap:round;stroke-linejoin:round}</style><g id="category" transform="translate(-208.255 -5662.75)"><path id="Shape_2447" class="category-st0" d="M223.5 5686.2h4.5c.4 0 .8-.3.8-.8v-4.9c0-.2-.1-.4-.2-.5l-1.1-1.1c-.1-.1-.3-.2-.5-.2h-3.4c-.4 0-.8.3-.8.8v6c0 .4.3.7.7.7z"/><path id="Shape_2448" class="category-st0" d="M223.5 5672.8h4.5c.4 0 .7-.3.8-.7v-4.9c0-.2-.1-.4-.2-.5l-1.1-1.1c-.1-.1-.3-.2-.5-.2h-3.4c-.4 0-.8.3-.8.8v6c0 .2.3.6.7.6z"/><path id="Shape_2449" class="category-st0" d="M209.3 5663.8v1.5"/><path id="Shape_2450" class="category-st0" d="M209.3 5668.2v3"/><path id="Shape_2451" class="category-st0" d="M209.3 5674.2v3"/><path id="Shape_2452" class="category-st0" d="M209.3 5680.2v1.5c0 .8.7 1.5 1.5 1.5h1.5"/><path id="Shape_2453" class="category-st0" d="M215.3 5683.2h3"/><path id="Shape_2454" class="category-st0" d="M221.3 5683.2h1.5"/><path id="Shape_2455" class="category-st0" d="M209.3 5669.8h3"/><path id="Shape_2456" class="category-st0" d="M215.3 5669.8h3"/><path id="Shape_2457" class="category-st0" d="M221.3 5669.8h1.5"/></g></svg>