<svg version="1.1" id="Слой_1" xmlns="http://www.w3.org/2000/svg" x="0" y="0" viewBox="0 0 19.6 19.6" xml:space="preserve"><style>.categories-st0,.categories-st1{fill:none}.categories-st1{stroke:currentColor;stroke-width:2}</style><g id="images_" transform="translate(-360 -226)"><g id="Прямоугольник_скругл._углы_967_копия_2"><path class="categories-st0" d="M2 0h4c1.1 0 2 .9 2 2v4c0 1.1-.9 2-2 2H2C.9 8 0 7.1 0 6V2C0 .9.9 0 2 0z" transform="translate(360 226)"/><path class="categories-st1" d="M2 1h4c.6 0 1 .4 1 1v4c0 .6-.4 1-1 1H2c-.6 0-1-.4-1-1V2c0-.6.4-1 1-1z" transform="translate(360 226)"/></g><g id="Прямоугольник_скругл._углы_967_копия_2-2"><path class="categories-st0" d="M2 0h4c1.1 0 2 .9 2 2v4c0 1.1-.9 2-2 2H2C.9 8 0 7.1 0 6V2C0 .9.9 0 2 0z" transform="translate(360 236)"/><path class="categories-st1" d="M2 1h4c.6 0 1 .4 1 1v4c0 .6-.4 1-1 1H2c-.6 0-1-.4-1-1V2c0-.6.4-1 1-1z" transform="translate(360 236)"/></g><g id="Прямоугольник_скругл._углы_967_копия_2-3"><path class="categories-st0" d="M2 0h4c1.1 0 2 .9 2 2v4c0 1.1-.9 2-2 2H2C.9 8 0 7.1 0 6V2C0 .9.9 0 2 0z" transform="translate(370 226)"/><path class="categories-st1" d="M2 1h4c.6 0 1 .4 1 1v4c0 .6-.4 1-1 1H2c-.6 0-1-.4-1-1V2c0-.6.4-1 1-1z" transform="translate(370 226)"/></g><g id="Прямоугольник_скругл._углы_967_копия_2-4"><path class="categories-st0" d="M2 0h3.8c1.1 0 2 .9 2 2v3.8c0 1.1-.9 2-2 2H2c-1.1 0-2-.9-2-2V2C0 .9.9 0 2 0z" transform="rotate(45 -96.09 568.868)"/><path class="categories-st1" d="M2 1h3.8c.6 0 1 .4 1 1v3.8c0 .6-.4 1-1 1H2c-.6 0-1-.4-1-1V2c0-.6.4-1 1-1z" transform="rotate(45 -96.09 568.868)"/></g></g></svg>