<?xml version="1.0" encoding="utf-8"?>
<!-- Generator: Adobe Illustrator 22.0.1, SVG Export Plug-In . SVG Version: 6.00 Build 0)  -->
<svg version="1.1" id="Layer_1" xmlns="http://www.w3.org/2000/svg" xmlns:xlink="http://www.w3.org/1999/xlink" x="0px" y="0px"
	 viewBox="0 0 22.5 22.5" style="enable-background:new 0 0 22.5 22.5;" xml:space="preserve">
<style type="text/css">
	.st0{fill:none;stroke:#212225;stroke-width:1.5;stroke-linecap:round;stroke-linejoin:round;}
</style>
<g id="Vote" transform="translate(-393.05 -1167.55)">
	<path id="Shape_1754" class="st0" d="M400.7,1178.1l2.4,3.4c0.2,0.3,0.5,0.4,0.8,0.5c0.3,0,0.7-0.1,0.9-0.4l7.7-9.8"/>
	<path id="Shape_1764" class="st0" d="M414.8,1181.5v4.8c0,1.6-1.3,3-2.9,3c0,0-0.1,0-0.1,0h-15c-1.6,0-3-1.3-3-2.9c0,0,0-0.1,0-0.1
		v-15c0-1.6,1.3-3,2.9-3c0,0,0.1,0,0.1,0h7.8"/>
</g>
</svg>
