<?xml version="1.0" encoding="utf-8"?>
<!-- Generator: Adobe Illustrator 25.2.1, SVG Export Plug-In . SVG Version: 6.00 Build 0)  -->
<svg version="1.1" id="Слой_1" xmlns="http://www.w3.org/2000/svg" xmlns:xlink="http://www.w3.org/1999/xlink" x="0px" y="0px"
	 viewBox="0 0 10.8 6.3" style="enable-background:new 0 0 10.8 6.3;" xml:space="preserve">
<g id="arrow" transform="translate(-479.586 -142.586)">
	<path d="M485,148.9c-0.3,0-0.7-0.1-0.9-0.4l-3.8-3.8c-0.4-0.4-0.4-1,0-1.4s1-0.4,1.4,0l3.3,3.3l3.3-3.3c0.4-0.4,1-0.4,1.4,0
		s0.4,1,0,1.4l-3.8,3.8C485.7,148.7,485.3,148.9,485,148.9C485,148.9,485,148.9,485,148.9z M484.5,147.1
		C484.5,147.1,484.5,147.1,484.5,147.1L484.5,147.1z M485.5,147.1L485.5,147.1C485.5,147.1,485.5,147.1,485.5,147.1z"/>
</g>
</svg>
