<svg xmlns="http://www.w3.org/2000/svg" viewBox="0 0 15.5 15.9"><path d="M12.4 1.7c.2.2.2.5.3.8.1 0-.1 0 0 0 0 0 .2-.3.3-.4.1-.3 0-.8-.3-.9-.4-.2-.8 0-1.1.3.2-.1.5-.1.8.2zM7.5 4a.9.9 0 01.1.5l2.8-2.9c.1-.1 0 0 0 0 .5-.4.5-1 .2-1.3S9.8 0 9.5.3L6.8 3.1c.4.3.6.5.7.9z"/><path d="M.9 10.8c0-1.5.6-3 1.6-4.1l3.1-3.2c.2-.3.2-.8.1-1s-.2-.3-.4-.5c-.1-.1-.3-.1-.4 0L1.5 5.5C0 7-.3 9.2.3 10.9c.1.3.6.2.6-.1zm2-3.7l3.4-3.5s-.1 0 0 0c.1-.1.4 0 .5.1s.2.2.3.5.2.9-.3 1.4l-2 2.1c-.1.1-.1.2 0 .3H5c1.6-1.2 5.8-6 5.8-6 .3-.3.9-.4 1.2 0 .3.3.3.9 0 1.2L7.9 7.5c-.1.1-.1.2 0 .3s.2.1.3 0l4.9-5c.3-.3.9-.3 1.2 0s.4.9 0 1.2L9.4 9c-.1.1-.1.2 0 .3s.2.1.3 0L13.9 5c.3-.3.8-.4 1.2-.1s.4.9.1 1.3L11 10.5c-.1.1-.1.2 0 .3s.2.1.3 0l2.5-2.6c.3-.3.9-.4 1.2 0 .3.3.4.9 0 1.2l-4.7 4.9c-2 2-5.3 2.1-7.3.1-2.1-2-2.1-5.2-.1-7.3"/></svg>