<svg xmlns="http://www.w3.org/2000/svg" viewBox="0 0 22.3 22.3"><g id="Featured_Properties" transform="translate(-1315.349 -711.358)"><path id="Featured_Properties-2" d="M1336.6 721.4c-.1-.3-.3-.5-.7-.5-1.2 0-2.3-1-2.3-2.2 0-.6.3-1.3.7-1.7.2-.2.2-.5.1-.8-.5-.6-1-1.1-1.6-1.6-.2-.2-.6-.2-.8.1-.7.7-1.6.9-2.5.6-.9-.4-1.4-1.3-1.4-2.2 0-.3-.2-.6-.5-.6-.8-.1-1.5-.1-2.3 0-.3 0-.5.3-.5.6 0 .9-.5 1.8-1.4 2.2-.9.3-1.9.1-2.5-.6-.2-.2-.5-.2-.8-.1-.6.5-1.2 1-1.6 1.6-.2.2-.2.6.1.8.7.6.9 1.7.6 2.5-.4.9-1.3 1.4-2.2 1.4-.3 0-.6.2-.6.5-.1.8-.1 1.5 0 2.3.1.3.4.5.7.5.9 0 1.7.5 2.1 1.4.4.9.1 1.9-.6 2.5-.2.2-.2.5-.1.8.5.6 1 1.1 1.6 1.6.2.2.6.2.8-.1.7-.7 1.6-.9 2.5-.6.9.4 1.4 1.3 1.4 2.2 0 .3.2.6.5.6.8.1 1.5.1 2.3 0 .3 0 .5-.3.5-.6 0-.9.5-1.8 1.4-2.2.9-.3 1.9-.1 2.5.6.2.2.5.2.8.1.6-.5 1.2-1 1.6-1.6.2-.2.2-.6-.1-.8-.7-.6-.9-1.7-.6-2.5.4-.8 1.2-1.4 2.1-1.4h.1c.3 0 .6-.2.6-.5.2-.8.2-1.6.1-2.3zm-10.1 6c-2.7 0-4.9-2.2-4.9-4.9s2.2-4.9 4.9-4.9 4.9 2.2 4.9 4.9-2.2 4.9-4.9 4.9z" fill="none" stroke="currentColor" stroke-width="2"/></g></svg>