<svg xmlns="http://www.w3.org/2000/svg" viewBox="0 0 28 28"><path d="M27.7 12.5c0-.2-.2-.4-.3-.5-.2-.1-.4-.2-.6-.2-.6 0-1.2-.2-1.7-.5s-.9-.8-1.1-1.4-.3-1.2-.1-1.8c.1-.6.5-1.1.9-1.5.1-.1.2-.3.2-.5s0-.4-.2-.5c-.6-.8-1.3-1.5-2.1-2.2-.1-.1-.3-.2-.5-.2s-.4.1-.5.2c-.4.4-1 .8-1.6.9s-1.2.1-1.8-.1c-.5-.2-1-.6-1.3-1.1s-.5-1.1-.4-1.8c0-.2-.1-.4-.2-.5s-.3-.2-.5-.3c-1-.1-2-.1-3 0a.55.55 0 00-.5.3c-.1.1-.2.3-.2.5 0 .6-.1 1.2-.5 1.7-.3.5-.8.9-1.4 1.2-.6.2-1.2.3-1.8.1S7.4 3.9 7 3.4c-.2-.1-.3-.2-.5-.2s-.4 0-.5.2c-.9.6-1.6 1.3-2.3 2.1-.1.2-.1.3-.1.5s.1.4.2.5c.5.4.8 1 .9 1.6s.1 1.2-.2 1.8-.7 1-1.2 1.4c-.5.3-1.1.5-1.7.5-.2 0-.4 0-.5.2-.1 0-.2.2-.2.4-.1 1-.1 2 0 3.1.1.2.2.4.3.5.2.1.4.2.6.2.6 0 1.2.2 1.7.5.4.3.8.7 1 1.3s.3 1.2.1 1.8c-.1.6-.4 1.1-.9 1.6-.1.1-.2.3-.2.5s0 .4.2.5c.6.8 1.3 1.5 2.1 2.2.1.1.3.2.5.2s.4-.1.5-.2c.4-.4 1-.8 1.6-.9s1.2-.1 1.8.1 1.1.7 1.4 1.2.5 1.1.4 1.8c0 .2.1.4.2.5s.3.2.5.3c1 .1 2 .1 3 0a.55.55 0 00.5-.3c.1-.2.2-.3.2-.5 0-.6.1-1.2.5-1.7.3-.5.8-.9 1.4-1.2.6-.2 1.2-.3 1.8-.1s1.1.4 1.6.9c.1.1.3.2.5.2s.4 0 .5-.2c.8-.6 1.5-1.4 2.2-2.2.1-.1.2-.3.2-.5s-.1-.4-.2-.5c-.5-.4-.8-1-.9-1.6s-.1-1.2.2-1.8c.2-.5.6-1 1.1-1.3s1.1-.5 1.7-.5h.2c.2 0 .4-.1.5-.2s.2-.3.3-.5c-.2-1.1-.2-2.1-.3-3.1zm-13.4 7.9c-1.3 0-2.5-.4-3.6-1.1s-1.9-1.7-2.4-2.9-.6-2.5-.4-3.7c.3-1.3.9-2.4 1.8-3.3s2.1-1.5 3.3-1.8c1.3-.2 2.6-.1 3.7.4 1.2.5 2.2 1.3 2.9 2.4s1.1 2.3 1.1 3.6c0 1.7-.7 3.4-1.9 4.6-1.1 1.1-2.8 1.8-4.5 1.8z"/></svg>