<svg xmlns="http://www.w3.org/2000/svg" viewBox="0 0 22.404 24.184"><g id="Collectibles" transform="translate(-392.923 -1108.166)"><g id="Многоугольник_1790" data-name="Многоугольник 1790" fill="none" stroke-linejoin="round"><path d="M934.218 750.19l-9.2-5.046v-10.092l9.2-5.046 9.2 5.046v10.092z" transform="translate(-530.093 380.16)"/><path d="M934.218 750.19l9.202-5.046v-10.092l-9.202-5.046-9.202 5.046v10.092l9.202 5.046m0 2a2 2 0 01-.961-.246l-9.202-5.046a2 2 0 01-1.039-1.754v-10.092a2 2 0 011.039-1.753l9.202-5.046a2 2 0 011.923 0l9.202 5.046a2 2 0 011.038 1.753v10.092a2 2 0 01-1.038 1.754l-9.202 5.046c-.3.164-.63.246-.962.246z" fill="currentColor" transform="translate(-530.093 380.16)"/></g><path id="Многоугольник_1790_копия" data-name="Многоугольник 1790 копия" d="M401.827 1119.426l-7.3-4.231" fill="none" stroke="currentColor" stroke-width="2"/><g id="Эллипс_76" data-name="Эллипс 76" transform="translate(401 1117)" fill="#fff" stroke="currentColor" stroke-width="2"><circle cx="3" cy="3" r="3" stroke="none"/><circle cx="3" cy="3" r="2" fill="none"/></g><path id="Многоугольник_1790_копия-2" data-name="Многоугольник 1790 копия" d="M406.525 1119.426l7.3-4.23" fill="none" stroke="currentColor" stroke-width="2"/></g></svg>