<svg xmlns="http://www.w3.org/2000/svg" viewBox="0 0 32.107 22.125"><g id="Games" transform="translate(-563.651 -608.25)"><g id="Group_76" data-name="Group 76" transform="translate(564.728 609.25)"><g id="Regular_76" data-name="Regular 76" fill="none" stroke="currentColor" stroke-linecap="round" stroke-linejoin="round" stroke-width="2"><path id="Shape_680" data-name="Shape 680" d="M570 609.25h1.995a5.985 5.985 0 015.985 5.985v1.995" transform="translate(-562.988 -609.25)"/><path id="Shape_681" data-name="Shape 681" d="M588.7 615.25h-17.958a5.984 5.984 0 104.431 9.974h9.091a5.975 5.975 0 104.431-9.974z" transform="translate(-564.728 -607.27)"/><path id="Shape_682" data-name="Shape 682" d="M569.25 618.25v3.99" transform="translate(-563.236 -606.281)"/><path id="Shape_683" data-name="Shape 683" d="M567.75 619.75h3.99" transform="translate(-563.731 -605.786)"/><path id="Shape_684" data-name="Shape 684" d="M581.25 620.125a.5.5 0 01.5.5" transform="translate(-559.276 -605.662)"/><path id="Shape_685" data-name="Shape 685" d="M580.875 620.624a.5.5 0 01.5-.5" transform="translate(-559.4 -605.662)"/><path id="Shape_686" data-name="Shape 686" d="M581.374 621a.5.5 0 01-.5-.5" transform="translate(-559.4 -605.538)"/><path id="Shape_687" data-name="Shape 687" d="M581.749 620.5a.5.5 0 01-.5.5" transform="translate(-559.276 -605.538)"/><path id="Shape_688" data-name="Shape 688" d="M583.5 617.875a.5.5 0 01.5.5" transform="translate(-558.534 -606.404)"/><path id="Shape_689" data-name="Shape 689" d="M583.125 618.374a.5.5 0 01.5-.5" transform="translate(-558.658 -606.404)"/><path id="Shape_690" data-name="Shape 690" d="M583.624 618.749a.5.5 0 01-.5-.5" transform="translate(-558.658 -606.281)"/><path id="Shape_691" data-name="Shape 691" d="M584 618.25a.5.5 0 01-.5.5" transform="translate(-558.534 -606.281)"/></g></g></g></svg>