<?xml version="1.0" encoding="utf-8"?>
<svg version="1.1" xmlns="http://www.w3.org/2000/svg" xmlns:xlink="http://www.w3.org/1999/xlink" x="0px" y="0px"
	 viewBox="0 0 22 22" style="enable-background:new 0 0 22 22;" xml:space="preserve">
<g id="Interface-Essential_Help_question-help-message" transform="translate(-590.755 -2106.75)">
	<g id="Group_203" transform="translate(591.755 2107.75)">
		<g id="question-help-message">
			<path id="Shape_911" fill="none" stroke="currentColor" stroke-width="2" stroke-linecap="round" stroke-linejoin="round" d="M18.7,16H9.3L4,20v-4H1.3C0.6,16,0,15.4,0,14.7l0,0V1.3C0,0.6,0.6,0,1.3,0l0,0h17.3
				C19.4,0,20,0.6,20,1.3v13.3C20,15.4,19.4,16,18.7,16z"/>
			<path id="Shape_912" fill="none" stroke="currentColor" stroke-width="2" stroke-linecap="round" stroke-linejoin="round" d="M7.3,5.3c0-1.5,1.2-2.7,2.7-2.7s2.7,1.2,2.7,2.7c0,1.1-0.7,2.1-1.8,2.5C10.4,8,10,8.5,10,9.1
				v0.2"/>
			<path id="Shape_913" fill="none" stroke="currentColor" stroke-width="2" stroke-linecap="round" stroke-linejoin="round" d="M10,12c-0.2,0-0.3,0.1-0.3,0.3s0.1,0.3,0.3,0.3s0.3-0.1,0.3-0.3S10.2,12,10,12L10,12L10,12"
				/>
		</g>
	</g>
</g>
</svg>
