<svg xmlns="http://www.w3.org/2000/svg" viewBox="0 0 22 22"><g id="Interface-Essential_Help_question-help-message" transform="translate(-590.755 -2106.75)"><g id="Group_203" transform="translate(591.755 2107.75)"><g id="question-help-message" fill="none" stroke="currentColor" stroke-width="2" stroke-linecap="round" stroke-linejoin="round"><path id="Shape_911" d="M18.7 16H9.3L4 20v-4H1.3C.6 16 0 15.4 0 14.7h0V1.3C0 .6.6 0 1.3 0h17.3c.8 0 1.4.6 1.4 1.3v13.3c0 .8-.6 1.4-1.3 1.4z"/><path id="Shape_912" d="M7.3 5.3c0-1.5 1.2-2.7 2.7-2.7s2.7 1.2 2.7 2.7c0 1.1-.7 2.1-1.8 2.5-.5.2-.9.7-.9 1.3v.2"/><path id="Shape_913" d="M10 12c-.2 0-.3.1-.3.3s.1.3.3.3.3-.1.3-.3-.1-.3-.3-.3h0"/></g></g></g></svg>