<?xml version="1.0" encoding="utf-8"?>
<!-- Generator: Adobe Illustrator 25.2.3, SVG Export Plug-In . SVG Version: 6.00 Build 0)  -->
<svg version="1.1" id="Слой_1" xmlns="http://www.w3.org/2000/svg" xmlns:xlink="http://www.w3.org/1999/xlink" x="0px" y="0px"
     viewBox="0 0 20 20" style="enable-background:new 0 0 20 20;" xml:space="preserve">
<style type="text/css">
    .copy-st0{fill:none;stroke:currentColor;stroke-width:2;stroke-linecap:round;stroke-linejoin:round;}
</style>
<g id="Copy" transform="translate(154.346 295.25)">
    <path id="Контур_326" class="copy-st0" d="M-140.9-277.5c0,0.7-0.6,1.2-1.2,1.2h0.1h-8.9c-0.7,0-1.2-0.6-1.2-1.2v-11.2
        c0-0.7,0.6-1.2,1.2-1.2l0,0h6.3c0.3,0,0.6,0.1,0.9,0.3l2.4,2.4c0.3,0.3,0.3,0.6,0.3,0.9L-140.9-277.5L-140.9-277.5z"/>
    <path id="Контур_327" class="copy-st0" d="M-147.7-290v-3.1c0-0.7,0.6-1.2,1.2-1.2l0,0h6.3c0.3,0,0.6,0.1,0.9,0.3l2.4,2.4
        c0.3,0.3,0.3,0.6,0.3,0.9v8.9c0,0.7-0.6,1.2-1.2,1.2l0,0h-2.5"/>
</g>
</svg>
