<svg xmlns="http://www.w3.org/2000/svg" viewBox="0 0 12.166 14.708">
  <g id="common-file-double-2" transform="translate(-2 0.25)">
    <path id="Контур_326" data-name="Контур 326" d="M10.625,15.222a.847.847,0,0,1-.847.847H3.847A.847.847,0,0,1,3,15.222V7.6a.847.847,0,0,1,.847-.847H8.156a.847.847,0,0,1,.6.248L10.377,8.62a.847.847,0,0,1,.248.6Z" transform="translate(0 -2.611)" fill="none" stroke="currentColor" stroke-linecap="round" stroke-linejoin="round" stroke-width="2"/>
    <path id="Контур_327" data-name="Контур 327" d="M7.5,4.139V1.6A.847.847,0,0,1,8.347.75h4.309a.847.847,0,0,1,.6.248L14.877,2.62a.847.847,0,0,1,.248.6v6a.847.847,0,0,1-.847.847H12.583" transform="translate(-1.958)" fill="none" stroke="currentColor" stroke-linecap="round" stroke-linejoin="round" stroke-width="2"/>
  </g>
</svg>
