<svg version="1.1" xmlns="http://www.w3.org/2000/svg" x="0" y="0" viewBox="0 0 20 20" xml:space="preserve"><style>.copy-st0{fill:none;stroke:currentColor;stroke-width:2;stroke-linecap:round;stroke-linejoin:round}</style><g id="Copy" transform="translate(154.346 295.25)"><path id="Контур_326" class="copy-st0" d="M-140.9-277.5c0 .7-.6 1.2-1.2 1.2h.1-8.9c-.7 0-1.2-.6-1.2-1.2v-11.2c0-.7.6-1.2 1.2-1.2h6.3c.3 0 .6.1.9.3l2.4 2.4c.3.3.3.6.3.9l.1 8.8z"/><path id="Контур_327" class="copy-st0" d="M-147.7-290v-3.1c0-.7.6-1.2 1.2-1.2h6.3c.3 0 .6.1.9.3l2.4 2.4c.3.3.3.6.3.9v8.9c0 .7-.6 1.2-1.2 1.2h-2.5"/></g></svg>
