<svg xmlns="http://www.w3.org/2000/svg" viewBox="0 0 12.166 14.708"><g id="common-file-double-2" transform="translate(-2 .25)" fill="none" stroke="currentColor" stroke-linecap="round" stroke-linejoin="round" stroke-width="2"><path id="Контур_326" data-name="Контур 326" d="M10.625 15.222a.847.847 0 01-.847.847H3.847A.847.847 0 013 15.222V7.6a.847.847 0 01.847-.847h4.309a.847.847 0 01.6.248l1.621 1.619a.847.847 0 01.248.6z" transform="translate(0 -2.611)"/><path id="Контур_327" data-name="Контур 327" d="M7.5 4.139V1.6a.847.847 0 01.847-.85h4.309a.847.847 0 01.6.248l1.621 1.622a.847.847 0 01.248.6v6a.847.847 0 01-.847.847h-1.695" transform="translate(-1.958)"/></g></svg>