<?xml version="1.0" encoding="utf-8"?>
<!-- Generator: Adobe Illustrator 25.0.0, SVG Export Plug-In . SVG Version: 6.00 Build 0)  -->
<svg version="1.1" id="Слой_1" xmlns="http://www.w3.org/2000/svg" xmlns:xlink="http://www.w3.org/1999/xlink" x="0px" y="0px"
	 viewBox="0 0 20.8 25.2" style="enable-background:new 0 0 20.8 25.2;" xml:space="preserve">
<g id="Delegate_Registration" transform="translate(0.4 1.366)" fill="none" stroke="currentColor" stroke-width="2">
	<line id="Фигура_525" class="st0" x1="18.6" y1="0" x2="5.6" y2="22.5"/>
	<path id="Oval_511" class="st1" d="M6,7.4c1.9,0,3.4-1.5,3.4-3.3S7.9,0.7,6,0.7c-1.9,0-3.4,1.5-3.4,3.4S4.1,7.4,6,7.4z"/>
	<path id="Shape_1393" class="st1" d="M8.5,11c-0.7-0.4-1.6-0.6-2.4-0.6c-3,0-5.5,2.4-5.5,5.5c0,0,0,0,0,0l0,0"/>
	<path id="Oval_511-2" class="st1" d="M16.1,21.2c1.8,0,3.3-1.5,3.3-3.3c0-1.8-1.5-3.3-3.3-3.3c-1.8,0-3.3,1.5-3.3,3.3l0,0
		C12.8,19.7,14.3,21.2,16.1,21.2z"/>
</g>
</svg>
