<svg xmlns="http://www.w3.org/2000/svg" viewBox="0 0 20 20"><g fill="none" stroke="currentColor" stroke-width="2" stroke-linecap="round"><path d="M16.861 1l-10.3 18"/><path stroke-linejoin="round" d="M6.861 6.9c1.4 0 2.7-1.1 2.7-2.7 0-1.5-1.2-2.7-2.7-2.7s-2.7 1.2-2.7 2.7h0c0 1.5 1.1 2.7 2.7 2.7zm1.9 2.9c-.6-.3-1.2-.5-1.9-.5-2.5 0-4.4 2-4.4 4.4"/></g><path fill="none" stroke="currentColor" stroke-width="2" stroke-linecap="round" stroke-linejoin="round" d="M15.1 18.4c1.4 0 2.7-1.1 2.7-2.7 0-1.5-1.2-2.7-2.7-2.7s-2.7 1.2-2.7 2.7h0c0 1.5 1.1 2.7 2.7 2.7z"/></svg>