<svg version="1.1" id="Слой_1" xmlns="http://www.w3.org/2000/svg" x="0" y="0" viewBox="0 0 20.8 25.2" xml:space="preserve"><g id="Delegate_Registration" transform="translate(.4 1.366)" fill="none" stroke="currentColor" stroke-width="2"><path id="Фигура_525"  d="M18.6 0l-13 22.5"/><path id="Oval_511"  d="M6 7.4c1.9 0 3.4-1.5 3.4-3.3S7.9.7 6 .7 2.6 2.2 2.6 4.1 4.1 7.4 6 7.4z"/><path id="Shape_1393"  d="M8.5 11c-.7-.4-1.6-.6-2.4-.6-3 0-5.5 2.4-5.5 5.5 0 0 0 0 0 0h0"/><path id="Oval_511-2"  d="M16.1 21.2c1.8 0 3.3-1.5 3.3-3.3 0-1.8-1.5-3.3-3.3-3.3-1.8 0-3.3 1.5-3.3 3.3h0c0 1.8 1.5 3.3 3.3 3.3z"/></g></svg>
