<svg xmlns="http://www.w3.org/2000/svg" xmlns:xlink="http://www.w3.org/1999/xlink" viewBox="0 0 31 39"><defs><path id="delegate_svg__a" d="M.4.3h30v37.8H.4z"/></defs><clipPath id="delegate_svg__b"><use xlink:href="#delegate_svg__a"/></clipPath><g clip-path="url(#delegate_svg__b)"><path d="M13.3 17.7l-1.8 3.2c-.3.4-.8.6-1.4.3-.1 0-.1-.1-.3-.3l-2.4-3.2c-1.2.6-2.2 1.9-3.2 4.2L2 27.3c-.1.4-.6.6-.8.6-.1 0-.3 0-.4-.1-.6-.3-.7-.8-.6-1.2l2.2-5.4c1-2.5 2.8-5.7 6.7-5.7H12c.7 0 1.5.1 2.1.6-.1.4-.8 1.6-.8 1.6zM10.3 5C8.6 5 7.2 6.4 7.2 8.1c0 1.7 1.4 3.1 3.1 3.1s3.1-1.4 3.1-3.1C13.4 6.4 12 5 10.3 5zM5.2 8.1C5.2 5.3 7.5 3 10.3 3s5.1 2.3 5.1 5.1-2.3 5.1-5.1 5.1-5.1-2.3-5.1-5.1z"/><path d="M28.5 2.2l-19.6 34" fill="none" stroke="currentColor" stroke-width="2" stroke-linecap="round"/><path d="M21.9 24.7c-1.4 0-2.5 1.1-2.5 2.5s1.1 2.5 2.5 2.5 2.5-1.1 2.5-2.5-1.1-2.5-2.5-2.5zm-4.4 2.5c0-2.5 2-4.5 4.5-4.5s4.5 2 4.5 4.5-2 4.5-4.5 4.5c-2.5-.1-4.5-2.1-4.5-4.5z"/></g></svg>