<?xml version="1.0" encoding="utf-8"?>
<!-- Generator: Adobe Illustrator 25.0.1, SVG Export Plug-In . SVG Version: 6.00 Build 0)  -->
<svg version="1.1" id="Слой_1" xmlns="http://www.w3.org/2000/svg" xmlns:xlink="http://www.w3.org/1999/xlink" x="0px" y="0px"
	 viewBox="0 0 24 24" style="enable-background:new 0 0 24 24;" xml:space="preserve">
<g id="_1" transform="translate(-0.001)">
	<path id="Контур_536" d="M11.3,24c-0.4,0-0.8-0.3-0.8-0.7c0-0.1,0-0.1,0-0.2l0.8-3.8c0-0.1,0.1-0.3,0.2-0.4l7.6-7.6
		c1.1-1.1,2.9-1.1,4,0c1.1,1.1,1.1,2.9,0,4l0,0L15.5,23c-0.1,0.1-0.2,0.2-0.4,0.2L11.4,24C11.3,24,11.3,24,11.3,24z M12.2,22.3
		l2.4-0.5l7.5-7.5c0.5-0.6,0.5-1.4,0-1.9l0,0c-0.3-0.2-0.6-0.4-0.9-0.4l0,0c-0.4,0-0.7,0.1-1,0.4l-7.5,7.5L12.2,22.3z"/>
	<path id="Контур_537" d="M2.3,21C1,21,0,20,0,18.8V2.2C0,1,1,0,2.3,0h10.6c0.6,0,1.2,0.2,1.6,0.7l2.9,2.9
		C17.8,4,18,4.5,18,5.1v3.1C18,8.7,17.7,9,17.2,9s-0.8-0.3-0.8-0.8V5.1c0-0.2-0.1-0.4-0.2-0.5l-2.9-2.9c-0.1-0.1-0.3-0.2-0.5-0.2
		H2.3c-0.4,0-0.8,0.3-0.8,0.8v16.5c0,0.4,0.3,0.8,0.8,0.8h6c0.4,0,0.8,0.3,0.8,0.8S8.7,21,8.3,21H2.3z"/>
</g>
</svg>
