<svg version="1.1" id="document-key_svg__Layer_1" xmlns="http://www.w3.org/2000/svg" x="0" y="0" viewBox="0 0 29 40" xml:space="preserve"><style>.document-key_svg__st1{fill:none;stroke:currentColor;stroke-width:2}</style><g id="document-key_svg__icon" transform="translate(-901 -887)"><path id="document-key_svg__icon-2" d="M904 903v21.1c0 1.6 1.4 2.9 3 2.9h14.9c.5 0 .9-.2 1.3-.5l6.3-6.2c.3-.3.5-.8.5-1.2V890c0-1.6-1.4-3-3-2.9h-11v2h11c.5 0 1 .4 1 .9v28.1h-6c-.6 0-1 .4-1 1v6h-14c-.5 0-1-.5-1-1v-21h-2z" fill="currentColor"/><path id="document-key_svg__Forma_1" class="document-key_svg__st1" d="M908 896l5.3 5.4-2.2 2.3 2.2 2.2 2.2-2.3 1.1 1.1 2.2-2.3-6.8-6.4"/><g id="document-key_svg__Эллипс_2046_копия_3" transform="translate(901 888)"><circle cx="5" cy="5" r="5" fill="currentColor"/><circle class="document-key_svg__st1" cx="5" cy="5" r="4"/></g></g></svg>