<?xml version="1.0" encoding="utf-8"?>
<!-- Generator: Adobe Illustrator 25.0.1, SVG Export Plug-In . SVG Version: 6.00 Build 0)  -->
<svg version="1.1" id="_2" xmlns="http://www.w3.org/2000/svg" xmlns:xlink="http://www.w3.org/1999/xlink" x="0px" y="0px"
	 viewBox="0 0 24 24" style="enable-background:new 0 0 24 24;" xml:space="preserve">
<style type="text/css">
	.st0{fill:none;stroke:#000000;stroke-width:1.5;stroke-linecap:round;stroke-linejoin:round;}
</style>
<path id="Контур_560" class="st0" d="M17.2,20.2c0.2,0,0.4,0.2,0.4,0.4S17.5,21,17.2,21s-0.4-0.2-0.4-0.4S17,20.2,17.2,20.2"
	/>
<line id="Линия_212" class="st0" x1="17.2" y1="18" x2="17.2" y2="15"/>
<path id="Контур_561" class="st0" d="M23.1,20.7c0.4,0.9,0.1,1.9-0.8,2.4c-0.2,0.1-0.5,0.2-0.8,0.2H13c-1,0-1.8-0.8-1.8-1.8
	c0-0.3,0.1-0.5,0.2-0.8l4.2-8.5c0.4-0.9,1.5-1.2,2.4-0.8c0.3,0.2,0.6,0.5,0.8,0.8L23.1,20.7z"/>
<path id="Контур_562" class="st0" d="M8.2,20.2h-6c-0.8,0-1.5-0.7-1.5-1.5V2.2c0-0.8,0.7-1.5,1.5-1.5h10.6
	c0.4,0,0.8,0.2,1.1,0.4l2.9,2.9c0.3,0.3,0.4,0.7,0.4,1.1v3.1"/>
</svg>
