<svg version="1.1" id="_2" xmlns="http://www.w3.org/2000/svg" x="0" y="0" viewBox="0 0 24 24" xml:space="preserve"><style>.document-warning-2-st0{fill:none;stroke:currentColor;stroke-width:2;stroke-linecap:round;stroke-linejoin:round}</style><path id="Контур_560" class="document-warning-2-st0" d="M17.2 20.2c.2 0 .4.2.4.4s-.1.4-.4.4-.4-.2-.4-.4.2-.4.4-.4"/><path id="Линия_212" class="document-warning-2-st0" d="M17.2 18v-3"/><path id="Контур_561" class="document-warning-2-st0" d="M23.1 20.7c.4.9.1 1.9-.8 2.4-.2.1-.5.2-.8.2H13c-1 0-1.8-.8-1.8-1.8 0-.3.1-.5.2-.8l4.2-8.5c.4-.9 1.5-1.2 2.4-.8.3.2.6.5.8.8l4.3 8.5z"/><path id="Контур_562" class="document-warning-2-st0" d="M8.2 20.2h-6c-.8 0-1.5-.7-1.5-1.5V2.2c0-.8.7-1.5 1.5-1.5h10.6c.4 0 .8.2 1.1.4L16.8 4c.3.3.4.7.4 1.1v3.1"/></svg>