<svg xmlns="http://www.w3.org/2000/svg" viewBox="0 0 41 36"><path fill="#DDF5F4" d="M21.7 12h8.4l-.6-1.5L19.8.9h-1.3v9.6l1.3 1.1 1.9.4z"/><path fill="none" stroke="#04958E" stroke-width="2" stroke-linecap="round" stroke-linejoin="round" d="M6.8 34.3H3.1c-.6 0-1.2-.2-1.6-.7-.4-.4-.7-1-.7-1.6V3.1c0-.6.2-1.2.7-1.6s1-.7 1.6-.7h15.8c.3 0 .6.1.9.2.3.1.5.3.7.5l8.7 8.7c.2.2.4.5.5.7.1.3.2.6.2.9v6.9"/><path fill="none" stroke="#04958E" stroke-width="2" stroke-linecap="round" stroke-linejoin="round" d="M29.9 12H21c-.6 0-1.2-.2-1.6-.7-.4-.4-.7-1-.7-1.6V.9"/><path fill="none" stroke="#212225" stroke-width="2" stroke-linecap="round" stroke-linejoin="round" d="M15.4 24.4V33c0 .3-.1.6-.2.8-.1.3-.3.5-.5.7-.2.2-.4.4-.7.5-.3.1-.6.2-.8.2H11M24 24.4h-2.2c-.3 0-.6.1-.8.2-.3.1-.5.3-.7.5-.2.2-.4.4-.5.7-.1.3-.2.5-.2.8 0 3.2 4.4 3.2 4.4 6.4 0 .3-.1.6-.2.8-.1.3-.3.5-.5.7-.2.2-.4.4-.7.5-.3.1-.6.2-.8.2h-2.1M30.2 24.4c-.6 0-1.1.2-1.5.6-.4.4-.6 1-.6 1.5V33c0 .6.2 1.1.6 1.5.4.4 1 .6 1.5.6.6 0 1.1-.2 1.5-.6.4-.4.6-1 .6-1.5v-6.5c0-.6-.2-1.1-.6-1.5-.4-.4-1-.6-1.5-.6h0zM35.8 35.1V24.4l4.3 10.8V24.4"/></svg>