<svg version="1.1" id="Слой_1" xmlns="http://www.w3.org/2000/svg" x="0" y="0" viewBox="0 0 24 24" xml:space="preserve"><g id="_1" transform="translate(-.001)"><path id="Контур_536" d="M11.3 24c-.4 0-.8-.3-.8-.7v-.2l.8-3.8c0-.1.1-.3.2-.4l7.6-7.6c1.1-1.1 2.9-1.1 4 0s1.1 2.9 0 4L15.5 23c-.1.1-.2.2-.4.2l-3.7.8h-.1zm.9-1.7l2.4-.5 7.5-7.5c.5-.6.5-1.4 0-1.9-.3-.2-.6-.4-.9-.4-.4 0-.7.1-1 .4l-7.5 7.5-.5 2.4z"/><path id="Контур_537" d="M2.3 21C1 21 0 20 0 18.8V2.2C0 1 1 0 2.3 0h10.6c.6 0 1.2.2 1.6.7l2.9 2.9c.4.4.6.9.6 1.5v3.1c0 .5-.3.8-.8.8s-.8-.3-.8-.8V5.1c0-.2-.1-.4-.2-.5l-2.9-2.9c-.1-.1-.3-.2-.5-.2H2.3c-.4 0-.8.3-.8.8v16.5c0 .4.3.8.8.8h6c.4 0 .8.3.8.8s-.4.6-.8.6h-6z"/></g></svg>