<svg xmlns="http://www.w3.org/2000/svg" xmlns:xlink="http://www.w3.org/1999/xlink" viewBox="0 0 25 29"><defs><path id="document-success_svg__a" d="M0 .4h25v28.3H0z"/></defs><clipPath id="document-success_svg__b"><use xlink:href="#document-success_svg__a"/></clipPath><g clip-path="url(#document-success_svg__b)" fill="none" stroke="currentColor" stroke-width="2"><path d="M5.4 14.5V3.7c0-1.2 1-2.2 2.2-2.2h12L23.9 8v15.2c0 1.2-1 2.2-2.2 2.2H13"/><path d="M17.4 1.5V8c0 .8-.3 1.1 1.1 1.1h5.1m-16 18.5c3.6 0 6.5-2.9 6.5-6.5s-2.9-6.5-6.5-6.5-6.5 2.9-6.5 6.5 2.9 6.5 6.5 6.5z"/></g><path fill="none" stroke="currentColor" stroke-width="2" stroke-linecap="round" stroke-linejoin="round" stroke-miterlimit="10" d="M5.3 21.2l1.6 1.6 3.1-3.1"/></svg>
