<svg xmlns="http://www.w3.org/2000/svg" viewBox="0 0 25.72 24.14"><g fill="none" stroke="currentColor" stroke-linecap="round" stroke-linejoin="round" stroke-width="2"><path data-name="Shape 78" d="M21.132 18.73l-9.071-6.861-1.326-3.806 4.023.239 9.07 6.861a2.23 2.23 0 01.433 3.123l-.008.011a2.228 2.228 0 01-3.121.433z"/><g data-name="Сгруппировать 800"><path data-name="Shape 79" d="M16.809 5.743V2.581A1.582 1.582 0 0015.228 1H2.581A1.581 1.581 0 001 2.581V18.39a1.581 1.581 0 001.581 1.581h7.373l3.689 3.162v-3.162h1.581a1.582 1.582 0 001.414-.874"/><path data-name="Shape 80" d="M4.162 4.162h4.743"/><path data-name="Shape 81" d="M6.537 4.162v4.743"/><path data-name="Shape 82" d="M4.162 12.858h3.954"/><path data-name="Shape 83" d="M4.162 16.02h6.324"/></g></g></svg>