<svg xmlns="http://www.w3.org/2000/svg" viewBox="0 0 9 17"><path d="M6.5 13.3c-.6.4-1.3.6-2 .6s-1.4-.2-2-.7c-.5-.5-.8-1.2-.7-1.9H0c-.1 1 .3 2 1 2.8.8.7 1.8 1.1 2.8 1.2V17h1.4v-1.7c1 0 2-.4 2.8-1.1.7-.6 1-1.5 1-2.4a3.53 3.53 0 00-.4-1.7c-.3-.5-.7-.9-1.2-1.2-.7-.4-1.5-.8-2.3-1s-1.5-.5-2.1-1c-.5-.4-.7-.9-.7-1.5s.2-1.1.6-1.5c.5-.4 1.1-.6 1.8-.6s1.3.2 1.8.7c.5.6.7 1.3.6 2h1.8c0-.9-.3-2-.9-2.8C7.3 2.5 6.4 2 5.4 2V0H4v2c-1 0-1.9.4-2.5 1.1-.6.6-1 1.5-.9 2.4 0 .9.3 1.7.9 2.4.9.7 1.9 1.3 3 1.5.8.2 1.5.5 2.1 1 .4.3.6.9.6 1.4 0 .6-.2 1.2-.7 1.5z"/></svg>