<svg xmlns="http://www.w3.org/2000/svg" viewBox="0 0 32 32"><path fill="none" stroke="currentColor" stroke-linecap="round" stroke-linejoin="round" stroke-width="2" d="M20.5 12.2v-1.5c0-.8-.7-1.5-1.5-1.5s-1.5.7-1.5 1.5V10c0-.8-.7-1.5-1.5-1.5s-1.5.7-1.5 1.5v.7c0-.8-.7-1.5-1.5-1.5s-1.5.7-1.5 1.5v2.2c-1.7 0-3 1.3-3 3 0 1.5.5 2.9 1.3 4.1l1.1 1.5c.9 1.3 2.2 2 3.7 2h3.8c2.8 0 5.1-2.3 5.1-5.1 0 0 0 0 0 0v-6.2c0-.8-.7-1.5-1.5-1.5s-1.5.7-1.5 1.5h0zm-9 .8v2.2m3-3v-1.5m3 1.5v-1.5M19.1 4.1L16 1l-3.1 3.1m6.2 23.8L16 31l-3.1-3.1m-8.8-15L1 16l3.1 3.1m23.8-6.2L31 16l-3.1 3.1"/></svg>