<svg xmlns="http://www.w3.org/2000/svg" viewBox="0 0 32 32">
    <path fill="none" stroke="currentColor" stroke-linecap="round" stroke-linejoin="round" stroke-width="2" d="M20.5 12.2v-1.5c0-.8-.7-1.5-1.5-1.5s-1.5.7-1.5 1.5V10c0-.8-.7-1.5-1.5-1.5s-1.5.7-1.5 1.5v.7c0-.8-.7-1.5-1.5-1.5s-1.5.7-1.5 1.5v2.2c-1.7 0-3 1.3-3 3 0 1.5.5 2.9 1.3 4.1l1.1 1.5c.9 1.3 2.2 2 3.7 2h3.8c2.8 0 5.1-2.3 5.1-5.1 0 0 0 0 0 0v-6.2c0-.8-.7-1.5-1.5-1.5s-1.5.7-1.5 1.5h0zM11.5 13v2.2M14.5 12.2v-1.5M17.5 12.2v-1.5"/>
    <path fill="none" stroke="currentColor" stroke-linecap="round" stroke-linejoin="round" stroke-width="2" d="M19.1 4.1L16 1l-3.1 3.1M19.1 27.9L16 31l-3.1-3.1M4.1 12.9L1 16l3.1 3.1M27.9 12.9L31 16l-3.1 3.1"/>
</svg>
