<svg xmlns="http://www.w3.org/2000/svg" viewBox="0 0 21 26"><path d="M3 24.1c-.4 0-.9-.2-1.2-.5-.4-.4-.5-.7-.5-1.2 0-.4.2-.9.5-1.2.4-.4.7-.5 1.2-.5h13.8c.4 0 .9.2 1.2.5.4.4.5.7.5 1.2 0 .4-.2.9-.5 1.2-.4.4-.7.5-1.2.5H3zm.4-6.2c-.3-.3-.4-.5-.4-.8-.1-.2 0-.6 0-.8l1.8-5.9c.1-.1.2-.4.4-.6l7.9-8c.5-.5.9-.7 1.4-.9.5-.2 1.2-.4 1.8-.4.6 0 1.2.1 1.8.4.6.2 1.1.6 1.4.9.8.8 1.3 2 1.3 3.2s-.5 2.4-1.3 3.2l-7.9 8c-.2.2-.4.4-.7.4l-6 1.6c-.2.1-.6.1-.8 0-.2 0-.5-.1-.7-.3zm4.1-6.2l-.9 2.9 3.1-.8L15 8.5l-2.1-2.1-5.4 5.3zM15.3 4l-.3.2 2.1 2.1.2-.2c.2-.2.5-.7.5-1.1s-.1-.8-.4-1c-.1-.1-.4-.2-.5-.4-.2-.1-.4-.1-.6-.1s-.4 0-.6.1c-.2.1-.3.3-.4.4z"/></svg>