<svg xmlns="http://www.w3.org/2000/svg" viewBox="0 0 22 22"><path d="M7.3 9.9c1 0 1.7-.7 1.7-1.6s-.7-1.7-1.6-1.7-1.7.7-1.7 1.6c0 1 .7 1.7 1.6 1.7zm7.6 0c.9 0 1.7-.7 1.7-1.6s-.7-1.7-1.6-1.7-1.7.7-1.7 1.6c0 1 .7 1.7 1.6 1.7zm-3.8 5.5c-1.5 0-3-.9-3.7-2.2H5.6c1.1 3.1 4.5 4.6 7.6 3.5a6.04 6.04 0 003.5-3.5h-1.8c-.8 1.4-2.2 2.2-3.8 2.2zm0-15.4C5-.1 0 4.8 0 10.8-.1 16.9 4.7 21.9 10.8 22A11.04 11.04 0 0022 11.2V11C22 5 17.2.1 11.1 0zm0 19.8c-4.9.1-8.9-3.8-8.9-8.7a8.81 8.81 0 018.7-8.9c4.9-.1 8.9 3.8 8.9 8.7v.1c0 4.8-3.8 8.8-8.7 8.8z"/></svg>