<svg xmlns="http://www.w3.org/2000/svg" viewBox="0 0 24.5 24.507"><g id="Interface-Essential_Login_Logout_login-3" data-name="Interface-Essential / Login/Logout / login-3" transform="translate(-398.755 -426.748)"><g id="Group_34" data-name="Group 34"><g id="login-3" fill="none" stroke="currentColor" stroke-linecap="round" stroke-linejoin="round" stroke-width="2"><path id="Shape_108" data-name="Shape 108" d="M419.255 445.754v1.5a1.5 1.5 0 01-1.5 1.5h-4.5"/><path id="Shape_109" data-name="Shape 109" d="M413.255 430.754h4.5a1.5 1.5 0 011.5 1.5v1.5"/><path id="Shape_110" data-name="Shape 110" d="M409.4 450.246l-9-1.286a.749.749 0 01-.644-.742v-17.493a.749.749 0 01.593-.734l9-2.221a.749.749 0 01.907.734v21a.751.751 0 01-.856.742z"/><path id="Shape_111" data-name="Shape 111" d="M417.005 436.753l-3 3h8.25"/><path id="Shape_112" data-name="Shape 112" d="M417.005 442.753l-3-3"/><path id="Shape_113" data-name="Shape 113" d="M406.88 438.629a.375.375 0 10.375.371.376.376 0 00-.375-.375"/></g></g></g></svg>