<svg xmlns="http://www.w3.org/2000/svg" viewBox="0 0 24.5 24.507"><g fill="none" stroke="currentColor" stroke-linecap="round" stroke-linejoin="round" stroke-width="2" transform="translate(-398.755 -426.748)"><path d="M419.255 445.754v1.5a1.5 1.5 0 01-1.5 1.5h-4.5m0-18h4.5a1.5 1.5 0 011.5 1.5v1.5m-9.855 16.492l-9-1.286a.749.749 0 01-.644-.742v-17.493a.749.749 0 01.593-.734l9-2.221a.749.749 0 01.907.734v21a.751.751 0 01-.856.742z"/><path id="Shape_111" d="M417.005 436.753l-3 3h8.25"/><path d="M417.005 442.753l-3-3m-7.125-1.124a.375.375 0 10.375.371.376.376 0 00-.375-.375"/></g></svg>