<svg xmlns="http://www.w3.org/2000/svg" viewBox="0 0 18 20"><path d="M16.5 12.2L11 6.7c-.6-.6-1.4-1-2.3-1-1.7 0-3 1.3-3 3 0 .9.3 1.7 1 2.3l2.8 2.8c.1.2.3.2.4.2.5-.1 1.1-.7 1.2-1.2 0-.1-.1-.2-.2-.3L8.1 9.7c-.3-.3-.4-.6-.4-1A1.08 1.08 0 018 8a1.08 1.08 0 01.7-.3c.3 0 .7.1.9.4l5.5 5.5c.6.6 1 1.4 1 2.2 0 1.2-.9 2.2-2.1 2.3h-.1c-.8 0-1.6-.4-2.2-1L3.1 8.6C2.4 7.9 1.9 6.9 2 5.8c0-1 .4-2 1.1-2.8s1.7-1.2 2.8-1.2c1 0 2 .4 2.8 1.2l5.8 5.8c.2.1.2.2.3.2.3-.1.7-.5.7-.5s.4-.4.5-.7c0-.1-.1-.2-.2-.3L10 1.7C8.9.6 7.4 0 5.8 0a5.66 5.66 0 00-4.1 1.7C-.6 4-.6 7.7 1.7 10l8.5 8.4c.9 1 2.2 1.5 3.6 1.5 2.3 0 4.2-1.8 4.2-4.1v-.2c0-1.2-.5-2.5-1.5-3.4z"/></svg>