<svg version="1.1" xmlns="http://www.w3.org/2000/svg" x="0" y="0" viewBox="0 0 20 20" xml:space="preserve"><style>.filter-st0{fill:none;stroke:currentColor;stroke-width:2;stroke-linecap:round;stroke-linejoin:round}</style><g id="Filter" transform="translate(174.9 104.2)"><g id="Сгруппировать_767"><path id="Линия_125" class="filter-st0" d="M-159.9-95.6v-7.6"/><path id="Линия_126" class="filter-st0" d="M-159.9-85.2v-4"/><path id="Контур_459" class="filter-st0" d="M-156.8-92.2c0 1.7-1.4 3-3 3-1.7 0-3-1.4-3-3s1.4-3 3-3c1.6.1 3 1.3 3 3z"/></g><g id="Сгруппировать_766"><path id="Линия_127" class="filter-st0" d="M-169.8-97.1v11.9"/><path id="Контур_460" class="filter-st0" d="M-166.9-100.2c0-1.7-1.4-3-3-3s-3 1.4-3 3c0 1.7 1.4 3 3 3 1.8.1 3-1.3 3-3 0 .1 0 0 0 0z"/></g></g></svg>
