<svg xmlns="http://www.w3.org/2000/svg" xmlns:xlink="http://www.w3.org/1999/xlink" viewBox="0 0 21 26"><defs><path id="filter_svg__a" d="M.4.4h20v25H.4z"/></defs><clipPath id="filter_svg__b"><use xlink:href="#filter_svg__a" overflow="visible"/></clipPath><g clip-path="url(#filter_svg__b)"><path d="M14.2 21.3v-1.1H13c-1.4 0-2.5-1-2.5-2.2v-3.3c0-1.2 1.1-2.2 2.5-2.2h1.2V3.6c0-.1 0-.3.1-.4.1-.1.2-.3.3-.4.1-.1.3-.2.4-.2.2-.1.3-.1.5-.1s.3 0 .5.1.3.1.4.2c.1.1.2.2.3.4.1.1.1.3.1.4v8.8H18c1.4 0 2.5 1 2.5 2.2V18c0 1.2-1.1 2.2-2.5 2.2h-1.2v1.1c0 .1 0 .3-.1.4-.1.1-.2.3-.3.4-.1.1-.3.2-.4.2-.2.1-.3.1-.5.1s-.3 0-.5-.1-.3-.1-.4-.2c-.1-.1-.2-.2-.3-.4-.1-.1-.1-.2-.1-.4zM12.9 18h5v-3.3h-5V18zm-8.7 3.2v-8.4H2.9c-1.4 0-2.5-1-2.5-2.2V7.3c0-1.2 1.1-2.2 2.5-2.2h1.2V3.6c0-.1 0-.3.1-.4.1-.1.2-.3.3-.4.1-.1.3-.2.4-.2s.3-.1.5-.1.3 0 .5.1.3.1.4.2c.1.1.2.2.3.4.1.1.1.3.1.4V5h1.2c1.4 0 2.5 1 2.5 2.2v3.3c0 1.2-1.1 2.2-2.5 2.2H6.7v8.4c0 .1 0 .3-.1.4-.1.1-.2.3-.3.4-.1.1-.3.2-.4.2-.2.1-.3.1-.5.1s-.3 0-.5-.1-.3-.1-.4-.2c-.1-.1-.2-.2-.3-.4v-.3zM2.9 10.6h5V7.3h-5v3.3z"/></g></svg>