<?xml version="1.0" encoding="utf-8"?>
<!-- Generator: Adobe Illustrator 22.0.1, SVG Export Plug-In . SVG Version: 6.00 Build 0)  -->
<svg version="1.1" id="Layer_1" xmlns="http://www.w3.org/2000/svg" xmlns:xlink="http://www.w3.org/1999/xlink" x="0px" y="0px"
	 viewBox="0 0 24 24" style="enable-background:new 0 0 24 24;" xml:space="preserve">
<style type="text/css">
	.st0{fill:none;stroke:currentColor;stroke-width:1.5;stroke-linecap:round;stroke-linejoin:round;}
</style>
<title>settings-vertical</title>
<line class="st0" x1="18.1" y1="10.7" x2="18.1" y2="0.8"/>
<line class="st0" x1="18.1" y1="23" x2="18.1" y2="18.1"/>
<path class="st0" d="M21.8,14.4c0,2-1.7,3.7-3.7,3.7s-3.7-1.7-3.7-3.7s1.7-3.7,3.7-3.7l0,0C20.1,10.7,21.8,12.3,21.8,14.4z"/>
<line class="st0" x1="5.8" y1="8.2" x2="5.8" y2="23"/>
<path class="st0" d="M9.4,4.5c0-2-1.7-3.7-3.7-3.7S2.1,2.5,2.1,4.5s1.7,3.7,3.7,3.7l0,0C7.8,8.2,9.4,6.6,9.4,4.5z"/>
</svg>
