<svg xmlns="http://www.w3.org/2000/svg" viewBox="0 0 23.692 23.737">
  <g id="Finance" transform="translate(-347.736 -584.691)">
    <g id="Group_61" data-name="Group 61" transform="translate(348.751 585.751)">
      <g id="saving-wallet-international">
        <path id="Shape_428" data-name="Shape 428" d="M370.089,605v1.182a1.638,1.638,0,0,1-1.548,1.708H360.8a1.637,1.637,0,0,1-1.548-1.708v-5.973A1.638,1.638,0,0,1,360.8,598.5h7.742a1.638,1.638,0,0,1,1.548,1.708v.941" transform="translate(-349.134 -586.217)" fill="none" stroke="currentColor" stroke-linecap="round" stroke-linejoin="round" stroke-width="2"/>
        <path id="Shape_429" data-name="Shape 429" d="M368.741,598.4l-1.235-2.471a.771.771,0,0,0-1.035-.344l-5.614,2.808" transform="translate(-349.193 -586.107)" fill="none" stroke="currentColor" stroke-linecap="round" stroke-linejoin="round" stroke-width="2"/>
        <path id="Shape_430" data-name="Shape 430" d="M370.3,605.1a.771.771,0,0,0,.771-.771v-2.312a.771.771,0,0,0-.771-.771h-1.927a1.927,1.927,0,1,0,0,3.854Z" transform="translate(-349.397 -586.317)" fill="none" stroke="currentColor" stroke-linecap="round" stroke-linejoin="round" stroke-width="2"/>
        <path id="Shape_431" data-name="Shape 431" d="M353.555,605.594a10.84,10.84,0,1,1,16.4-12.192c.047.155.092.31.132.465" transform="translate(-348.751 -585.751)" fill="none" stroke="currentColor" stroke-linecap="round" stroke-linejoin="round" stroke-width="2"/>
        <path id="Shape_432" data-name="Shape 432" d="M355.937,603.73a25.158,25.158,0,0,1-.872-11.4,15.672,15.672,0,0,1,2.132-6.249" transform="translate(-348.971 -585.763)" fill="none" stroke="currentColor" stroke-linecap="round" stroke-linejoin="round" stroke-width="2"/>
        <path id="Shape_433" data-name="Shape 433" d="M348.775,596.25h10.092" transform="translate(-348.751 -586.135)" fill="none" stroke="currentColor" stroke-linecap="round" stroke-linejoin="round" stroke-width="2"/>
        <path id="Shape_434" data-name="Shape 434" d="M350.482,591h18.34" transform="translate(-348.814 -585.943)" fill="none" stroke="currentColor" stroke-linecap="round" stroke-linejoin="round" stroke-width="2"/>
        <path id="Shape_435" data-name="Shape 435" d="M349.687,601.5h5.355" transform="translate(-348.785 -586.327)" fill="none" stroke="currentColor" stroke-linecap="round" stroke-linejoin="round" stroke-width="2"/>
        <path id="Shape_436" data-name="Shape 436" d="M362.711,586.079a14.376,14.376,0,0,1,1.927,5.115q.171.838.276,1.674" transform="translate(-349.261 -585.763)" fill="none" stroke="currentColor" stroke-linecap="round" stroke-linejoin="round" stroke-width="2"/>
      </g>
    </g>
  </g>
</svg>
