<svg version="1.1" id="Layer_1" xmlns="http://www.w3.org/2000/svg" x="0" y="0" viewBox="0 0 24.5 24.5" xml:space="preserve"><style>.floppy-disk-st0{fill:none;stroke:currentColor;stroke-width:2;stroke-linecap:round;stroke-linejoin:round}</style><g id="floppy-disk" transform="translate(-292.75 -1730.75)"><path id="Shape_909" class="floppy-disk-st0" d="M314.8 1754.2h-19.5c-.8 0-1.5-.7-1.5-1.5v-14.5c0-.8.3-1.6.9-2.1l3.5-3.5c.6-.6 1.3-.9 2.1-.9h14.5c.8 0 1.5.7 1.5 1.5v19.5c-.1.9-.7 1.5-1.5 1.5z"/><path id="Shape_910" class="floppy-disk-st0" d="M301.2 1731.8v6c0 .8.7 1.5 1.5 1.5h7.5c.8 0 1.5-.7 1.5-1.5v-6"/><path id="Shape_911" class="floppy-disk-st0" d="M308.8 1734.8v1.5"/><path id="Shape_912" class="floppy-disk-st0" d="M310.2 1743.8h-10.5c-.8 0-1.5.7-1.5 1.5v9h13.5v-9c.1-.9-.6-1.5-1.5-1.5z"/><path id="Shape_913" class="floppy-disk-st0" d="M301.2 1746.8h4.5"/><path id="Shape_914" class="floppy-disk-st0" d="M301.2 1749.8h7.5"/></g></svg>