<svg xmlns="http://www.w3.org/2000/svg" viewBox="0 0 26 25"><path d="M19.9 22.6v-2h-2c-.6 0-1.1-.4-1.1-1a1.11 1.11 0 011.1-1.1H20v-2c0-.6.4-1.1 1-1.1a1.11 1.11 0 011.1 1.1v2.1h2c.6 0 1.1.4 1.1 1a1.11 1.11 0 01-1.1 1.1H22v2.1a1.11 1.11 0 01-1.1 1.1c-.6-.3-1-.8-1-1.3zm-6-3.1c0 .1 0 .5-.1.7-.2.3-.5.4-.9.4H3.7c-1.5 0-2.8-1.2-2.8-2.8V4c0-.8.3-1.5.9-2.1.6-.5 1.3-.8 2.1-.8h13c1.5 0 2.8 1.2 2.8 2.8v1.5c.7.1 1.3.4 1.7.9s.6 1.1.6 1.8v3.5c0 .5-.4.8-.8.8-.1 0 .1 0 0 0-.5 0-.9-.1-1-.8V8.5c0-.8-.6-1.4-1.4-1.4H4.1c-.5 0-1-.3-1.4-.7v10.9c0 .8.6 1.4 1.4 1.4h9.2c.3 0 .6.4.6.8zM3 3.3c-.2.2-.3.5-.3.8 0 .7.6 1.2 1.3 1.2h13.9V4c0-.3-.1-.6-.3-.7-.3-.3-.6-.4-.9-.4H3.9c-.3 0-.6.1-.9.4z"/></svg>