<svg xmlns="http://www.w3.org/2000/svg" viewBox="0 0 24 24"><path d="M9.5 13.7c-4.8 0-6.7 4-7.9 6.6l-.3 1.1c-.2.3-.1.6 0 .9.1.3.3.5.6.6.3.2.6.1.9 0 .3-.1.6-.3.6-.7l.3-1.1c.8-1.9 1.7-3.1 2.6-4 .9-.8 2-1.2 3.2-1.2h3.3c.2 0 .4 0 .7.1h.1c.2 0 .4.1.6.1.5 0 1-.1 1.3-.6.3-.6 0-1.3-.6-1.6-.6-.1-1.1-.2-2.1-.2H9.5zm2.5-10c-1.6 0-3 1.4-3 3.1 0 1.7 1.4 3.1 3.1 3.1 1.7 0 3.1-1.4 3.1-3.1-.1-1.7-1.5-3.1-3.2-3.1zM6.9 6.8C6.9 4 9.2 1.7 12 1.7s5.1 2.3 5.1 5.1-2.3 5.1-5.1 5.1c-2.8.1-5.1-2.3-5.1-5.1zm12.3 10.4c0-.6-.4-1-1-1s-1 .4-1 1v1.5h-1.3c-.6 0-1 .4-1 1s.4 1 1 1h1.3v1.4c0 .6.4 1 1 1s1-.4 1-1v-1.4h1.4c.6 0 1-.4 1-1s-.4-1-1-1h-1.4v-1.5z"/></svg>