<svg xmlns="http://www.w3.org/2000/svg" viewBox="0 0 23 23.6">
  <g id="Governance" transform="translate(-262.5 -84.796)">
    <g id="Group_2" data-name="Group 2">
      <g id="official-building-2">
        <path id="Rectangle-path_3" data-name="Rectangle-path 3" d="M263.5,92.056a.5.5,0,0,1,.5-.5h20a.5.5,0,0,1,.5.5v1.88a.5.5,0,0,1-.5.5H264a.5.5,0,0,1-.5-.5Z" fill="none" stroke="currentColor" stroke-linecap="round" stroke-linejoin="round" stroke-width="2"/>
        <path id="Shape_12" data-name="Shape 12" d="M283,91.556c0-2.88-4.5-5.76-9-5.76s-9,2.88-9,5.76" fill="none" stroke="currentColor" stroke-linecap="round" stroke-linejoin="round" stroke-width="2"/>
        <path id="Rectangle-path_4" data-name="Rectangle-path 4" d="M263.5,102.386a.75.75,0,0,1,.75-.75h19.5a.75.75,0,0,1,.75.75v1.38a.75.75,0,0,1-.75.75h-19.5a.75.75,0,0,1-.75-.75Z" fill="none" stroke="currentColor" stroke-linecap="round" stroke-linejoin="round" stroke-width="2"/>
        <path id="Shape_13" data-name="Shape 13" d="M263.5,107.4h21" fill="none" stroke="currentColor" stroke-linecap="round" stroke-linejoin="round" stroke-width="2"/>
        <path id="Shape_14" data-name="Shape 14" d="M265,94.436v7.2" fill="none" stroke="currentColor" stroke-linecap="round" stroke-linejoin="round" stroke-width="2"/>
        <path id="Shape_15" data-name="Shape 15" d="M268,94.436v7.2" fill="none" stroke="currentColor" stroke-linecap="round" stroke-linejoin="round" stroke-width="2"/>
        <path id="Shape_16" data-name="Shape 16" d="M271,94.436v7.2" fill="none" stroke="currentColor" stroke-linecap="round" stroke-linejoin="round" stroke-width="2"/>
        <path id="Shape_17" data-name="Shape 17" d="M277,94.436v7.2" fill="none" stroke="currentColor" stroke-linecap="round" stroke-linejoin="round" stroke-width="2"/>
        <path id="Shape_18" data-name="Shape 18" d="M283,94.436v7.2" fill="none" stroke="currentColor" stroke-linecap="round" stroke-linejoin="round" stroke-width="2"/>
        <path id="Shape_19" data-name="Shape 19" d="M280,94.436v7.2" fill="none" stroke="currentColor" stroke-linecap="round" stroke-linejoin="round" stroke-width="2"/>
      </g>
    </g>
  </g>
</svg>
