<?xml version="1.0" encoding="utf-8"?>
<!-- Generator: Adobe Illustrator 25.0.0, SVG Export Plug-In . SVG Version: 6.00 Build 0)  -->
<svg version="1.1" id="Слой_1" xmlns="http://www.w3.org/2000/svg" xmlns:xlink="http://www.w3.org/1999/xlink" x="0px" y="0px"
	 viewBox="0 0 21.7 20.4" style="enable-background:new 0 0 21.7 20.4;" xml:space="preserve">
<style type="text/css">
	.grid-st0{fill:none;stroke:currentColor;stroke-width:2;stroke-linecap:round;stroke-linejoin:round;}
</style>
<g id="layout-bullets" transform="translate(0.25 0.253)">
	<path id="Прямоугольник_316" class="grid-st0" d="M2.4,0.7h16.3c0.8,0,1.5,0.7,1.5,1.5v0.7c0,0.8-0.7,1.5-1.5,1.5H2.4
		c-0.8,0-1.5-0.7-1.5-1.5V2.2C0.9,1.4,1.6,0.7,2.4,0.7z"/>
	<path id="Прямоугольник_321" class="grid-st0" d="M2.2,15.5h0.7c0.8,0,1.5,0.7,1.5,1.5v0.7c0,0.8-0.7,1.5-1.5,1.5H2.2
		c-0.8,0-1.5-0.7-1.5-1.5V17C0.8,16.2,1.4,15.5,2.2,15.5z"/>
	<path id="Прямоугольник_332" class="grid-st0" d="M10.2,15.5h0.7c0.8,0,1.5,0.7,1.5,1.5v0.7c0,0.8-0.7,1.5-1.5,1.5h-0.7
		c-0.8,0-1.5-0.7-1.5-1.5V17C8.8,16.2,9.4,15.5,10.2,15.5z"/>
	<path id="Прямоугольник_333" class="grid-st0" d="M18.2,15.5h0.7c0.8,0,1.5,0.7,1.5,1.5v0.7c0,0.8-0.7,1.5-1.5,1.5h-0.7
		c-0.8,0-1.5-0.7-1.5-1.5V17C16.8,16.2,17.4,15.5,18.2,15.5z"/>
	<path id="Прямоугольник_334" class="grid-st0" d="M2.2,8.5h0.7c0.8,0,1.5,0.7,1.5,1.5v0.7c0,0.8-0.7,1.5-1.5,1.5H2.2
		c-0.8,0-1.5-0.7-1.5-1.5V10C0.8,9.2,1.4,8.5,2.2,8.5z"/>
	<path id="Прямоугольник_335" class="grid-st0" d="M10.2,8.5h0.7c0.8,0,1.5,0.7,1.5,1.5v0.7c0,0.8-0.7,1.5-1.5,1.5h-0.7
		c-0.8,0-1.5-0.7-1.5-1.5V10C8.8,9.2,9.4,8.5,10.2,8.5z"/>
	<path id="Прямоугольник_336" class="grid-st0" d="M18.2,8.5h0.7c0.8,0,1.5,0.7,1.5,1.5v0.7c0,0.8-0.7,1.5-1.5,1.5h-0.7
		c-0.8,0-1.5-0.7-1.5-1.5V10C16.8,9.2,17.4,8.5,18.2,8.5z"/>
</g>
</svg>
