<svg version="1.1" id="Слой_1" xmlns="http://www.w3.org/2000/svg" x="0" y="0" viewBox="0 0 21.7 20.4" xml:space="preserve"><style>.grid-st0{fill:none;stroke:currentColor;stroke-width:2;stroke-linecap:round;stroke-linejoin:round}</style><g id="layout-bullets" transform="translate(.25 .253)"><path id="Прямоугольник_316" class="grid-st0" d="M2.4.7h16.3c.8 0 1.5.7 1.5 1.5v.7c0 .8-.7 1.5-1.5 1.5H2.4C1.6 4.4.9 3.7.9 2.9v-.7c0-.8.7-1.5 1.5-1.5z"/><path id="Прямоугольник_321" class="grid-st0" d="M2.2 15.5h.7c.8 0 1.5.7 1.5 1.5v.7c0 .8-.7 1.5-1.5 1.5h-.7c-.8 0-1.5-.7-1.5-1.5V17c.1-.8.7-1.5 1.5-1.5z"/><path id="Прямоугольник_332" class="grid-st0" d="M10.2 15.5h.7c.8 0 1.5.7 1.5 1.5v.7c0 .8-.7 1.5-1.5 1.5h-.7c-.8 0-1.5-.7-1.5-1.5V17c.1-.8.7-1.5 1.5-1.5z"/><path id="Прямоугольник_333" class="grid-st0" d="M18.2 15.5h.7c.8 0 1.5.7 1.5 1.5v.7c0 .8-.7 1.5-1.5 1.5h-.7c-.8 0-1.5-.7-1.5-1.5V17c.1-.8.7-1.5 1.5-1.5z"/><path id="Прямоугольник_334" class="grid-st0" d="M2.2 8.5h.7c.8 0 1.5.7 1.5 1.5v.7c0 .8-.7 1.5-1.5 1.5h-.7c-.8 0-1.5-.7-1.5-1.5V10c.1-.8.7-1.5 1.5-1.5z"/><path id="Прямоугольник_335" class="grid-st0" d="M10.2 8.5h.7c.8 0 1.5.7 1.5 1.5v.7c0 .8-.7 1.5-1.5 1.5h-.7c-.8 0-1.5-.7-1.5-1.5V10c.1-.8.7-1.5 1.5-1.5z"/><path id="Прямоугольник_336" class="grid-st0" d="M18.2 8.5h.7c.8 0 1.5.7 1.5 1.5v.7c0 .8-.7 1.5-1.5 1.5h-.7c-.8 0-1.5-.7-1.5-1.5V10c.1-.8.7-1.5 1.5-1.5z"/></g></svg>