<svg xmlns="http://www.w3.org/2000/svg" viewBox="0 0 24.5 23">
  <g id="Health_Fitness" data-name="Health &amp; Fitness" transform="translate(-308.75 -282.5)">
    <g id="Group_18" data-name="Group 18">
      <g id="Regular_18" data-name="Regular 18">
        <path id="Shape_48" data-name="Shape 48" d="M320.4,295.2A3,3,0,0,0,318,294h-3a5.25,5.25,0,0,0,0,10.5h15a2.25,2.25,0,0,0,0-4.5h-4.5a3,3,0,0,1-2.4-1.2Z" fill="none" stroke="currentColor" stroke-linecap="round" stroke-linejoin="round" stroke-width="2"/>
        <path id="Shape_49" data-name="Shape 49" d="M315.75,298.5l2.25,3" fill="none" stroke="currentColor" stroke-linecap="round" stroke-linejoin="round" stroke-width="2"/>
        <path id="Shape_50" data-name="Shape 50" d="M322.433,297.911l1.922-6.964a1.963,1.963,0,0,1,1.895-1.447h3a3,3,0,0,0,0-6h-6" fill="none" stroke="currentColor" stroke-linecap="round" stroke-linejoin="round" stroke-width="2"/>
        <path id="Shape_51" data-name="Shape 51" d="M311.25,289.5h6" fill="none" stroke="currentColor" stroke-linecap="round" stroke-linejoin="round" stroke-width="2"/>
        <path id="Shape_52" data-name="Shape 52" d="M313.5,289.5l3,4.5" fill="none" stroke="currentColor" stroke-linecap="round" stroke-linejoin="round" stroke-width="2"/>
      </g>
    </g>
  </g>
</svg>
