<?xml version="1.0" encoding="utf-8"?>
<!-- Generator: Adobe Illustrator 25.0.0, SVG Export Plug-In . SVG Version: 6.00 Build 0)  -->
<svg version="1.1" id="Слой_1" xmlns="http://www.w3.org/2000/svg" xmlns:xlink="http://www.w3.org/1999/xlink" x="0px" y="0px"
	 viewBox="0 0 24.7 20.8" style="enable-background:new 0 0 24.7 20.8;" xml:space="preserve">
<style type="text/css">
	.hide-st0{fill:none;stroke:currentColor;stroke-width:2;stroke-linecap:round;stroke-linejoin:round;}
</style>
<g id="hide" transform="translate(0.366 -1.586)">
	<line id="Линия_133" class="hide-st0" x1="2.8" y1="21" x2="21.5" y2="3"/>
	<path id="Контур_464" class="hide-st0" d="M9,19.1c1,0.3,2,0.5,3,0.4c4.1,0.1,8.3-2.8,10.8-5.6c0.6-0.6,0.6-1.6,0-2.2
		c-0.9-1-2-1.9-3.1-2.8"/>
	<path id="Контур_465" class="hide-st0" d="M14.4,6.3C13.6,6.1,12.8,6,12,6C8,5.9,3.8,8.8,1.2,11.6c-0.6,0.6-0.6,1.6,0,2.2
		c0.8,0.9,1.7,1.7,2.6,2.4"/>
	<path id="Контур_466" class="hide-st0" d="M8.2,12.8C8.2,10.7,9.9,9,12,9c0,0,0,0,0,0"/>
	<path id="Контур_467" class="hide-st0" d="M15.8,12.7L15.8,12.7c0,2.1-1.7,3.8-3.7,3.8c0,0,0,0,0,0"/>
</g>
</svg>
