<svg xmlns="http://www.w3.org/2000/svg" viewBox="0 0 29 23"><path d="M7.6 19.1c-2.5-1.6-4.7-3.6-6.4-6-.2-.3-.2-.7 0-1.1.2-.3 6-8.2 13.3-8.2 2.2.1 4.4.7 6.4 1.9l-1.1 1.5c-1.6-.9-3.4-1.4-5.2-1.4-5.5 0-10.2 5.1-11.6 6.8 1.7 2.1 3.8 3.8 6.1 5.2 1.7 1 3.5 1.5 5.5 1.6 1.5 0 3-.4 4.3-1 1.6-.7 2.2 1 1 1.6-1.7.8-3.5 1.3-5.3 1.3-2.5-.1-4.9-.8-7-2.2zM23 15.7c1.1-.9 2.2-2 3.1-3.1-1.2-1.5-2.6-2.8-4.1-3.9l1.5-1.1a26.81 26.81 0 014.4 4.5c.2.3.2.7 0 1.1a33.28 33.28 0 01-3.6 3.9c-.2.2-.5.4-.9.4-.8-.1-1.3-1.1-.4-1.8zM9.7 12.6c0-2.7 2.2-4.8 4.8-4.8a4.76 4.76 0 013.4 1.4L11.1 16a4.76 4.76 0 01-1.4-3.4zm1.9 0c0 .7.3 1.5.8 2l4-4.1c-1.2-1.1-3-1-4.1.2-.4.5-.7 1.2-.7 1.9z"/><path d="M25.8 1.3c.4.4.4 1 0 1.4L6.5 21.9c-.4.4-1 .4-1.4 0s-.4-1 0-1.3L24.5 1.3c.3-.4.9-.4 1.3 0z"/></svg>