<?xml version="1.0" encoding="utf-8"?>
<svg version="1.1" id="icon" xmlns="http://www.w3.org/2000/svg" xmlns:xlink="http://www.w3.org/1999/xlink" x="0px" y="0px"
	 viewBox="0 0 20 20" enable-background="new 0 0 20 20" xml:space="preserve">
<g>
		<line fill="none" stroke="currentColor" stroke-width="2" stroke-linecap="round" stroke-linejoin="round" x1="3" y1="16.5" x2="16.6" y2="3.5"/>
	<path fill="none" stroke="currentColor" stroke-width="2" stroke-linecap="round" stroke-linejoin="round" d="M8,15.1
		c0.8,0.3,1.2,0.3,2,0.3c3.3,0,6.5-2.3,8.6-4.5c0.5-0.5,0.5-1.3,0-1.8c-0.7-0.8-1.3-1.4-2.2-2"/>
	<path fill="none" stroke="currentColor" stroke-width="2" stroke-linecap="round" stroke-linejoin="round" d="M11.6,4.7
		c-0.5-0.1-1-0.1-1.6-0.1c-3.2,0-6.5,2.2-8.6,4.5c-0.5,0.5-0.5,1.3,0,1.8c0.6,0.7,1.1,1.2,1.9,1.8"/>
	<path fill="none" stroke="currentColor" stroke-width="2" stroke-linecap="round" stroke-linejoin="round" d="M7.1,9.2
		c0.5-1.3,1.4-2,2.5-2"/>
	<path fill="none" stroke="currentColor" stroke-width="2" stroke-linecap="round" stroke-linejoin="round" d="M13,10L13,10
		c0,1.7-1.3,3-3,3l0,0"/>
</g>
</svg>
