<svg xmlns="http://www.w3.org/2000/svg" viewBox="0 0 21.949 21.949"><g id="Identity" transform="translate(-350.755 -1070.75)"><g id="Group_85" data-name="Group 85" transform="translate(351.755 1071.75)"><g id="face-id-4" fill="none" stroke="currentColor" stroke-linecap="round" stroke-linejoin="round" stroke-width="2"><path id="Shape_409" data-name="Shape 409" d="M373.745 1089.75v2.66a1.33 1.33 0 01-1.33 1.33h-2.66" transform="translate(-353.796 -1073.791)"/><path id="Shape_410" data-name="Shape 410" d="M369.755 1071.75h2.66a1.33 1.33 0 011.33 1.33v2.66" transform="translate(-353.796 -1071.75)"/><path id="Shape_411" data-name="Shape 411" d="M351.755 1075.74v-2.66a1.33 1.33 0 011.33-1.33h2.66" transform="translate(-351.755 -1071.75)"/><path id="Shape_412" data-name="Shape 412" d="M355.745 1093.74h-2.66a1.33 1.33 0 01-1.33-1.33v-2.66" transform="translate(-351.755 -1073.791)"/><path id="Oval_47" data-name="Oval 47" d="M362.537 1083.195a3.657 3.657 0 10-3.657-3.657 3.658 3.658 0 003.657 3.657z" transform="translate(-352.563 -1072.218)"/><path id="Shape_413" data-name="Shape 413" d="M367.927 1089.611a5.986 5.986 0 00-11.287 0" transform="translate(-352.309 -1073.322)"/></g></g></g></svg>