<svg xmlns="http://www.w3.org/2000/svg" xmlns:xlink="http://www.w3.org/1999/xlink" viewBox="0 0 25 24"><defs><path id="install_svg__a" d="M.4.4h24v23H.4z"/></defs><clipPath id="install_svg__b"><use xlink:href="#install_svg__a" overflow="visible"/></clipPath><g clip-path="url(#install_svg__b)"><path d="M10.8 19.6l3.1 3.1c.2.2.5.2.7 0l3.1-3.1c.2-.2.2-.5 0-.7-.1-.1-.2-.1-.4-.1h-1.5v-7.3c.1-.5-.3-.9-.8-1h-1.3c-.5 0-1 .4-1 .9v7.4h-1.8c-.1 0-.1.1-.2.1 0 0-.1.1-.1.2v.2c.1 0 .1.1.2.3zM23.7 9.3c0-4.6-3.8-8.4-8.4-8.4-3 0-5.9 1.7-7.3 4.3-3.3-.6-6.6 1.7-7.2 5.1-.6 3.5 1.7 6.7 5.1 7.2.3.1.7.1 1 .1h4.3v-3.1H7.6c-2 .1-3.7-1.4-3.8-3.2-.1-2 1.4-3.7 3.2-3.8h1c.3 0 1.3.2 1.3.2l.6-1c1.1-1.7 3-2.6 5-2.6 2.9-.2 5.3 2 5.5 4.9.2 2.4-1.3 4.4-3.3 5.2v3.2c3.9-.9 6.6-4.1 6.6-8.1z"/></g></svg>