<svg xmlns="http://www.w3.org/2000/svg" xmlns:xlink="http://www.w3.org/1999/xlink" viewBox="0 0 24 24"><defs><path id="link-2_svg__a" d="M.4.7h22.8v23H.4z"/></defs><clipPath id="link-2_svg__b"><use xlink:href="#link-2_svg__a" overflow="visible"/></clipPath><g clip-path="url(#link-2_svg__b)"><path d="M22.9 15.1L19 11.2c-.1-.1 0 0 0 0-.5-.5-.9-.1-1 0l-.6.6c-.2.2-.2.6 0 .8l1.1 1.1c.1.1.1.1.1.2 0 .2-.1.3-.3.3h-4.2c-.1 0 .1 0 0 0H10c-3.3-.2-6.5 1.5-8.3 4.5-.5 1-.9 2.1-1.1 3.4-.1.6.2 1.2.9 1.4h.2c.6 0 1-.3 1.1-.9.2-1 .6-1.9.9-2.7 1.2-2.3 3.7-3.6 6.2-3.4h3.6c.1 0-.1 0 0 0h4.7c.1 0 .2.1.2.1.1.1.1.3 0 .5l-1.1 1.1c-.2.2-.2.6 0 .8l.8.8c.2.2.6.2.8 0l3.9-3.9c.1-.1.2-.2.2-.3.2-.3 0-.4-.1-.5zM12 3.7c-1.6 0-3 1.4-3 3.1 0 1.7 1.4 3.1 3.1 3.1 1.7 0 3.1-1.4 3.1-3.1-.1-1.7-1.5-3.1-3.2-3.1zM6.9 6.8C6.9 4 9.2 1.7 12 1.7s5.1 2.3 5.1 5.1-2.3 5.1-5.1 5.1c-2.8.1-5.1-2.3-5.1-5.1z"/></g></svg>