<svg version="1.1" xmlns="http://www.w3.org/2000/svg" x="0" y="0" viewBox="0 0 24.5 24.5" xml:space="preserve"><style>.list-st0{fill:none;stroke:currentColor;stroke-width:2;stroke-linecap:round;stroke-linejoin:round}</style><g id="list_view" transform="translate(.25 .253)"><path id="Прямоугольник_320" class="list-st0" d="M9.8.7h12c.8 0 1.5.7 1.5 1.5v1.5c0 .8-.7 1.5-1.5 1.5h-12c-.8 0-1.5-.7-1.5-1.5V2.2C8.2 1.4 8.9.7 9.8.7z"/><path id="Прямоугольник_321" class="list-st0" d="M9.8 9.7h12c.8 0 1.5.7 1.5 1.5v1.5c0 .8-.7 1.5-1.5 1.5h-12c-.8 0-1.5-.7-1.5-1.5v-1.5c-.1-.8.6-1.5 1.5-1.5z"/><path id="Прямоугольник_322" class="list-st0" d="M9.8 18.7h12c.8 0 1.5.7 1.5 1.5v1.5c0 .8-.7 1.5-1.5 1.5h-12c-.8 0-1.5-.7-1.5-1.5v-1.5c-.1-.8.6-1.5 1.5-1.5z"/><path id="Прямоугольник_323" class="list-st0" d="M2.2.7h1.5c.8 0 1.5.7 1.5 1.5v1.5c0 .8-.7 1.5-1.5 1.5H2.2C1.4 5.2.7 4.5.7 3.7V2.2C.8 1.4 1.4.7 2.2.7z"/><path id="Прямоугольник_324" class="list-st0" d="M2.2 9.7h1.5c.8 0 1.5.7 1.5 1.5v1.5c0 .8-.7 1.5-1.5 1.5H2.2c-.8 0-1.5-.7-1.5-1.5v-1.5c.1-.8.7-1.5 1.5-1.5z"/><path id="Прямоугольник_325" class="list-st0" d="M2.2 18.7h1.5c.8 0 1.5.7 1.5 1.5v1.5c0 .8-.7 1.5-1.5 1.5H2.2c-.8 0-1.5-.7-1.5-1.5v-1.5c.1-.8.7-1.5 1.5-1.5z"/></g></svg>
