<?xml version="1.0" encoding="utf-8"?>
<!-- Generator: Adobe Illustrator 25.0.0, SVG Export Plug-In . SVG Version: 6.00 Build 0)  -->
<svg version="1.1" id="Слой_1" xmlns="http://www.w3.org/2000/svg" xmlns:xlink="http://www.w3.org/1999/xlink" x="0px" y="0px"
	 viewBox="0 0 24.5 24.5" style="enable-background:new 0 0 24.5 24.5;" xml:space="preserve">
<style type="text/css">
	.list-st0{fill:none;stroke:currentColor;stroke-width:2;stroke-linecap:round;stroke-linejoin:round;}
</style>
<g id="list_view" transform="translate(0.25 0.253)">
	<path id="Прямоугольник_320" class="list-st0" d="M9.8,0.7h12c0.8,0,1.5,0.7,1.5,1.5v1.5c0,0.8-0.7,1.5-1.5,1.5h-12
		c-0.8,0-1.5-0.7-1.5-1.5V2.2C8.2,1.4,8.9,0.7,9.8,0.7z"/>
	<path id="Прямоугольник_321" class="list-st0" d="M9.8,9.7h12c0.8,0,1.5,0.7,1.5,1.5v1.5c0,0.8-0.7,1.5-1.5,1.5h-12
		c-0.8,0-1.5-0.7-1.5-1.5v-1.5C8.2,10.4,8.9,9.7,9.8,9.7z"/>
	<path id="Прямоугольник_322" class="list-st0" d="M9.8,18.7h12c0.8,0,1.5,0.7,1.5,1.5v1.5c0,0.8-0.7,1.5-1.5,1.5h-12
		c-0.8,0-1.5-0.7-1.5-1.5v-1.5C8.2,19.4,8.9,18.7,9.8,18.7z"/>
	<path id="Прямоугольник_323" class="list-st0" d="M2.2,0.7h1.5c0.8,0,1.5,0.7,1.5,1.5v1.5c0,0.8-0.7,1.5-1.5,1.5H2.2
		c-0.8,0-1.5-0.7-1.5-1.5V2.2C0.8,1.4,1.4,0.7,2.2,0.7z"/>
	<path id="Прямоугольник_324" class="list-st0" d="M2.2,9.7h1.5c0.8,0,1.5,0.7,1.5,1.5v1.5c0,0.8-0.7,1.5-1.5,1.5H2.2
		c-0.8,0-1.5-0.7-1.5-1.5v-1.5C0.8,10.4,1.4,9.7,2.2,9.7z"/>
	<path id="Прямоугольник_325" class="list-st0" d="M2.2,18.7h1.5c0.8,0,1.5,0.7,1.5,1.5v1.5c0,0.8-0.7,1.5-1.5,1.5H2.2
		c-0.8,0-1.5-0.7-1.5-1.5v-1.5C0.8,19.4,1.4,18.7,2.2,18.7z"/>
</g>
</svg>
