<?xml version="1.0" encoding="utf-8"?>
<svg version="1.1" xmlns="http://www.w3.org/2000/svg" xmlns:xlink="http://www.w3.org/1999/xlink" x="0px" y="0px"
	 viewBox="0 0 22 22" style="enable-background:new 0 0 22 22;" xml:space="preserve">
<g id="Interface-Essential_Layouts_layout-module" transform="translate(-446.755 -5170.75)">
	<g id="Group_490" transform="translate(447.755 5171.75)">
		<g id="layout-module">
			<path id="Rectangle-path_172" fill="none" stroke="currentColor" stroke-width="2" stroke-linecap="round" stroke-linejoin="round" d="M0,1.5C0,0.7,0.7,0,1.5,0H3c0.8,0,1.5,0.7,1.5,1.5V3c0,0.8-0.7,1.5-1.5,1.5H1.5
				C0.7,4.5,0,3.8,0,3V1.5z"/>
			<path id="Rectangle-path_173" fill="none" stroke="currentColor" stroke-width="2" stroke-linecap="round" stroke-linejoin="round" d="M7.8,1.5C7.8,0.7,8.4,0,9.2,0h1.5c0.8,0,1.5,0.7,1.5,1.5V3c0,0.8-0.7,1.5-1.5,1.5
				H9.2C8.4,4.5,7.8,3.8,7.8,3V1.5z"/>
			<path id="Rectangle-path_174" fill="none" stroke="currentColor" stroke-width="2" stroke-linecap="round" stroke-linejoin="round" d="M15.5,1.5C15.5,0.7,16.2,0,17,0h1.5C19.3,0,20,0.7,20,1.5V3c0,0.8-0.7,1.5-1.5,1.5
				H17c-0.8,0-1.5-0.7-1.5-1.5V1.5z"/>
			<path id="Rectangle-path_175" fill="none" stroke="currentColor" stroke-width="2" stroke-linecap="round" stroke-linejoin="round" d="M0,9.2c0-0.8,0.7-1.5,1.5-1.5H3c0.8,0,1.5,0.7,1.5,1.5v1.5c0,0.8-0.7,1.5-1.5,1.5
				H1.5c-0.8,0-1.5-0.7-1.5-1.5V9.2z"/>
			<path id="Rectangle-path_176" fill="none" stroke="currentColor" stroke-width="2" stroke-linecap="round" stroke-linejoin="round" d="M7.8,9.2c0-0.8,0.7-1.5,1.5-1.5h1.5c0.8,0,1.5,0.7,1.5,1.5v1.5
				c0,0.8-0.7,1.5-1.5,1.5H9.2c-0.8,0-1.5-0.7-1.5-1.5V9.2z"/>
			<path id="Rectangle-path_177" fill="none" stroke="currentColor" stroke-width="2" stroke-linecap="round" stroke-linejoin="round" d="M15.5,9.2c0-0.8,0.7-1.5,1.5-1.5h1.5c0.8,0,1.5,0.7,1.5,1.5v1.5
				c0,0.8-0.7,1.5-1.5,1.5H17c-0.8,0-1.5-0.7-1.5-1.5V9.2z"/>
			<path id="Rectangle-path_178" fill="none" stroke="currentColor" stroke-width="2" stroke-linecap="round" stroke-linejoin="round" d="M0,17c0-0.8,0.7-1.5,1.5-1.5H3c0.8,0,1.5,0.7,1.5,1.5v1.5C4.5,19.3,3.8,20,3,20H1.5
				C0.7,20,0,19.3,0,18.5V17z"/>
			<path id="Rectangle-path_179" fill="none" stroke="currentColor" stroke-width="2" stroke-linecap="round" stroke-linejoin="round" d="M7.8,17c0-0.8,0.7-1.5,1.5-1.5h1.5c0.8,0,1.5,0.7,1.5,1.5v1.5
				c0,0.8-0.7,1.5-1.5,1.5H9.2c-0.8,0-1.5-0.7-1.5-1.5V17z"/>
			<path id="Rectangle-path_180" fill="none" stroke="currentColor" stroke-width="2" stroke-linecap="round" stroke-linejoin="round" d="M15.5,17c0-0.8,0.7-1.5,1.5-1.5h1.5c0.8,0,1.5,0.7,1.5,1.5v1.5
				c0,0.8-0.7,1.5-1.5,1.5H17c-0.8,0-1.5-0.7-1.5-1.5V17z"/>
		</g>
	</g>
</g>
</svg>
