<svg xmlns="http://www.w3.org/2000/svg" width="21.25" height="21.25"><g id="Messages" transform="translate(-665.75 -435.75)"><g id="Group_68" data-name="Group 68" transform="translate(666.75 436.75)"><g id="messages-bubble-square-typing-1" fill="none" stroke="currentColor" stroke-linecap="round" stroke-linejoin="round" stroke-width="2"><path id="Shape_273" data-name="Shape 273" d="M684.717 452.15h-8.983L670.6 456v-3.85h-2.567a1.284 1.284 0 01-1.283-1.283v-12.834a1.284 1.284 0 011.283-1.283h16.683a1.284 1.284 0 011.284 1.283v12.833a1.284 1.284 0 01-1.283 1.284z" transform="translate(-666.75 -436.75)"/><path id="Shape_274" data-name="Shape 274" d="M673.446 445.375a.321.321 0 10.321.321.321.321 0 00-.321-.321" transform="translate(-667.671 -437.996)"/><path id="Shape_275" data-name="Shape 275" d="M677.946 445.375a.321.321 0 10.321.321.321.321 0 00-.321-.321" transform="translate(-668.321 -437.996)"/><path id="Shape_276" data-name="Shape 276" d="M682.446 445.375a.321.321 0 10.321.321.321.321 0 00-.321-.321" transform="translate(-668.971 -437.996)"/></g></g></g></svg>