<?xml version="1.0" encoding="utf-8"?>
<!-- Generator: Adobe Illustrator 25.0.0, SVG Export Plug-In . SVG Version: 6.00 Build 0)  -->
<svg version="1.1" id="Слой_1" xmlns="http://www.w3.org/2000/svg" xmlns:xlink="http://www.w3.org/1999/xlink" x="0px" y="0px"
	 viewBox="0 0 24 24.3" style="enable-background:new 0 0 24 24.3;" xml:space="preserve">
<g id="Module_Registration" transform="translate(-287.3 -459.5)">
	<path fill="none" stroke="currentColor" stroke-width="2" id="Shape_153" class="st0" d="M303.3,467.8l-3-2.9c0.3-0.1,0.6-0.3,0.9-0.5c0.8-0.8,0.7-2.1-0.1-2.9c-0.8-0.7-2-0.7-2.8,0
		c-0.2,0.3-0.4,0.6-0.5,0.9l-1.6-1.6c-0.4-0.4-1-0.4-1.4,0c0,0,0,0,0,0l0,0l-1.4,1.4c-0.1,0.1-0.2,0.3-0.1,0.4
		c0,0.2,0.1,0.3,0.2,0.4c0.9,0.6,1.3,1.8,0.7,2.7c-0.6,0.9-1.8,1.3-2.7,0.7c-0.2-0.1-0.3-0.2-0.4-0.3c-0.1-0.1-0.2-0.2-0.2-0.3
		c-0.1-0.1-0.2-0.2-0.4-0.2c-0.1,0-0.3,0-0.4,0.1l-1.5,1.4c-0.4,0.4-0.4,1,0,1.4c0,0,0,0,0,0l7,7.1"/>
	<path fill="none" stroke="currentColor" stroke-width="2" id="Shape_153-2" class="st0" d="M306.8,473.7c-0.7,0.9-2.1,1-3,0.2c0,0,0,0,0,0c-0.9-0.8-0.9-2.1-0.2-3l0.2-0.2
		c0.2-0.2,0.4-0.4,0.7-0.5c0.2-0.1,0.3-0.2,0.3-0.4c0-0.2,0-0.4-0.1-0.5l-1.7-1.7c-0.4-0.4-1.1-0.4-1.5,0l0,0l-1.8,1.8
		c-0.1-0.4-0.3-0.7-0.6-1c-0.9-0.9-2.2-0.9-3.1,0s-0.9,2.2,0,3.1c0.3,0.3,0.6,0.5,1,0.6l-1.8,1.8c-0.4,0.4-0.4,1.1,0,1.5l0,0
		l1.6,1.6c0.1,0.1,0.2,0.2,0.4,0.2c0.2,0,0.3-0.1,0.4-0.2c0.7-1,2-1.3,3-0.6s1.3,2,0.6,3c-0.1,0.1-0.2,0.3-0.3,0.4l-0.3,0.3
		c-0.1,0.1-0.2,0.2-0.2,0.4c0,0.2,0,0.3,0.2,0.4l1.6,1.6c0.4,0.4,1.1,0.4,1.5,0l6.2-6.2c0.4-0.4,0.4-1.1,0-1.5l-1.7-1.7
		c-0.1-0.1-0.3-0.2-0.5-0.1c-0.2,0-0.3,0.2-0.4,0.3C307.2,473.2,307.1,473.5,306.8,473.7z"/>
</g>
</svg>
