<svg xmlns="http://www.w3.org/2000/svg" viewBox="0 0 29 28"><path d="M1.3 14.5h25.2v-2H1.3v2z"/><g fill="none" stroke="currentColor" stroke-width="2"><path d="M14.3 1.1v25.1M1.4 13.6C1.4 6.7 7.1 1.2 14 1.2s12.6 5.6 12.6 12.4C26.7 20.5 21 26 14.1 26S1.4 20.5 1.4 13.6z"/><path d="M10.7 2.5c.8-.7 1.9-1.4 3.3-1.4s2.5.6 3.3 1.4c.8.7 1.4 1.7 1.9 2.8 1 2.2 1.5 5.1 1.5 8.2s-.6 6-1.5 8.2c-.5 1.1-1.1 2.1-1.9 2.8s-1.9 1.4-3.3 1.4-2.5-.6-3.3-1.4c-.8-.7-1.4-1.7-1.9-2.8-1-2.2-1.5-5.1-1.5-8.2s.6-6 1.5-8.2c.5-1.1 1.1-2.1 1.9-2.8z"/></g></svg>