<?xml version="1.0" encoding="utf-8"?>
<!-- Generator: Adobe Illustrator 25.4.1, SVG Export Plug-In . SVG Version: 6.00 Build 0)  -->
<svg version="1.1" xmlns="http://www.w3.org/2000/svg" xmlns:xlink="http://www.w3.org/1999/xlink" x="0px" y="0px"
	 viewBox="0 0 20 20" enable-background="new 0 0 20 20" xml:space="preserve">
<path fill="none" stroke="currentColor" stroke-width="2" stroke-linecap="round" stroke-linejoin="round" d="M4.4,14.5
	c1.9,0,3.4-1.5,3.4-3.4S6.3,7.8,4.4,7.8S1,9.3,1,11.2C1.1,13,2.6,14.5,4.4,14.5L4.4,14.5z"/>
<path fill="none" stroke="currentColor" stroke-width="2" stroke-linecap="round" stroke-linejoin="round" d="M15.6,19
	c1.9,0,3.4-1.5,3.4-3.4s-1.5-3.4-3.4-3.4s-3.4,1.5-3.4,3.4C12.2,17.5,13.7,19,15.6,19L15.6,19z"/>
<path fill="none" stroke="currentColor" stroke-width="2" stroke-linecap="round" stroke-linejoin="round" d="M15.6,7.7
	c1.9,0,3.4-1.5,3.4-3.4S17.4,1,15.6,1s-3.4,1.5-3.4,3.4C12.2,6.2,13.7,7.7,15.6,7.7L15.6,7.7z"/>
<path fill="none" stroke="currentColor" stroke-width="2" stroke-linecap="round" stroke-linejoin="round" d="M7.5,9.3l5.1-3.1"/>
<path fill="none" stroke="currentColor" stroke-width="2" stroke-linecap="round" stroke-linejoin="round" d="M7.8,12.5l4.6,1.8"/>
</svg>
