<svg xmlns="http://www.w3.org/2000/svg" viewBox="0 0 21.808 23.223">
  <g id="Organizations" transform="translate(-251.499 -1582.75)">
    <g id="Group_190" data-name="Group 190" transform="translate(252.499 1583.75)">
      <g id="human-resources-hierarchy">
        <path id="Shape_1112" data-name="Shape 1112" d="M254.749,1601.495V1597.7a.451.451,0,0,1,.45-.45h14.663a.451.451,0,0,1,.45.45v3.795" transform="translate(-252.627 -1584.516)" fill="none" stroke="currentColor" stroke-linecap="round" stroke-linejoin="round" stroke-width="2"/>
        <path id="Shape_1113" data-name="Shape 1113" d="M263,1594.25v7.074" transform="translate(-253.095 -1584.346)" fill="none" stroke="currentColor" stroke-linecap="round" stroke-linejoin="round" stroke-width="2"/>
        <path id="Oval_107" data-name="Oval 107" d="M254.621,1605.995a2.122,2.122,0,1,0-2.122-2.122A2.122,2.122,0,0,0,254.621,1605.995Z" transform="translate(-252.499 -1584.772)" fill="none" stroke="currentColor" stroke-linecap="round" stroke-linejoin="round" stroke-width="2"/>
        <path id="Oval_108" data-name="Oval 108" d="M262.871,1605.995a2.122,2.122,0,1,0-2.122-2.122A2.122,2.122,0,0,0,262.871,1605.995Z" transform="translate(-252.967 -1584.772)" fill="none" stroke="currentColor" stroke-linecap="round" stroke-linejoin="round" stroke-width="2"/>
        <path id="Oval_109" data-name="Oval 109" d="M271.121,1605.995a2.122,2.122,0,1,0-2.122-2.122A2.122,2.122,0,0,0,271.121,1605.995Z" transform="translate(-253.436 -1584.772)" fill="none" stroke="currentColor" stroke-linecap="round" stroke-linejoin="round" stroke-width="2"/>
        <path id="Oval_110" data-name="Oval 110" d="M262.829,1589.409a2.83,2.83,0,1,0-2.83-2.83A2.829,2.829,0,0,0,262.829,1589.409Z" transform="translate(-252.925 -1583.75)" fill="none" stroke="currentColor" stroke-linecap="round" stroke-linejoin="round" stroke-width="2"/>
        <path id="Shape_1114" data-name="Shape 1114" d="M266.98,1594.037a4.4,4.4,0,0,0-8.634,0" transform="translate(-252.831 -1584.133)" fill="none" stroke="currentColor" stroke-linecap="round" stroke-linejoin="round" stroke-width="2"/>
      </g>
    </g>
  </g>
</svg>
