<svg version="1.1" xmlns="http://www.w3.org/2000/svg" x="0" y="0" viewBox="0 0 24.5 24.5" xml:space="preserve"><style>.platforms-st0{fill:none;stroke:currentColor;stroke-width:2;stroke-linecap:round;stroke-linejoin:round}</style><g id="Programming-Apps-Websites_Responsive-Design_responsive-design-laptop-1" transform="translate(-486.75 -504.75)"><g id="Group_51"><g id="responsive-design-laptop-1"><path id="Shape_282" class="platforms-st0" d="M501.6 523.8c-.8 1.4-2.6 1.9-4.1 1.1-.5-.3-.8-.6-1.1-1.1h-8.7v1.5c0 1.7 1.3 3 3 3h16.5c1.7 0 3-1.3 3-3v-1.5h-8.6z"/><path id="Shape_283" class="platforms-st0" d="M508.8 523.8v-4.6"/><path id="Shape_284" class="platforms-st0" d="M489.2 523.8v-9c0-1.7 1.3-3 3-3h9"/><path id="Rectangle-path_14" class="platforms-st0" d="M501.2 508c0-1.2 1-2.2 2.2-2.2h4.5c1.2 0 2.2 1 2.2 2.2v9c0 1.2-1 2.2-2.2 2.2h-4.5c-1.2 0-2.2-1-2.2-2.2v-9z"/><path id="Shape_285" class="platforms-st0" d="M510.2 516.2h-9"/><path id="Shape_286" class="platforms-st0" d="M510.2 508.8h-9"/></g></g></g></svg>
