<?xml version="1.0" encoding="utf-8"?>
<!-- Generator: Adobe Illustrator 25.0.0, SVG Export Plug-In . SVG Version: 6.00 Build 0)  -->
<svg version="1.1" id="Слой_1" xmlns="http://www.w3.org/2000/svg" xmlns:xlink="http://www.w3.org/1999/xlink" x="0px" y="0px"
	 viewBox="0 0 23.9 21.5" style="enable-background:new 0 0 23.9 21.5;" xml:space="preserve">
<g id="Plugin_Registration" transform="translate(-361 -366)" fill="none" stroke="currentColor" stroke-width="2">
	<path id="Прямоугольник_скругл._углы_973" class="st0" d="M375.5,373.1h7.2c0.6,0,1.2,0.5,1.2,1.1
		c0,0,0,0.1,0,0.1v11c0,0.6-0.5,1.2-1.1,1.2c0,0-0.1,0-0.1,0h-19.5c-0.6,0-1.2-0.5-1.2-1.1c0,0,0-0.1,0-0.1v-11
		c0-0.6,0.5-1.2,1.1-1.2c0,0,0.1,0,0.1,0h2.3"/>
	<path id="Прямоугольник_скругл._углы_971_копия" class="st0" d="M375.4,373.1v-5.2
		c0-0.5,0.2-0.9,0.5-0.9h4.5c0.3,0,0.5,0.4,0.5,0.9v4.8"/>
	<path id="Прямоугольник_скругл._углы_971_копия_2" class="st0" d="M365.5,373v-5.2
		c0-0.4,0.2-0.7,0.6-0.8h5.1c0.4,0.1,0.6,0.4,0.6,0.8V378"/>
	<path id="Path_326" class="st0" d="M368.6,378h9.6"/>
</g>
</svg>
