<?xml version="1.0" encoding="utf-8"?>
<!-- Generator: Adobe Illustrator 25.0.0, SVG Export Plug-In . SVG Version: 6.00 Build 0)  -->
<svg version="1.1" id="Слой_1" xmlns="http://www.w3.org/2000/svg" xmlns:xlink="http://www.w3.org/1999/xlink" x="0px" y="0px"
	 viewBox="0 0 21.3 20.9" style="enable-background:new 0 0 21.3 20.9;" xml:space="preserve">
<g id="Product_Registration" transform="translate(0.404 0.225)" fill="none" stroke="currentColor" stroke-width="2">
	<path id="Rectangle_1" class="st0" d="M2.3,5.8h16c0.8,0,1.5,0.7,1.5,1.5v10.9c0,0.8-0.7,1.5-1.5,1.5h-16c-0.8,0-1.5-0.7-1.5-1.5
		V7.3C0.8,6.5,1.4,5.8,2.3,5.8C2.3,5.8,2.3,5.8,2.3,5.8z"/>
	<path id="Path_328" class="st0" d="M0.9,6.4l2-4.9C3.1,1,3.6,0.7,4.1,0.8h12.3c0.5,0,1,0.3,1.2,0.8l2,4.9"/>
	<line id="Line_2" class="st0" x1="10.2" y1="5.8" x2="10.2" y2="0.8"/>
</g>
</svg>
