<svg version="1.1" id="Слой_1" xmlns="http://www.w3.org/2000/svg" x="0" y="0" viewBox="0 0 21.3 20.9" xml:space="preserve"><g id="Product_Registration" transform="translate(.404 .225)" fill="none" stroke="currentColor" stroke-width="2"><path id="Rectangle_1" d="M2.3 5.8h16c.8 0 1.5.7 1.5 1.5v10.9c0 .8-.7 1.5-1.5 1.5h-16c-.8 0-1.5-.7-1.5-1.5V7.3c0-.8.6-1.5 1.5-1.5 0 0 0 0 0 0z"/><path id="Path_328"  d="M.9 6.4l2-4.9c.2-.5.7-.8 1.2-.7h12.3c.5 0 1 .3 1.2.8l2 4.9"/><path id="Line_2"  d="M10.2 5.8v-5"/></g></svg>
