<svg version="1.1" id="Слой_1" xmlns="http://www.w3.org/2000/svg" x="0" y="0" viewBox="0 0 6.1 9.1" xml:space="preserve"><path id="Контур_503" d="M1.9 6.2v-.1c0-.4 0-.8.1-1.2.1-.3.2-.5.4-.7.1-.2.3-.3.5-.5.2-.1.3-.2.5-.4.2 0 .3-.2.4-.3.1-.1.1-.3.1-.5s0-.3-.1-.4c-.1-.2-.2-.3-.4-.3-.1-.1-.3-.1-.4-.1-.2 0-.3 0-.5.1-.2 0-.3.2-.4.3-.1.2-.1.3-.1.5H0c0-.5.1-1 .4-1.5C.7.7 1 .4 1.5.2 2 .1 2.5 0 3 0s1.1.1 1.6.3c.4.1.8.4 1.1.8.3.4.4.8.4 1.3 0 .3-.1.6-.2.9-.1.3-.3.5-.5.7-.2.2-.5.4-.7.6-.2.1-.4.2-.6.4-.1.1-.2.2-.3.4-.1.2-.1.5-.1.7v.2l-1.8-.1zm.9 2.9c-.3 0-.6-.1-.8-.3-.2-.3-.3-.5-.3-.8 0-.3.1-.6.3-.8.4-.4 1.1-.4 1.6 0 .2.2.3.5.3.8 0 .2-.1.4-.2.6 0 .1-.2.2-.3.3-.2.1-.4.2-.6.2z" fill="currentColor"/></svg>