<?xml version="1.0" encoding="utf-8"?>
<!-- Generator: Adobe Illustrator 25.0.0, SVG Export Plug-In . SVG Version: 6.00 Build 0)  -->
<svg version="1.1" id="Слой_1" xmlns="http://www.w3.org/2000/svg" xmlns:xlink="http://www.w3.org/1999/xlink" x="0px" y="0px"
	 viewBox="0 0 6.1 9.1" style="enable-background:new 0 0 6.1 9.1;" xml:space="preserve">
<style type="text/css">
	.question-mark-st0{fill:currentColor;}
</style>
<path id="Контур_503" class="question-mark-st0" d="M1.9,6.2V6.1c0-0.4,0-0.8,0.1-1.2c0.1-0.3,0.2-0.5,0.4-0.7C2.5,4,2.7,3.9,2.9,3.7
	c0.2-0.1,0.3-0.2,0.5-0.4C3.6,3.3,3.7,3.1,3.8,3c0.1-0.1,0.1-0.3,0.1-0.5c0-0.2,0-0.3-0.1-0.4C3.7,1.9,3.6,1.8,3.4,1.8
	C3.3,1.7,3.1,1.7,3,1.7c-0.2,0-0.3,0-0.5,0.1C2.3,1.8,2.2,2,2.1,2.1C2,2.3,2,2.4,2,2.6H0c0-0.5,0.1-1,0.4-1.5
	c0.3-0.4,0.6-0.7,1.1-0.9C2,0.1,2.5,0,3,0c0.5,0,1.1,0.1,1.6,0.3C5,0.4,5.4,0.7,5.7,1.1c0.3,0.4,0.4,0.8,0.4,1.3
	C6.1,2.7,6,3,5.9,3.3C5.8,3.6,5.6,3.8,5.4,4C5.2,4.2,4.9,4.4,4.7,4.6C4.5,4.7,4.3,4.8,4.1,5C4,5.1,3.9,5.2,3.8,5.4
	C3.7,5.6,3.7,5.9,3.7,6.1v0.2L1.9,6.2z M2.8,9.1C2.5,9.1,2.2,9,2,8.8C1.8,8.5,1.7,8.3,1.7,8c0-0.3,0.1-0.6,0.3-0.8
	c0.4-0.4,1.1-0.4,1.6,0C3.8,7.4,3.9,7.7,3.9,8c0,0.2-0.1,0.4-0.2,0.6C3.7,8.7,3.5,8.8,3.4,8.9C3.2,9,3,9.1,2.8,9.1z"/>
</svg>
