<?xml version="1.0" encoding="utf-8"?>
<!-- Generator: Adobe Illustrator 22.0.1, SVG Export Plug-In . SVG Version: 6.00 Build 0)  -->
<svg version="1.1" id="Layer_1" xmlns="http://www.w3.org/2000/svg" xmlns:xlink="http://www.w3.org/1999/xlink" x="0px" y="0px"
	 viewBox="0 0 14.2 14.3" style="enable-background:new 0 0 14.2 14.3;" xml:space="preserve">
<path id="rating-star-1" fill="none" stroke="#FEB933"  stroke-width="2" stroke-linecap="round" stroke-linejoin="round" d="M7.5,1.2l1.8,3.6l3.5,0.3c0.2,0,0.4,0.2,0.4,0.5c0,0.1-0.1,0.2-0.1,0.3l-2.9,2.9l1.1,3.9
	c0.1,0.2-0.1,0.5-0.3,0.5c-0.1,0-0.2,0-0.3,0l-3.5-1.8l-3.5,1.8c-0.2,0.1-0.5,0-0.6-0.2c0-0.1-0.1-0.2,0-0.3L4,8.8L1.1,6
	C1,5.8,1,5.5,1.1,5.3c0.1-0.1,0.2-0.1,0.3-0.1l3.5-0.3l1.8-3.6C6.8,1,7.1,0.9,7.3,1C7.4,1.1,7.4,1.2,7.5,1.2L7.5,1.2z"/>
</svg>
