<svg xmlns="http://www.w3.org/2000/svg" xmlns:xlink="http://www.w3.org/1999/xlink" viewBox="0 0 26 27"><defs><path id="resignation_svg__a" d="M.4.2h25v26H.4z"/></defs><clipPath id="resignation_svg__b"><use xlink:href="#resignation_svg__a" overflow="visible"/></clipPath><g clip-path="url(#resignation_svg__b)"><path d="M11 16.8h-.3c-3.4 0-5.6 2.2-7.5 7.2l-.6 1.5c0 .1-.1.3-.2.4-.1.1-.2.2-.4.2-.1.1-.3.1-.4.1-.2 0-.3 0-.4-.1-.3-.1-.5-.4-.6-.7-.1-.3-.1-.6 0-.9l.6-1.5c1.4-3.7 4-8.7 9.7-8.7h.1c2.3.1 1.4 2.5 0 2.5zm12 9l-3-2.9-3 2.9c-.3.3-.6.4-1 .4s-.7-.1-1-.4c-.3-.3-.4-.6-.4-1s.1-.7.4-1l3-2.9-3-2.9c-.1-.1-.2-.3-.3-.4-.1-.2-.1-.3-.1-.5s0-.4.1-.5c.1-.2.2-.3.3-.4.1-.1.3-.2.5-.3.2-.1.4-.1.5-.1.2 0 .4 0 .5.1.2.1.3.2.5.3l3 2.9 3-2.9c.3-.3.6-.4 1-.4s.7.1 1 .4c.3.3.4.6.4 1s-.1.7-.4 1l-3 2.9 3 2.9c.3.3.4.6.4 1s-.1.7-.4 1c-.3.3-.6.4-1 .4-.4-.2-.7-.3-1-.6zM12.9 4.1c-1.7 0-3.1 1.4-3.1 3.1 0 1.7 1.4 3.1 3.1 3.1S16 8.9 16 7.2c0-1.7-1.4-3.1-3.1-3.1zM7.8 7.2c0-2.8 2.3-5.1 5.1-5.1S18 4.3 18 7.2c0 2.8-2.3 5.1-5.1 5.1S7.8 10 7.8 7.2z"/></g></svg>