<svg xmlns="http://www.w3.org/2000/svg" viewBox="0 0 21 24"><path d="M8.6 22.1c0-.3.1-.7.3-.9.2-.3.5-.5.8-.6s.7-.2 1-.1.6.2.9.5c.2.2.4.5.5.9.1.3 0 .7-.1 1s-.3.6-.6.8-.6.3-.9.3c-.5 0-.9-.2-1.2-.5-.5-.5-.7-.9-.7-1.4zm0-5.9c0-.3.1-.7.3-.9.2-.3.5-.5.8-.6s.7-.2 1-.1.6.2.9.5c.2.2.4.5.5.9.1.3 0 .7-.1 1s-.3.6-.6.8c-.4.1-.8.2-1.1.2-.5 0-.9-.2-1.2-.5-.3-.4-.5-.8-.5-1.3zm0-5.8c0-.3.1-.7.3-.9.2-.3.5-.5.8-.6s.7-.2 1-.1.6.2.9.5a1.62 1.62 0 01.5.9c.1.3 0 .7-.1 1s-.3.6-.6.8-.6.3-.9.3c-.5 0-.9-.2-1.2-.5-.5-.5-.7-1-.7-1.4zm9.3.8l-7.6-7.5-7.6 7.5c-.3.3-.6.4-1 .4s-.7-.1-1-.4c-.1-.1-.2-.3-.3-.4-.1-.2-.1-.3-.1-.5s0-.4.1-.5c.1-.2.2-.3.3-.4L9.3.9c.3-.3.6-.4 1-.4s.7.1 1 .4l8.6 8.5c.1.1.2.3.3.4a.9.9 0 01.1.5c0 .2 0 .4-.1.5-.1.2-.2.3-.3.4-.3.3-.6.4-1 .4s-.7-.1-1-.4z"/></svg>