<svg xmlns="http://www.w3.org/2000/svg" xmlns:xlink="http://www.w3.org/1999/xlink" viewBox="0 0 23 19"><use xlink:href="#server_svg__serverB"/><use xlink:href="#server_svg__serverB" y="8"/><defs><path id="server_svg__serverB" d="M3.3 10.6c-1.7 0-3-1.3-3-3v-4c0-1.7 1.3-3 3-3h16c1.7 0 3 1.3 3 3v4c0 1.7-1.3 3-3 3h-16zm-1-6v2c0 1.1.9 2 2 2h14c1.1 0 2-.9 2-2v-2c0-1.1-.9-2-2-2h-14c-1.1 0-2 .9-2 2zm5 1a.94.94 0 011-1 .94.94 0 011 1 .94.94 0 01-1 1 .94.94 0 01-1-1zm-3 0a.94.94 0 011-1 .94.94 0 011 1 .94.94 0 01-1 1 .94.94 0 01-1-1z"/></defs></svg>