<?xml version="1.0" encoding="utf-8"?>
<svg version="1.1" id="Слой_1" xmlns="http://www.w3.org/2000/svg" xmlns:xlink="http://www.w3.org/1999/xlink" x="0px" y="0px"
	 viewBox="0 0 19.5 22.2" style="enable-background:new 0 0 19.5 22.2;" xml:space="preserve">
<g id="icon" transform="translate(0.441 1.212)">
	<path id="Shape_947" fill="none" stroke="currentColor" stroke-width="2" stroke-linecap="round" stroke-linejoin="round" d="M17.3,1.4c-5.1-2.2-10.8-2.2-15.9,0C0.9,1.6,0.6,2.1,0.6,2.7v6.8c0,4.4,2.7,8.4,6.9,10
		c1.1,0.7,2.6,0.7,3.7,0c4.2-1.6,6.9-5.6,6.9-10V2.7C18.1,2.1,17.8,1.6,17.3,1.4z"/>
	<path id="Shape_1761" fill="none" stroke="currentColor" stroke-width="2" stroke-linecap="round" stroke-linejoin="round" d="M5.7,9.9l1.7,2.4c0.2,0.3,0.7,0.4,1,0.2c0.1,0,0.1-0.1,0.2-0.2l5.5-7"/>
</g>
</svg>
