<svg version="1.1" xmlns="http://www.w3.org/2000/svg" x="0" y="0" viewBox="0 0 19.5 22.2" xml:space="preserve"><g id="icon" transform="translate(.441 1.212)" fill="none" stroke="currentColor" stroke-width="2" stroke-linecap="round" stroke-linejoin="round"><path id="Shape_947" d="M17.3 1.4C12.2-.8 6.5-.8 1.4 1.4c-.5.2-.8.7-.8 1.3v6.8c0 4.4 2.7 8.4 6.9 10 1.1.7 2.6.7 3.7 0 4.2-1.6 6.9-5.6 6.9-10V2.7c0-.6-.3-1.1-.8-1.3z"/><path id="Shape_1761" d="M5.7 9.9l1.7 2.4c.2.3.7.4 1 .2.1 0 .1-.1.2-.2l5.5-7"/></g></svg>
