<svg xmlns="http://www.w3.org/2000/svg" viewBox="0 0 25.95 25.955"><g id="Shops" transform="translate(-418.264 -354.759)"><g id="Group_38" data-name="Group 38" transform="translate(419.268 355.767)"><g id="e-commerce-cart" fill="none" stroke="currentColor" stroke-linecap="round" stroke-linejoin="round" stroke-width="2"><path id="Shape_229" data-name="Shape 229" d="M434.886 360.248l-2.4 7.991H426.1l-1.6-4.795h9.43" transform="translate(-419.098 -355.599)"/><path id="Shape_230" data-name="Shape 230" d="M426.4 370a.4.4 0 11-.4.4.4.4 0 01.4-.4" transform="translate(-418.957 -355.11)"/><path id="Shape_231" data-name="Shape 231" d="M431.648 370a.4.4 0 11-.4.4.4.4 0 01.4-.4" transform="translate(-418.715 -355.11)"/><path id="Shape_232" data-name="Shape 232" d="M432.928 375.484a10.168 10.168 0 116.18-6.413" transform="translate(-419.268 -355.767)"/><path id="Shape_233" data-name="Shape 233" d="M434.854 371.353l2.825 7.346 1.7-2.826 2.826-1.7-7.345-2.826z" transform="translate(-418.668 -355.166)"/><path id="Shape_234" data-name="Shape 234" d="M441.922 378.422L439.1 375.6" transform="translate(-418.39 -354.888)"/></g></g></g></svg>