<svg xmlns="http://www.w3.org/2000/svg" xmlns:xlink="http://www.w3.org/1999/xlink" viewBox="0 0 27 25"><defs><path id="sidebar_svg__a" d="M.4.9h26v24H.4z"/></defs><clipPath id="sidebar_svg__b"><use xlink:href="#sidebar_svg__a" overflow="visible"/></clipPath><g clip-path="url(#sidebar_svg__b)"><path d="M1.7 6.3h2.8C5 7.9 6.5 9 8.2 9c1.7 0 3.1-1.1 3.7-2.7h13.2c.7 0 1.3-.6 1.3-1.3s-.6-1.3-1.3-1.3H11.9C11.4 2.1 9.9 1 8.2 1 6.5.9 5.1 2 4.5 3.6H1.7C1 3.6.4 4.2.4 4.9S1 6.3 1.7 6.3zm6.5-2.7c.7 0 1.3.6 1.3 1.3s-.6 1.4-1.3 1.4-1.3-.6-1.3-1.4.6-1.3 1.3-1.3zm16.9 8h-1.5c-.5-1.6-2-2.7-3.7-2.7s-3.1 1.1-3.7 2.7H1.7c-.7 0-1.3.6-1.3 1.3 0 .7.6 1.3 1.3 1.3h14.5c.5 1.6 2 2.7 3.7 2.7s3.1-1.1 3.7-2.7h1.5c.7 0 1.3-.6 1.3-1.3 0-.7-.6-1.3-1.3-1.3zm-5.2 2.7c-.7 0-1.3-.6-1.3-1.3 0-.7.6-1.3 1.3-1.3s1.3.6 1.3 1.3c0 .7-.6 1.3-1.3 1.3zm5.2 5.3h-9.3c-.5-1.6-2-2.7-3.7-2.7-1.7 0-3.1 1.1-3.7 2.7H1.7c-.7 0-1.3.6-1.3 1.3 0 .7.6 1.3 1.3 1.3h6.7c.5 1.6 2 2.7 3.7 2.7 1.7 0 3.1-1.1 3.7-2.7h9.3c.7 0 1.3-.6 1.3-1.3 0-.7-.6-1.3-1.3-1.3zm-13 2.7c-.7 0-1.3-.6-1.3-1.3 0-.7.6-1.3 1.3-1.3s1.3.6 1.3 1.3c0 .7-.6 1.3-1.3 1.3z"/></g></svg>