<svg xmlns="http://www.w3.org/2000/svg" viewBox="0 0 24 25"><path d="M9.8 13.7c-4.8 0-6.7 4-7.9 6.6l-.3 1.1c-.2.3-.1.6 0 .9.1.3.3.5.6.6.3.2.6.1.9 0 .3-.1.6-.3.6-.7l.3-1.1c.8-1.9 1.7-3.1 2.6-4 .9-.8 2-1.2 3.2-1.2h3.3c.2 0 .4 0 .7.1h.1c.2 0 .4.1.6.1.5 0 1-.1 1.3-.6.3-.6 0-1.3-.6-1.6-.6-.1-1.1-.2-2.1-.2H9.8zm2.5-10c-1.7 0-3.1 1.4-3.1 3.1 0 1.7 1.4 3.1 3.1 3.1 1.7 0 3.1-1.4 3.1-3.1 0-1.7-1.4-3.1-3.1-3.1zM7.2 6.8c0-2.8 2.3-5.1 5.1-5.1s5.1 2.3 5.1 5.1-2.3 5.1-5.1 5.1c-2.8.1-5.1-2.3-5.1-5.1zm12 17.2c0 .1 0 .1 0 0-.2.2-.4.2-.6-.2L15 20.1c-.1 0-.2-.2-.2-.2 0-.1.1-.2.2-.2l3.6-3.7.2-.2c.2 0 .2.1.3.2l.6.6c.2.2.2.4 0 .6l-1.6 1.7c-.1-.1-.1-.1-.1 0 0 .2.1.2.2.2h5.1c.2 0 .3.2.3.4v.9c0 .2-.2.3-.4.3h-5c-.1 0-.2.1-.2.1-.1.1-.1.2 0 .3l1.6 1.7c.2.2.2.4 0 .6l-.4.6z"/></svg>