<svg xmlns="http://www.w3.org/2000/svg" viewBox="0 0 24.887 24.907">
  <g id="Social_Media" data-name="Social Media" transform="translate(-330.75 -95.75)">
    <g id="Group_4" data-name="Group 4">
      <g id="social-profile-network">
        <path id="Shape_11" data-name="Shape 11" d="M354.25,119.25l-3-4.5V109.5c0-2-3.8-4.139-5.25-5.25" fill="none" stroke="currentColor" stroke-linecap="round" stroke-linejoin="round" stroke-width="2"/>
        <path id="Shape_12" data-name="Shape 12" d="M347.93,110.794l-3.648-2.924a1.3,1.3,0,0,0-1.843,1.843l3.534,3.987v2.5c0,1.181,1.687,3.045,1.687,3.045" fill="none" stroke="currentColor" stroke-linecap="round" stroke-linejoin="round" stroke-width="2"/>
        <path id="Shape_13" data-name="Shape 13" d="M346,103.5v5.747" fill="none" stroke="currentColor" stroke-linecap="round" stroke-linejoin="round" stroke-width="2"/>
        <path id="Shape_14" data-name="Shape 14" d="M337,96.75h4.5" fill="none" stroke="currentColor" stroke-linecap="round" stroke-linejoin="round" stroke-width="2"/>
        <path id="Shape_15" data-name="Shape 15" d="M345.973,115.476a2.75,2.75,0,0,1-2.706,2.274h-6.534A2.731,2.731,0,0,1,334,115.017V111" fill="none" stroke="currentColor" stroke-linecap="round" stroke-linejoin="round" stroke-width="2"/>
        <path id="Shape_16" data-name="Shape 16" d="M334,113.25h6" fill="none" stroke="currentColor" stroke-linecap="round" stroke-linejoin="round" stroke-width="2"/>
        <path id="Oval_2" data-name="Oval 2" d="M333.25,108a1.5,1.5,0,1,0-1.5-1.5A1.5,1.5,0,0,0,333.25,108Z" fill="none" stroke="currentColor" stroke-linecap="round" stroke-linejoin="round" stroke-width="2"/>
        <path id="Oval_3" data-name="Oval 3" d="M333.25,99.75a1.5,1.5,0,1,0-1.5-1.5A1.5,1.5,0,0,0,333.25,99.75Z" fill="none" stroke="currentColor" stroke-linecap="round" stroke-linejoin="round" stroke-width="2"/>
        <path id="Oval_4" data-name="Oval 4" d="M345.25,101.25A2.25,2.25,0,1,0,343,99,2.25,2.25,0,0,0,345.25,101.25Z" fill="none" stroke="currentColor" stroke-linecap="round" stroke-linejoin="round" stroke-width="2"/>
        <path id="Shape_17" data-name="Shape 17" d="M334.47,99.123l2.859,2.859" fill="none" stroke="currentColor" stroke-linecap="round" stroke-linejoin="round" stroke-width="2"/>
        <path id="Shape_18" data-name="Shape 18" d="M343.378,100.248l-2.33,1.553" fill="none" stroke="currentColor" stroke-linecap="round" stroke-linejoin="round" stroke-width="2"/>
        <path id="Shape_19" data-name="Shape 19" d="M334.668,106.011l2.74-1.565" fill="none" stroke="currentColor" stroke-linecap="round" stroke-linejoin="round" stroke-width="2"/>
        <path id="Oval_5" data-name="Oval 5" d="M339.25,105.4a2.25,2.25,0,1,0-2.25-2.25A2.25,2.25,0,0,0,339.25,105.4Z" fill="none" stroke="currentColor" stroke-linecap="round" stroke-linejoin="round" stroke-width="2"/>
      </g>
    </g>
  </g>
</svg>
