<svg xmlns="http://www.w3.org/2000/svg" viewBox="0 0 29.2 25.1"><style>.speech-balloons-st0{fill:none;stroke:currentColor;stroke-width:2;stroke-linecap:round;stroke-linejoin:round}</style><g id="speech-balloons" transform="translate(1.013 1.047)"><path id="path11-1" class="speech-balloons-st0" d="M8.7 15.3c-.4-3.1 3.1-9.2 9.2-9-.5-2.2-1.9-4-3.9-5.1C11.4-.2 8.2-.5 5.4.5c-1.7.7-3.3 2-4.4 3.6C.1 5.6-.2 7.4.2 9.2c.5 1.9 1.7 3.6 3.4 4.6-.2.8-.6 1.7-.8 2.7 1-.5 2.1-1.1 3-1.6.9.2 1.9.4 2.9.4"/><path id="path13-81" class="speech-balloons-st0" d="M26.8 13.4c-.7-1.4-1.8-2.5-3.1-3.3-2.5-1.2-5.4-1.2-7.9 0-1.7.9-3 2.5-3.5 4.4-.3 1.4-.1 2.9.7 4.1 1.2 1.8 3.1 3 5.2 3.4 1.5.2 3 .1 4.5-.2.9.4 1.7.8 2.5 1.3l-.7-2.2c1-.6 1.8-1.5 2.3-2.5.6-1.6.6-3.4 0-5z"/></g></svg>