<svg xmlns="http://www.w3.org/2000/svg" viewBox="0 0 22 18.6"><style>.stacked-coins-st0{fill:none;stroke:currentColor;stroke-width:2;stroke-linecap:round;stroke-linejoin:round}</style><g id="crypto-currency-bitcoin-stack-coins" transform="translate(1 1)"><path id="Oval_38" class="stacked-coins-st0" d="M15.4 15.3c2.5 0 4.6-2.1 4.6-4.6 0-2.5-2.1-4.6-4.6-4.6-2.5 0-4.6 2.1-4.6 4.6 0 2.5 2 4.6 4.6 4.6z"/><path id="Shape_843" class="stacked-coins-st0" d="M6.9 12.4H2.1c-.4 0-.7.3-.7.7v2.8c0 .4.3.7.7.7H9"/><path id="Shape_844" class="stacked-coins-st0" d="M7.6 8.3H3.5c-.4 0-.7.3-.7.7v2.8c0 .4.3.7.7.7H7"/><path id="Shape_845" class="stacked-coins-st0" d="M9.7 4.1h-9c-.4 0-.7.3-.7.7v2.8c0 .4.3.7.7.7h6.9"/><path id="Shape_846" class="stacked-coins-st0" d="M12.4 3.5V.7c0-.4-.3-.7-.7-.7H2.1c-.4 0-.7.3-.7.7v2.8c0 .4.3.7.7.7"/></g></svg>