<svg xmlns="http://www.w3.org/2000/svg" viewBox="0 0 22 18.6"><g fill="none" stroke="currentColor" stroke-linecap="round" stroke-linejoin="round" stroke-width="2"><path d="M16.4 16.3c2.5 0 4.6-2.1 4.6-4.6 0-2.5-2.1-4.6-4.6-4.6-2.5 0-4.6 2.1-4.6 4.6 0 2.5 2 4.6 4.6 4.6zm-8.5-2.9H3.1c-.4 0-.7.3-.7.7v2.8c0 .4.3.7.7.7H10"/><path d="M8.6 9.3H4.5c-.4 0-.7.3-.7.7v2.8c0 .4.3.7.7.7H8m2.7-8.4h-9c-.4 0-.7.3-.7.7v2.8c0 .4.3.7.7.7h6.9"/><path d="M13.4 4.5V1.7c0-.4-.3-.7-.7-.7H3.1c-.4 0-.7.3-.7.7v2.8c0 .4.3.7.7.7"/></g></svg>