<svg xmlns="http://www.w3.org/2000/svg" xmlns:xlink="http://www.w3.org/1999/xlink" viewBox="0 0 23 22"><defs><path id="star-outline_svg__a" d="M.4.9h22v21H.4z"/></defs><clipPath id="star-outline_svg__b"><use xlink:href="#star-outline_svg__a" overflow="visible"/></clipPath><g clip-path="url(#star-outline_svg__b)"><path d="M20.4 8.5L14.9 8c-.4 0-.7-.3-.8-.6l-2-4.8c0-.1-.1-.2-.2-.3-.1-.1-.2-.2-.3-.2-.1-.1-.2-.1-.3-.1-.1 0-.2 0-.4.1s-.4.3-.5.5l-2 4.8c-.1.3-.4.5-.7.6l-5.5.5c-.6 0-1 .5-.9 1 0 .2.1.5.3.6l4.2 3.6c.3.2.4.6.3.9l-1.2 5.1c-.1.5.2 1 .7 1.1.2.1.5 0 .7-.1l4.6-2.7c.1-.1.3-.1.5-.1s.4.1.5.1l4.6 2.7c.5.3 1 .1 1.3-.3.1-.2.2-.5.1-.7l-1.2-5.1c-.1-.3 0-.7.3-.9l4.2-3.6c.4-.4.4-1 0-1.4-.3-.1-.5-.2-.8-.2z" fill="none" stroke="currentColor" stroke-width="2"/></g></svg>