<svg xmlns="http://www.w3.org/2000/svg" xmlns:xlink="http://www.w3.org/1999/xlink" viewBox="0 0 38 23"><defs><path id="stars_svg__a" d="M0 0h38v23H0z"/></defs><clipPath id="stars_svg__b"><use xlink:href="#stars_svg__a"/></clipPath><g clip-path="url(#stars_svg__b)" fill="none" stroke="currentColor" stroke-width="2"><path d="M21.1 8.5L15.6 8c-.4 0-.7-.3-.8-.6l-2-4.8a.88.88 0 00-1.2-.5c-.2.1-.4.3-.5.5l-2 4.8c-.1.3-.4.5-.7.6l-5.5.5c-.6 0-1 .5-.9 1 0 .2.1.5.3.6l4.2 3.6c.3.2.4.6.3.9l-1.2 5.1c-.1.5.2 1 .7 1.1.2.1.5 0 .7-.1l4.6-2.7a.91.91 0 011 0l4.6 2.7c.5.3 1 .1 1.3-.3.1-.2.2-.5.1-.7l-1.2-5.1c-.1-.3 0-.7.3-.9l4.2-3.6c.4-.4.4-1 0-1.4-.3-.1-.5-.2-.8-.2z"/><path d="M22.6 19.9l2.9-1.7a.91.91 0 011 0l4.6 2.7c.5.3 1 .1 1.3-.3.1-.2.2-.5.1-.7l-1.2-5.1c-.1-.3 0-.7.3-.9l4.2-3.6c.4-.4.4-1 0-1.4-.2-.2-.4-.3-.6-.3l-5.5-.5c-.4 0-.7-.3-.8-.6l-2-4.8a.88.88 0 00-1.2-.5c-.2.1-.4.3-.5.5L24 5.5" stroke-linecap="round"/></g></svg>