<svg version="1.1" id="Слой_1" xmlns="http://www.w3.org/2000/svg" x="0" y="0" viewBox="0 0 24.5 22.3" xml:space="preserve"><style>.stars-st0{fill:none;stroke:currentColor;stroke-width:2;stroke-linecap:round;stroke-linejoin:round}</style><g id="rating-star-winner" transform="translate(.271 -.871)"><path id="Контур_494" class="stars-st0" d="M18.8 12.4l1.3 2.3h2.5c.4 0 .7.3.7.7 0 .2-.1.4-.2.5l-2.3 2.5 1.3 2.9c.1.4 0 .8-.4.9-.2.1-.4.1-.6 0L18 20.3 14.9 22c-.3.2-.7.1-.9-.3-.1-.2-.1-.4 0-.6l1.2-2.8"/><path id="Контур_495" class="stars-st0" d="M5.2 12.4l-1.3 2.3H1.4c-.4 0-.7.3-.7.7 0 .2.1.4.2.5l2.3 2.5L2 21.2c-.1.4 0 .8.4.9.2.1.4.1.6 0l3-1.8L9.1 22c.3.2.7.1.9-.3.1-.2.1-.4 0-.6l-1.2-2.8"/><path id="Контур_496" class="stars-st0" d="M12.4 2.1l2 4 3.8.4c.3 0 .5.3.4.5 0 .1-.1.2-.1.3l-3.2 3.2 1.2 4.3c.1.3-.1.5-.3.6h-.3L12 13.5l-3.9 1.9c-.2.1-.5 0-.6-.2-.1-.1-.1-.2 0-.3l1.2-4.3-3.3-3.3c-.2-.2-.2-.5 0-.7.1-.1.2-.1.3-.1l3.8-.4 2-4c.1-.2.4-.3.6-.2.1.1.2.1.3.2z"/></g></svg>