<?xml version="1.0" encoding="utf-8"?>
<!-- Generator: Adobe Illustrator 25.0.0, SVG Export Plug-In . SVG Version: 6.00 Build 0)  -->
<svg version="1.1" id="Слой_1" xmlns="http://www.w3.org/2000/svg" xmlns:xlink="http://www.w3.org/1999/xlink" x="0px" y="0px"
	 viewBox="0 0 11.2 11.8" style="enable-background:new 0 0 11.2 11.8;" xml:space="preserve">
<style type="text/css">
	.st0{fill:none;stroke:#FFAE10;stroke-width:2;stroke-linecap:round;stroke-linejoin:round;}
</style>
<g id="STOPPING" transform="translate(-8.29 -8.151)">
	<path id="Shape_849" class="st0" d="M17,10l-2.2-0.7c-1.1-0.4-2.4,0.2-2.8,1.4C12,10.9,12,11.1,12,11.3v3.3l-1.3-1
		c-0.4-0.3-0.9-0.2-1.2,0.1c0,0,0,0,0,0.1l0,0c-0.2,0.3-0.2,0.6,0,0.9l1.9,2.8c0.6,0.9,1.7,1.5,2.8,1.5h1.6c0.7,0,1.4-0.3,1.9-0.8
		l0,0c0.5-0.5,0.8-1.2,0.8-1.9v-4.2C18.5,11.1,17.9,10.3,17,10z"/>
</g>
</svg>
