<svg xmlns="http://www.w3.org/2000/svg" viewBox="0 0 20.002 24.449">
  <g id="Trending" transform="translate(-284.998 -319.773)">
    <g id="Group_18" data-name="Group 18">
      <g id="trends-hot-flame">
        <path id="Shape_93" data-name="Shape 93" d="M299.846,334.222a4.338,4.338,0,0,1-4.154,4.5" fill="none" stroke="currentColor" stroke-linecap="round" stroke-linejoin="round" stroke-width="2"/>
        <path id="Shape_94" data-name="Shape 94" d="M295,343.222c-4.615,0-9-3.358-9-7.5a7.656,7.656,0,0,1,4.94-7.287.375.375,0,0,1,.515.382A4.815,4.815,0,0,0,293.1,333.1a.75.75,0,0,0,.992-.021c1.32-1.217,4.557-5.237-1.223-11.676a.375.375,0,0,1,.324-.623c5.428.667,10.807,6.791,10.807,12.692C304,338.472,301,343.222,295,343.222Z" fill="none" stroke="currentColor" stroke-linecap="round" stroke-linejoin="round" stroke-width="2"/>
      </g>
    </g>
  </g>
</svg>
