<?xml version="1.0" encoding="utf-8"?>
<!-- Generator: Adobe Illustrator 25.0.0, SVG Export Plug-In . SVG Version: 6.00 Build 0)  -->
<svg version="1.1" id="Слой_1" xmlns="http://www.w3.org/2000/svg" xmlns:xlink="http://www.w3.org/1999/xlink" x="0px" y="0px"
	 viewBox="0 0 7.6 12.9" style="enable-background:new 0 0 7.6 12.9;" xml:space="preserve">
<style type="text/css">
	.st0{fill:none;stroke:#212225;stroke-width:2;stroke-linecap:round;}
</style>
<g id="UNDEFINED" transform="translate(-9.997 -7.625)">
	<path id="Контур_323" class="st0" d="M11,11.1c0-0.5,0.1-1,0.4-1.4c0.2-0.4,0.6-0.7,1-0.8c0.4-0.2,0.9-0.3,1.4-0.3
		c0.5,0,1,0.1,1.4,0.3c0.4,0.2,0.7,0.5,1,0.8c0.2,0.4,0.4,0.8,0.4,1.3c0,0.3,0,0.6-0.2,0.9c-0.1,0.3-0.3,0.5-0.4,0.7
		c-0.2,0.2-0.4,0.4-0.7,0.5c-0.2,0.1-0.4,0.3-0.6,0.4c-0.1,0.2-0.3,0.3-0.3,0.5c-0.1,0.2-0.1,0.5-0.1,0.8v1.5"/>
	<path id="Контур_325" class="st0" d="M14.3,19.5L14.3,19.5"/>
</g>
</svg>
