<svg xmlns="http://www.w3.org/2000/svg" viewBox="0 0 20 20"><path d="M10.4 1.9c-4.3-.1-7.9 3.4-7.9 8 0 .5-.4.9-.9.8s-.9-.4-.8-.9C.9 4.4 5.1.1 10.5.2c2.7 0 5.2 1.1 7.1 3.1V2.1c0-.4.4-.9.9-.9.4 0 .9.4.9.9v3.6c0 .4-.3.8-.9.8H15c-.4 0-.9-.4-.9-.9 0-.4.4-.9.9-.9h1.6C15 3 12.7 1.9 10.4 1.9zm8.5 6.8c.5 0 .9.4.8.9-.1 5.3-4.4 9.6-9.7 9.5-2.8 0-5.4-1.2-7.3-3.3v1.3c.1.5-.3 1-.8 1-.4 0-.9-.4-.9-.9v-3.6c0-.4.3-.8.8-.9h3.5c.4 0 .9.4.9.9s-.4.9-.9.9H3.8l.1.1c1.6 1.9 3.8 2.9 6.2 2.9 4.3.1 7.9-3.4 7.9-7.9 0-.5.4-.9.9-.9z"/></svg>