<?xml version="1.0" encoding="utf-8"?>
<!-- Generator: Adobe Illustrator 25.1.0, SVG Export Plug-In . SVG Version: 6.00 Build 0)  -->
<svg version="1.1" id="Слой_1" xmlns="http://www.w3.org/2000/svg" xmlns:xlink="http://www.w3.org/1999/xlink" x="0px" y="0px"
	 viewBox="0 0 29.9 22.1" style="enable-background:new 0 0 29.9 22.1;" xml:space="preserve">
<style type="text/css">
	.upload-cloud-st0{fill:none;stroke:currentColor;stroke-width:2;}
</style>
<path id="Контур_619" class="upload-cloud-st0" d="M17,21.1h6.1c3.4,0,5.7-2.9,5.7-6.2c0.1-3.3-2.2-6.3-5.5-7c-0.2-4-3.5-7.1-7.5-6.9
	c0,0-0.1,0-0.1,0c-4.3,0-6.1,2.2-6.9,4.7C5.4,4.9,3.1,7.5,4,10.5c-1.6,0.6-3,2.7-3,5.3c-0.1,2.9,2.3,5.3,5.2,5.4c0,0,0.1,0,0.1,0
	h6.8v-6.2h-2.4c-0.5,0-0.9-0.4-0.3-1s3.7-4.1,4.1-4.5c0.5-0.4,0.8-0.6,1.4,0c0.3,0.3,3.5,3.6,4,4.2s0.5,1.2-0.4,1.2H17L17,21.1z"/>
</svg>
