<svg xmlns="http://www.w3.org/2000/svg" xmlns:xlink="http://www.w3.org/1999/xlink" viewBox="0 0 21 22"><defs><path id="user_svg__a" d="M.4.4h20.5V22H.4z"/></defs><clipPath id="user_svg__b"><use xlink:href="#user_svg__a" overflow="visible"/></clipPath><g clip-path="url(#user_svg__b)"><path d="M20 22c-.4 0-.7-.2-.9-.6l-.5-1.1c-1.5-3.9-3.5-5.6-6.2-5.6H8.8c-2.8 0-4.6 1.6-6.2 5.6l-.5 1.1c-.2.5-.7.7-1.2.5-.5-.2-.7-.7-.5-1.2l.5-1.1c1.1-2.9 3.3-6.8 8-6.8h3.5c4.7 0 6.8 3.9 8 6.8l.5 1.1c.2.5 0 1-.5 1.2-.2.1-.3.1-.4.1zM10.7 2.4C9 2.4 7.6 3.8 7.6 5.5c0 1.7 1.4 3.1 3.1 3.1 1.7 0 3.1-1.4 3.1-3.1-.1-1.7-1.4-3.1-3.1-3.1zM5.6 5.5C5.6 2.7 7.9.4 10.7.4s5.1 2.3 5.1 5.1-2.3 5.1-5.1 5.1c-2.9.1-5.1-2.2-5.1-5.1z"/></g></svg>