<svg xmlns="http://www.w3.org/2000/svg" xmlns:xlink="http://www.w3.org/1999/xlink" viewBox="0 0 31 22"><defs><path id="user-team_svg__a" d="M.2.4h30.7V22H.2z"/></defs><clipPath id="user-team_svg__b"><use xlink:href="#user-team_svg__a" overflow="visible"/></clipPath><g clip-path="url(#user-team_svg__b)"><path d="M20.9 22c-.4 0-.7-.2-.9-.6l-.5-1.1c-1.5-3.9-3.5-5.6-6.2-5.6H9.8c-2.8 0-4.6 1.6-6.2 5.6L3 21.4c-.2.5-.7.7-1.2.5-.5-.2-.7-.7-.5-1.2l.5-1.1c1.1-2.9 3.3-6.8 8-6.8h3.5c4.7 0 6.8 3.9 8 6.8l.5 1.1c.2.5 0 1-.5 1.2-.2.1-.3.1-.4.1zM11.6 2.4c-1.7 0-3.1 1.4-3.1 3.1 0 1.7 1.4 3.1 3.1 3.1 1.7 0 3.1-1.4 3.1-3.1 0-1.7-1.4-3.1-3.1-3.1zM6.5 5.5C6.5 2.7 8.8.4 11.6.4s5.1 2.3 5.1 5.1-2.3 5.1-5.1 5.1c-2.8.1-5.1-2.2-5.1-5.1zm16.1-2.8c-2.1 0-3.9 1.7-3.9 3.9s1.7 3.9 3.9 3.9 3.9-1.7 3.9-3.9-1.8-3.9-3.9-3.9zm-2.1 3.9c0-1.1.9-2.1 2.1-2.1 1.1 0 2.1.9 2.1 2.1 0 1.1-.9 2.1-2.1 2.1-1.2-.1-2.1-1-2.1-2.1zm.7 5h2.5c3.5 0 5 2.9 5.9 5l.4.8c.1.2.1.5 0 .7-.1.2-.2.4-.4.4-.1.1-.2.1-.3.1-.2 0-.3 0-.5-.1-.1-.1-.3-.2-.3-.4l-.4-.8c-.6-1.4-1.2-2.4-1.9-3-.7-.6-1.5-.9-2.5-.9h-2.6c-.1 0-.2 0-.3-.1-.1-.1-.2-.1-.3-.3-.1-.1-.1-.3-.1-.5s.1-.4.1-.5l.3-.3c.1-.1.2-.1.3-.1h.1z"/></g></svg>