<svg xmlns="http://www.w3.org/2000/svg" viewBox="0 0 24 28"><path d="M10.1 3.8c-.1-.1 0-.2.1-.2 4 0 6.9 1.2 8.8 3.3 2 2.1 3 5.2 3 9.3 0 .3.2.5.5.5s.5-.2.5-.5c0-4.2-1.1-7.6-3.3-9.9-2.2-2.3-5.4-3.6-9.5-3.6-.1 0-.2-.2-.1-.2l1-1s.1-.1.1-.2 0-.1-.1-.2l-.3-.3-.1-.1h-.2s-.1 0-.1.1L8.3 2.9l-.1.1c-.1.1 0 .1 0 .1 0 .1 0 .1.1.2l2.2 2.2c.1 0 .1.1.1.1.1 0 .1 0 .2-.1l.3-.3s0-.1.1-.1v-.2s0-.1-.1-.1l-1-1zM1 11.2c.3 0 .5.2.5.5 0 4 1 7.1 3 9.3 1.9 2.1 4.8 3.3 8.8 3.3.1 0 .2-.1.1-.2l-1-1s0-.1-.1-.1v-.2s0-.1.1-.1l.3-.3s.1-.1.2-.1c0 0 .1 0 .1.1l2.2 2.2s.1.1.1.2v.1s0 .1-.1.1L13 27.2l-.1.1h-.2s-.1 0-.1-.1l-.3-.3s-.1-.1-.1-.2 0-.1.1-.2l1-1c.1-.1 0-.2-.1-.2-4.2 0-7.4-1.3-9.5-3.6C1.5 19.3.4 15.9.4 11.8c.1-.4.3-.6.6-.6zm16.2 8.5c-.2 0-.4-.1-.5-.3l-.3-.6c-.8-2.1-1.8-2.9-3.3-2.9h-1.8c-1.5 0-2.4.9-3.3 2.9l-.3.6c-.1.3-.4.4-.6.3-.3-.1-.4-.4-.3-.6l.3-.6c.6-1.5 1.7-3.6 4.2-3.6h1.8c2.5 0 3.5 2.1 4.2 3.6l.3.6c.1.3 0 .5-.3.6h-.1zM10.7 11c0-.9.7-1.6 1.6-1.6.9 0 1.6.7 1.6 1.6s-.7 1.6-1.6 1.6c-.9.1-1.6-.7-1.6-1.6zm1.6-2.7c-1.5 0-2.7 1.2-2.7 2.7 0 1.5 1.2 2.7 2.7 2.7 1.5 0 2.7-1.2 2.7-2.7 0-1.5-1.2-2.7-2.7-2.7z"/></svg>