<svg xmlns="http://www.w3.org/2000/svg" viewBox="0 0 24.5 24.5"><style>.user-developer-st0{fill:none;stroke:currentColor;stroke-width:2;stroke-linecap:round;stroke-linejoin:round}</style><g id="Users_Geometric-Close-Up-Single-User-Actions-Neutral_single-neutral-actions-coding" transform="translate(-753.75 -2565.75)"><g id="Group_351"><g id="Regular_351"><path id="Shape_1406" class="user-developer-st0" d="M754.8 2583.2c0-3.7 3-6.8 6.8-6.7.9 0 1.8.2 2.6.5"/><path id="Oval_516" class="user-developer-st0" d="M761.5 2575c2.3 0 4.1-1.8 4.1-4.1s-1.8-4.1-4.1-4.1-4.1 1.8-4.1 4.1 1.8 4.1 4.1 4.1z"/><path id="Oval_517" class="user-developer-st0" d="M771.2 2589.2c3.3 0 6-2.7 6-6s-2.7-6-6-6-6 2.7-6 6 2.7 6 6 6z"/><path id="Shape_1407" class="user-developer-st0" d="M769.8 2581.8l-1.5 1.5 1.5 1.5"/><path id="Shape_1408" class="user-developer-st0" d="M772.8 2581.8l1.5 1.5-1.5 1.5"/></g></g></g></svg>