<svg version="1.1" xmlns="http://www.w3.org/2000/svg" x="0" y="0" viewBox="0 0 16.1 18.8" xml:space="preserve"><style>.user-verified-st0{fill:none;stroke:currentColor;stroke-width:2;stroke-linecap:round;stroke-linejoin:round}</style><g id="verifed" transform="translate(-657.75 -2564.75)"><g id="Regular_349" transform="translate(658.75 2565.75)"><path id="Shape_1401" class="user-verified-st0" d="M0 16.4c0-3.4 2.8-6.2 6.2-6.2.8 0 1.6.2 2.4.5"/><path id="Oval_513" class="user-verified-st0" d="M6.7 7.1c1.9 0 3.5-1.5 3.5-3.5S8.7 0 6.7 0C4.8 0 3.2 1.5 3.2 3.5 3.1 5.4 4.7 7 6.6 7.1h.1z"/><path id="Shape_1402" class="user-verified-st0" d="M13.7 12.9L11 16.5c-.2.3-.6.4-.9.2l-.1-.1c-.1 0-.1 0-.1-.1l-1.4-1.4"/></g></g></svg>
