<svg xmlns="http://www.w3.org/2000/svg" xmlns:xlink="http://www.w3.org/1999/xlink" viewBox="0 0 4 21"><defs><path id="vertical-dots_svg__a" d="M.4.7h3.3v20H.4z"/></defs><clipPath id="vertical-dots_svg__b"><use xlink:href="#vertical-dots_svg__a" overflow="visible"/></clipPath><g clip-path="url(#vertical-dots_svg__b)"><path d="M3.7 2.3c0 .4-.2.9-.5 1.2s-.7.5-1.1.5-.9-.2-1.2-.5C.6 3.2.4 2.8.4 2.3s.2-.9.5-1.2c.3-.3.7-.5 1.2-.5s.9.2 1.2.5c.3.4.4.8.4 1.2zm0 8.4c0 .4-.2.9-.5 1.2-.3.3-.7.5-1.2.5s-.9-.2-1.2-.5c-.3-.3-.5-.7-.5-1.2 0-.4.2-.9.5-1.2.4-.3.8-.5 1.3-.5s.9.2 1.2.5c.3.3.4.7.4 1.2zm0 8.3c0 .4-.2.9-.5 1.2-.3.3-.7.5-1.2.5s-.9-.2-1.2-.5c-.3-.3-.5-.7-.5-1.2 0-.4.2-.9.5-1.2.3-.3.7-.5 1.2-.5s.9.2 1.2.5c.4.3.5.8.5 1.2z"/></g></svg>