<svg xmlns="http://www.w3.org/2000/svg" width="22.97" height="15"><g id="Group_1" data-name="Group 1" transform="translate(-4003.999 -226)"><path id="Forma_1" data-name="Forma 1" d="M4026.823 233.042c-.206-.287-5.095-7.042-11.339-7.042s-11.134 6.755-11.339 7.042a.791.791 0 000 .916c.205.288 5.094 7.042 11.339 7.042s11.134-6.755 11.339-7.042a.792.792 0 000-.916zm-11.339 5.968c-4.515 0-8.426-4.153-9.583-5.51 1.156-1.359 5.059-5.509 9.583-5.509s8.425 4.152 9.583 5.51c-1.155 1.358-5.058 5.509-9.583 5.509z" fill="currentColor"/><g id="Эллипс_968" data-name="Эллипс 968" transform="translate(4012 230)" fill="currentColor" stroke="currentColor" stroke-width="2"><circle cx="3.5" cy="3.5" r="3.5" stroke="none"/><circle cx="3.5" cy="3.5" r="2.5" fill="none"/></g></g></svg>