<?xml version="1.0" encoding="utf-8"?>
<svg version="1.1" id="icon" xmlns="http://www.w3.org/2000/svg" xmlns:xlink="http://www.w3.org/1999/xlink" x="0px" y="0px"
	 viewBox="0 0 20 20" enable-background="new 0 0 20 20" xml:space="preserve">
<g>
	<path fill="none" stroke="currentColor" stroke-width="2" stroke-linecap="round" stroke-linejoin="round" d="M10,4.6
		C6.8,4.5,3.5,6.8,1.4,9.1c-0.5,0.5-0.5,1.3,0,1.8c2,2.3,5.4,4.6,8.6,4.5c3.3-0.1,6.5-2.3,8.6-4.5c0.5-0.5,0.5-1.3,0-1.8
		C16.5,6.8,13.2,4.5,10,4.6z"/>
	<path fill="none" stroke="currentColor" stroke-width="2" stroke-linecap="round" stroke-linejoin="round" d="M13,10c0,1.7-1.3,3-3,3
		s-3-1.3-3-3s1.3-3,3-3C11.2,7,13,7.7,13,10z"/>
</g>
</svg>
