<svg xmlns="http://www.w3.org/2000/svg" viewBox="0 0 29 29"><path d="M11.3 5.9h7.5l-1.5-2.3-6 2.3zm10 .1c1.9.3 3.4 2 3.4 3.9v1.8c1.5.2 2.6 1.5 2.6 3v3.7c0 1.5-1.1 2.8-2.6 3v1.8c0 2.2-1.8 4-4 4h-15c-2.2 0-4-1.8-4-4V10c0-2.2 1.8-4 4-4h.1l10.8-4.2c.9-.3 1.9 0 2.4.8L21.3 6zm-.7 2h-15c-1.1 0-2 .9-2 2v13.3c0 1.1.9 2 2 2h15c1.1 0 2-.9 2-2v-1.8h-1.4c-1.7 0-3-1.3-3-3v-3.7c0-1.7 1.3-3 3-3h1.4V10c0-1.1-.9-2-2-2zm4.1 5.9c-.1 0-.1 0 0 0l-3.4-.1c-.6 0-1 .4-1 1v3.7c0 .6.4 1 1 1l3.4-.1c.4-.2.6-.5.6-.9v-3.7c-.1-.4-.3-.7-.6-.9z"/></svg>