<svg xmlns="http://www.w3.org/2000/svg" viewBox="0 0 22.414 21.956"><g fill="none" stroke="currentColor" stroke-linecap="round" stroke-linejoin="round" stroke-width="2"><path d="M20.05 16.873v1.361a2.722 2.722 0 01-2.722 2.722H3.722A2.722 2.722 0 011 18.234V8.708a2.722 2.722 0 012.722-2.722h13.609a2.722 2.722 0 012.722 2.722v1.361m-2.722-4.084L15.218 1.76a1.36 1.36 0 00-1.826-.609l-9.67 4.834"/><path d="M20.053 16.869a1.361 1.361 0 001.361-1.361v-4.083a1.361 1.361 0 00-1.361-1.356h-3.4a3.4 3.4 0 100 6.8z"/><path d="M16.65 13.131a.34.34 0 11-.34.34.34.34 0 01.34-.34"/></g></svg>
