<svg xmlns="http://www.w3.org/2000/svg" width="16" height="15"><g id="icon" transform="translate(-3883 -226)" stroke="currentColor" stroke-width="2"><g id="Прямоугольник_скругл._углы_979" data-name="Прямоугольник, скругл. углы 979" transform="translate(3891 230)" fill="currentColor"><rect width="8" height="6" rx="1" stroke="none"/><path fill="none" d="M1 1h6v4H1z"/></g><g id="Прямоугольник_скругл._углы_978" data-name="Прямоугольник, скругл. углы 978" fill="none"><path d="M1 0h12a3 3 0 013 3v9a3 3 0 01-3 3H1a1 1 0 01-1-1V1a1 1 0 011-1z" stroke="none" transform="translate(3883 226)"/><path d="M1 1h12a2 2 0 012 2v9a2 2 0 01-2 2H1h0V1h0z" transform="translate(3883 226)"/></g></g></svg>