<svg version="1.1" id="Слой_1" xmlns="http://www.w3.org/2000/svg" x="0" y="0" viewBox="0 0 20 20" xml:space="preserve"><style>.wallet-st0{fill:none;stroke:currentColor;stroke-width:2;stroke-linecap:round;stroke-linejoin:round}</style><g id="Recipients_Wallets_Balance" transform="translate(82.309 35.988)"><g id="Group_29" transform="translate(588.75 290.012)"><g id="money-wallet"><path id="Shape_185" class="wallet-st0" d="M-653.3-310.8v1.2c0 1.3-1 2.4-2.4 2.4h-12c-1.3 0-2.4-1-2.4-2.4v-8.5c0-1.3 1-2.4 2.4-2.4h11.9c1.3 0 2.4 1 2.4 2.4v1.2"/><path id="Shape_186" class="wallet-st0" d="M-655.9-320.9l-1.7-3.3c-.3-.6-1-.8-1.6-.5l-7.8 3.8"/><path id="Shape_187" class="wallet-st0" d="M-653.3-310.8c.6 0 1.2-.5 1.2-1.2v-3.6c0-.6-.5-1.2-1.2-1.2h-3c-1.7 0-3 1.3-3 3s1.3 3 3 3h3z"/><path id="Shape_188" class="wallet-st0" d="M-656.3-314.1c.2 0 .3.1.3.3 0 .2-.1.3-.3.3s-.3-.2-.3-.3.1-.3.3-.3"/></g></g></g></svg>