<svg xmlns="http://www.w3.org/2000/svg" id="what-is-next" viewBox="0 0 24.5 24.5"><g fill="none" stroke="currentColor" stroke-linecap="round" stroke-linejoin="round" stroke-width="2" transform="translate(-446.755 -2106.75)"><path d="M450.005 2130.25a2.25 2.25 0 10-2.25-2.25 2.25 2.25 0 002.25 2.25zm1.679-3.75l2.07-1.5"/><path id="Oval_126" data-name="Oval 126" d="M450.005 2112.25a2.25 2.25 0 10-2.25-2.25 2.25 2.25 0 002.25 2.25z"/><path d="M451.684 2111.5l2.07 1.5m14.251 17.25a2.25 2.25 0 10-2.25-2.25 2.25 2.25 0 002.25 2.25zm-1.678-3.75l-2.07-1.5m3.748-12.75a2.25 2.25 0 10-2.25-2.25 2.25 2.25 0 002.25 2.25zm-1.678-.75l-2.07 1.5m-5.252 11.25a.375.375 0 11-.375.375.375.375 0 01.375-.375m-3-7.5a3 3 0 114 2.829 1.5 1.5 0 00-1 1.415v.631"/></g></svg>