<svg xmlns="http://www.w3.org/2000/svg" viewBox="0 0 24.5 24.5">
  <g id="Interface-Essential_Help_help-question-network" data-name="Interface-Essential / Help / help-question-network" transform="translate(-446.755 -2106.75)">
    <g id="Group_200" data-name="Group 200">
      <g id="help-question-network">
        <path id="Oval_125" data-name="Oval 125" d="M450.005,2130.25a2.25,2.25,0,1,0-2.25-2.25A2.25,2.25,0,0,0,450.005,2130.25Z" fill="none" stroke="currentColor" stroke-linecap="round" stroke-linejoin="round" stroke-width="2"/>
        <path id="Shape_891" data-name="Shape 891" d="M451.684,2126.5l2.07-1.5" fill="none" stroke="currentColor" stroke-linecap="round" stroke-linejoin="round" stroke-width="2"/>
        <path id="Oval_126" data-name="Oval 126" d="M450.005,2112.25a2.25,2.25,0,1,0-2.25-2.25A2.25,2.25,0,0,0,450.005,2112.25Z" fill="none" stroke="currentColor" stroke-linecap="round" stroke-linejoin="round" stroke-width="2"/>
        <path id="Shape_892" data-name="Shape 892" d="M451.684,2111.5l2.07,1.5" fill="none" stroke="currentColor" stroke-linecap="round" stroke-linejoin="round" stroke-width="2"/>
        <path id="Oval_127" data-name="Oval 127" d="M468.005,2130.25a2.25,2.25,0,1,0-2.25-2.25A2.25,2.25,0,0,0,468.005,2130.25Z" fill="none" stroke="currentColor" stroke-linecap="round" stroke-linejoin="round" stroke-width="2"/>
        <path id="Shape_893" data-name="Shape 893" d="M466.327,2126.5l-2.07-1.5" fill="none" stroke="currentColor" stroke-linecap="round" stroke-linejoin="round" stroke-width="2"/>
        <path id="Oval_128" data-name="Oval 128" d="M468.005,2112.25a2.25,2.25,0,1,0-2.25-2.25A2.25,2.25,0,0,0,468.005,2112.25Z" fill="none" stroke="currentColor" stroke-linecap="round" stroke-linejoin="round" stroke-width="2"/>
        <path id="Shape_894" data-name="Shape 894" d="M466.327,2111.5l-2.07,1.5" fill="none" stroke="currentColor" stroke-linecap="round" stroke-linejoin="round" stroke-width="2"/>
        <path id="Shape_895" data-name="Shape 895" d="M459.005,2124.25a.375.375,0,1,1-.375.375.375.375,0,0,1,.375-.375" fill="none" stroke="currentColor" stroke-linecap="round" stroke-linejoin="round" stroke-width="2"/>
        <path id="Shape_896" data-name="Shape 896" d="M456.005,2116.75a3,3,0,1,1,4,2.829,1.5,1.5,0,0,0-1,1.415v.631" fill="none" stroke="currentColor" stroke-linecap="round" stroke-linejoin="round" stroke-width="2"/>
      </g>
    </g>
  </g>
</svg>
