<svg xmlns="http://www.w3.org/2000/svg" id="what-is-next" viewBox="0 0 24.5 24.5"><g transform="translate(-446.755 -2106.75)"><g><g fill="none" stroke="currentColor" stroke-linecap="round" stroke-linejoin="round" stroke-width="2"><path d="M450.005 2130.25a2.25 2.25 0 10-2.25-2.25 2.25 2.25 0 002.25 2.25z"/><path d="M451.684 2126.5l2.07-1.5"/><path id="Oval_126" data-name="Oval 126" d="M450.005 2112.25a2.25 2.25 0 10-2.25-2.25 2.25 2.25 0 002.25 2.25z"/><path d="M451.684 2111.5l2.07 1.5"/><path d="M468.005 2130.25a2.25 2.25 0 10-2.25-2.25 2.25 2.25 0 002.25 2.25z"/><path d="M466.327 2126.5l-2.07-1.5"/><path d="M468.005 2112.25a2.25 2.25 0 10-2.25-2.25 2.25 2.25 0 002.25 2.25z"/><path d="M466.327 2111.5l-2.07 1.5"/><path d="M459.005 2124.25a.375.375 0 11-.375.375.375.375 0 01.375-.375"/><path d="M456.005 2116.75a3 3 0 114 2.829 1.5 1.5 0 00-1 1.415v.631"/></g></g></g></svg>