<svg xmlns="http://www.w3.org/2000/svg" viewBox="0 0 55 61.5"><path d="M33.3 31.5c5.4.7 9.1 4.6 12.4 12.6l6 14.8c.3.7.9 1.1 1.6 1.1.2 0 .4 0 .7-.1.9-.4 1.3-1.4 1-2.3l-6-14.8c-1.8-4.6-3.8-7.8-6.1-10.2-2.8-2.9-6.6-4.6-10.6-4.7h-9.5c-4 .1-7.8 1.8-10.6 4.7-2.3 2.4-4.3 5.7-6.1 10.2l-6 14.8c-.4.9 0 1.9.9 2.3s1.9 0 2.3-.9v-.1l6-14.8c3.2-8 7-11.9 12.4-12.6h11.6zm4.9 11.3c-1 0-1.7-.8-1.7-1.7v-.3c0-1 .8-1.7 1.7-1.7s1.7.8 1.7 1.7v.2c0 1-.7 1.8-1.7 1.8z" fill="currentColor"/><path d="M32 41.1l1.4-6.6-3.5-.1-1 4.9h-2.6l-1-4.9-3.5.1 1.4 6.6-1.7 15.5a1.62 1.62 0 00.6 1.5l3.8 3.1c.3.2.7.4 1.1.4h1.3c.4 0 .8-.1 1.1-.4l3.8-3.1c.5-.4.7-1 .6-1.5L32 41.1zM27.6 58h-.1l-2.6-2 1.5-13.2h2.3L30.1 56l-2.5 2z" fill="#c9292c"/><path d="M27.5 0C21.1 0 16 5.2 16 11.5c0 6.4 5.2 11.6 11.5 11.6S39 17.9 39 11.5C39 5.2 33.9 0 27.5 0zm.1 18.9c-4.1 0-7.3-3.3-7.3-7.3s3.3-7.3 7.3-7.3S35 7.5 35 11.5s-3.3 7.4-7.4 7.4z" fill="currentColor"/></svg>