<svg xmlns="http://www.w3.org/2000/svg" viewBox="0 0 52 67"><path d="M1.7 57.6c-.2 0-.4 0-.6-.1-.9-.3-1.3-1.3-.9-2.2l5.7-14.2c1.3-3.6 3.3-6.9 5.9-9.8 2.9-3 6.8-4.6 10.9-4.5h7.6c5.8 0 10.4 2.7 13.9 8.4.5.8.2 1.8-.5 2.3s-1.8.2-2.3-.5c-2-3.1-4.2-5.1-6.9-6.1l-6.6 9c-.5.7-1.6.9-2.3.4-.1-.1-.3-.2-.4-.4l-6.6-9c-4 1.4-7 5.1-9.6 11.6l-5.8 14c-.2.7-.9 1.1-1.5 1.1zm20.5-27.5l4.3 5.9 4.3-5.9h-8.6z" fill="currentColor"/><path d="M43.6 67H29.4c-.9 0-1.7-.7-1.7-1.7v-17c0-.9.7-1.7 1.7-1.7h1.3c.9 0 1.7.8 1.7 1.7 0 .8-.5 1.4-1.3 1.6v13.7H42c.3-.9 1.3-1.3 2.2-.9.6.3 1 .9 1 1.5v1a1.58 1.58 0 01-1.6 1.8zm6.7-6.4H36.2c-.9 0-1.7-.7-1.7-1.7v-17c0-.9.7-1.7 1.7-1.7h14.1c.9 0 1.7.7 1.7 1.7v17c0 1-.7 1.7-1.7 1.7zm-12.4-3.3h10.8V43.6H37.9v13.7zm6-2.3h-1.3c-.9 0-1.7-.8-1.7-1.7s.7-1.6 1.7-1.7h1.3c.9.1 1.6.9 1.6 1.8-.1.9-.7 1.5-1.6 1.6zm.7-5.8h-2.7c-.9 0-1.7-.8-1.7-1.7s.7-1.6 1.7-1.7h2.7c.9 0 1.7.7 1.7 1.7s-.8 1.7-1.7 1.7z" fill="#c9292c"/><path d="M26.5 0c-6.1 0-11 4.9-11 11s4.9 11 11 11 11-4.9 11-11c0-6-4.9-11-11-11zm.1 18.1c-3.9 0-7-3.1-7-7s3.1-7 7-7 7 3.1 7 7-3.1 7-7 7z" fill="currentColor"/></svg>