<svg xmlns="http://www.w3.org/2000/svg" viewBox="0 0 66 59"><path d="M29.1 59c-9.3 0-18-4.5-23.5-12-.1-.1-.2-.2-.2-.3-7.3-10.3-7.3-24 0-34.3.1-.1.1-.2.2-.3C11.1 4.5 19.8 0 29.1 0c11.7 0 22.2 7.1 26.8 17.8.4.8 0 1.8-.8 2.1-.8.4-1.8 0-2.1-.8-.6-1.4-1.3-2.8-2.2-4.1-3.3 1-6.6 1.8-10 2.3.3 1.9.6 3.8.8 5.8.1 1.5-3.1 1.7-3.2.3-.2-2-.4-4-.8-5.7-5.6.6-11.3.6-16.8 0-.6 3.3-1 6.7-1 10V31s-.3 3.2 1 10c.2 1.2.6 2.7.7 3.2 1.8 7.1 4.9 11.4 7.7 11.4 1.9.4 1.5 3.4-.1 3.4zM9.6 46.7c3.4 4 7.9 6.8 12.9 8.2-1.1-1.6-2-3.3-2.7-5-.6-1.6-1.2-3.3-1.6-5-2.9.3-5.8 1-8.6 1.8zM3.3 31.1c.3 4.6 1.7 9 4.2 12.8 3.3-1 6.6-1.8 10-2.3-.6-3.5-1-7-1.1-10.5H3.3zm0-3.2h13.2c.1-3.5.4-7 1.1-10.5-3.4-.5-6.7-1.3-10-2.3-2.6 3.8-4.1 8.2-4.3 12.8zm18.1-13.3a79.24 79.24 0 0015.4 0c-1.8-7-4.9-11.3-7.7-11.3s-5.8 4.3-7.7 11.3zM35.8 4.1c1.1 1.6 2 3.3 2.7 5 .6 1.6 1.2 3.3 1.6 5 2.9-.4 5.8-1.1 8.6-1.9-3.4-3.9-7.9-6.7-12.9-8.1zM9.6 12.3c2.8.8 5.7 1.5 8.6 1.9.4-1.7 1-3.4 1.6-5 .7-1.8 1.6-3.5 2.7-5-5.1 1.3-9.5 4.2-12.9 8.1z" fill="currentColor"/><path d="M59.7 33.4l.1-4.8c0-.9-.5-1.8-1.3-2.2a2.44 2.44 0 00-2.6 0c-7.8 4.4-7.4 3.4-16.3 4.1-.1 0-4.6.1-4.6.1-2 0-3.7 1.5-3.9 3.5h-1.7a3.33 3.33 0 00-3.3 3.3L26 40c0 1.8 1.4 3.2 3.2 3.2H31c.2 1.4 1 2.6 2.3 3.1l3.1 9c.4 1 1.3 1.7 2.4 1.7h2.3a2.61 2.61 0 002.1-1.1c.5-.7.6-1.5.3-2.3l-2.3-6.7c8.2.8 7.2.5 14.4 4.5.4.2.8.3 1.3.3a2.65 2.65 0 002.6-2.6l.1-1.3c3.7-.5 6.4-3.6 6.4-7.3 0-3.6-2.7-6.7-6.3-7.1zm-28.8 7.4h-1.6a.68.68 0 01-.7-.7v-2.7c0-.4.3-.7.8-.8H31l-.1 4.2zm3.4 3.3c-.5-.2-.8-.7-.8-1.3l.1-8.3c0-.8.6-1.4 1.4-1.4h3.3l-.1 11.1h-3.4c-.2 0-.4-.1-.5-.1zm6.8 10.3c0 .1 0 .1 0 0l-2.4.1-2.7-7.8h2.4l2.7 7.7zM57 49.1c-.1.1-.1.1 0 0-7.9-4.2-7.4-4.1-16.3-4.8l.1-11.4c8.9-.9 8.5 0 16.3-4.3h.1L57 49.1zm2.6-3.8l.1-9.4c2.2.4 3.8 2.4 3.8 4.6-.1 2.3-1.7 4.3-3.9 4.8z" fill="#c9292c"/></svg>