<svg xmlns="http://www.w3.org/2000/svg" viewBox="0 0 48 59"><path d="M46.5 59h-45A1.54 1.54 0 010 57.5V29.3c0-.1 0-.3.1-.4.1-.2.2-.4.3-.5a1.1 1.1 0 011-.6h6.9l.9-5.8c.1-.7.7-1.3 1.5-1.3h26.5c.7 0 1.4.5 1.5 1.3l.9 5.8h6.9c.2 0 .4.1.6.1.4.2.6.5.8.9 0 .1.1.3.1.4v28.2c0 .9-.7 1.6-1.5 1.6zM3 56h42V32.5L28.5 45.6V47a1.54 1.54 0 01-1.5 1.5h-6a1.54 1.54 0 01-1.5-1.5v-1.7L3 32.4V56zm19.5-10.5h2.9v-2.7h-2.9v2.7zM21 39.9h6a1.54 1.54 0 011.5 1.5v.4l13.7-11H5.9l13.7 10.7v-.2c-.1-.8.6-1.4 1.4-1.4zm-9.6-12.1h25.2l-.6-4H12l-.6 4z" fill="currentColor"/><path d="M1.5 24.4A1.54 1.54 0 010 22.9V1.5A1.54 1.54 0 011.5 0h8.3a1.54 1.54 0 011.5 1.5V5h6.8a1.54 1.54 0 011.5 1.5v2.7h6.8a1.54 1.54 0 011.5 1.5v5.8a1.54 1.54 0 01-1.5 1.5 1.54 1.54 0 01-1.5-1.5v-4.3h-5.3v4.3c0 .8-.7 1.5-1.6 1.5a1.54 1.54 0 01-1.5-1.5V8h-5.3v8.5A1.54 1.54 0 019.7 18a1.54 1.54 0 01-1.5-1.5V3H3v19.9a1.47 1.47 0 01-1.5 1.5z" fill="#c9292c"/></svg>