<svg xmlns="http://www.w3.org/2000/svg" viewBox="0 0 43 61"><path d="M21.3 32.6c5.2.1 9.5-4 9.6-9.1V23c0-1.3-.7-3.8-1.2-5l-2.4.3c-1.9.3-3.9.5-5.8.5s-3.9-.2-5.8-.5l-2.3-.4c-.5 1.2-1.3 3.8-1.3 5.2-.1 5.1 4 9.4 9.2 9.5zm-6.1-11.5a33.6 33.6 0 006.3.6c2.1 0 4.2-.2 6.3-.5.2.6.3 1.2.2 1.9v.3c-.1 3.6-3.1 6.5-6.7 6.4S14.9 26.6 15 23c0-.6.1-1.3.2-1.9zM42.9 59L39 49.1a26.12 26.12 0 00-5-8.5c-2.4-2.6-5.8-4-9.3-4h-6.5c-3.5-.1-6.9 1.4-9.3 4a26.12 26.12 0 00-5 8.5L.1 59c-.3.7.1 1.6.8 1.9.7.3 1.5-.1 1.8-.8l3.9-9.9c2.2-5.5 4.7-8.7 7.9-10l5.6 7.8v7.5c0 .8.7 1.4 1.5 1.4s1.4-.7 1.4-1.5V48l5.6-7.8c3.3 1.3 5.7 4.5 7.9 10l3.9 9.9c.2.5.7.9 1.3.9.2 0 .4 0 .5-.1.6-.3 1-1.2.7-1.9zM21.5 45.1l-3.9-5.5h7.9l-4 5.5z" fill="currentColor"/><path d="M12.9 14.2l-.3-4.4-7-2.2c-.7-.3-1.1-1.1-.9-1.9.1-.4.5-.8.9-.9L21 .1a1.1 1.1 0 01.8 0l15.4 4.7c.4.1.7.3.8.7.1.1.1.2.1.3s.1.3.1.4v6.1c0 .8-.6 1.4-1.4 1.4s-1.4-.6-1.4-1.4V8.1l-5.2 1.6-.2 4.5c0 1.2-1.7 1.8-2.3 1.9-2.1.3-4.2.5-6.3.5a33.6 33.6 0 01-6.3-.6c-.6-.2-2-.6-2.2-1.8zm2.8-.9c1.9.3 3.8.5 5.8.5 1.9 0 3.9-.1 5.8-.5l.2-2.7-5.6 1.7a1.1 1.1 0 01-.8 0l-5.6-1.7.2 2.7zm-1.2-6l7 2.2 7-2.2h.1L32 6.2 21.5 3 11 6.2l3.5 1.1z" fill="#c9292c"/></svg>