<svg xmlns="http://www.w3.org/2000/svg" viewBox="0 0 59 60"><path d="M57.6 60c-.6 0-1.1-.3-1.3-.9l-3.4-8.6c-1.8-4.4-3.8-6.6-6.6-7.1l-.7 3.4 1 9c.1.5-.1.9-.5 1.2l-2.2 1.8c-.2.2-.5.3-.9.3h-.8c-.3 0-.6-.1-.9-.3L39.1 57c-.4-.3-.6-.8-.5-1.2l1-9-.6-3.4c-2.8.5-4.8 2.7-6.6 7.1l-3.5 8.6c-.3.7-1.1 1-1.8.8-.7-.3-1-1.1-.8-1.8l3.5-8.6c1.5-3.7 4.2-8.7 10.1-8.9h5.6c5.9.2 8.6 5.2 10.1 8.9l3.4 8.6c.3.7 0 1.5-.8 1.8-.2.1-.4.1-.6.1zm-16.1-4.6l1.2.9 1.2-.9-.9-7.2h-.7l-.8 7.2zm.7-10h.9l.4-2.1h-1.8l.5 2.1zM1.4 60c-.2 0-.3 0-.5-.1-.7-.3-1-1.1-.8-1.8l3.4-8.5c1.5-3.8 4.3-8.8 10.4-8.8h4.5c3.3 0 6.3 1.6 8.1 4.4a3.91 3.91 0 00.4.5c.7.9.8 1.1.9 1.2.4.6.2 1.5-.4 1.9s-1.5.3-1.9-.4c-.1-.1-.6-.8-.8-1.1s-.4-.5-.4-.6c-.8-1.2-1.9-2.2-3.2-2.8l-3.8 5.2c-.3.4-.7.6-1.1.6s-.9-.2-1.1-.6L11.3 44c-2.1.9-3.8 3-5.2 6.6l-3.4 8.5c-.3.6-.8.9-1.3.9zm12.9-16.5l1.8 2.5 1.8-2.5h-3.6zM21.7 60H7.1c-.8 0-1.4-.6-1.4-1.4s.6-1.4 1.4-1.4h14.6c.8 0 1.4.6 1.4 1.4s-.7 1.4-1.4 1.4zm27.2-10.1c-.8 0-1.4-.6-1.4-1.4v-.2c0-.8.6-1.4 1.4-1.4s1.4.6 1.4 1.4v.2c0 .8-.6 1.4-1.4 1.4zM10.2 24c-.2 0-.5-.1-.7-.2-.4-.2-.7-.7-.7-1.2V10.1c0-2.4 1.9-4.4 4.3-4.4H18c.8 0 1.4.6 1.4 1.4s-.6 1.4-1.4 1.4h-4.9a1.58 1.58 0 00-1.6 1.6v10.1l1.9-1.1c.2-.1.4-.2.7-.2H26c.8 0 1.4.6 1.4 1.4s-.6 1.4-1.4 1.4H14.5l-3.6 2a1.08 1.08 0 01-.7.3zm7.6-10.3h-2.5c-.8 0-1.4-.6-1.4-1.4s.6-1.4 1.4-1.4h2.5c.7.2 1.2 1 1 1.7-.1.6-.5 1-1 1.1zm-1.7 11.1c-3.8 0-7 3.1-7 7 0 3.8 3.1 7 7 7s7-3.1 7-7-3.2-7-7-7zm.1 11.4c-2.4 0-4.4-2-4.4-4.4s2-4.4 4.4-4.4 4.4 2 4.4 4.4-2 4.4-4.4 4.4zm26.5-11.4c-3.8 0-7 3.1-7 7 0 3.8 3.1 7 7 7s7-3.1 7-7-3.2-7-7-7zm.1 11.4c-2.4 0-4.4-2-4.4-4.4s2-4.4 4.4-4.4 4.4 2 4.4 4.4-2 4.4-4.4 4.4z" fill="currentColor"/><path d="M42.7 21.1c-.4 0-.8-.2-1-.5L37.4 16h-11c-2.4 0-4.4-2-4.3-4.4V4.4C22 2 23.9 0 26.4 0h13.3c2.4 0 4.4 2 4.4 4.4v15.3c0 .6-.3 1.1-.9 1.3-.2.1-.4.1-.5.1zM26.4 2.8a1.58 1.58 0 00-1.6 1.6v7.2a1.58 1.58 0 001.6 1.6h11.7c.4 0 .8.2 1 .5l2.2 2.5V4.4a1.58 1.58 0 00-1.6-1.6H26.4zm10.9 5.3h-5.7c-.8 0-1.4-.7-1.3-1.4 0-.7.6-1.3 1.3-1.3h5.7c.8 0 1.4.6 1.4 1.4s-.6 1.3-1.4 1.3z" fill="#c9292c"/></svg>