<svg xmlns="http://www.w3.org/2000/svg" viewBox="0 0 53 59"><path d="M43.5 41h-4.1c-.8-.1-1.4-.8-1.4-1.6.1-.7.6-1.3 1.4-1.4h4.1c.8.1 1.4.8 1.4 1.6 0 .7-.6 1.3-1.4 1.4zm-3-6h-1c-.8 0-1.5-.7-1.5-1.6a1.54 1.54 0 011.5-1.5h1a1.54 1.54 0 011.5 1.5c0 .9-.7 1.6-1.5 1.6zm7-7h-8a1.54 1.54 0 01-1.5-1.5c0-.8.7-1.4 1.5-1.5h8a1.54 1.54 0 011.5 1.5 1.54 1.54 0 01-1.5 1.5zm-4-7h-4.1c-.8 0-1.5-.7-1.5-1.6 0-.8.7-1.4 1.5-1.5h4.1c.8 0 1.5.7 1.5 1.6a1.47 1.47 0 01-1.5 1.5zm8 27h-6.8c-.8 0-1.5-.6-1.5-1.4s.6-1.5 1.4-1.5H50V2.9H15v4.6A1.47 1.47 0 0113.5 9c-.8 0-1.5-.6-1.5-1.4V1.5A1.54 1.54 0 0113.5 0h38A1.54 1.54 0 0153 1.5v45.1c0 .7-.7 1.4-1.5 1.4z" fill="#c9292c"/><path d="M41 38.4v19.2a1.54 1.54 0 01-1.5 1.5h-38C.7 59 0 58.3 0 57.5v-45A1.54 1.54 0 011.5 11h38a1.47 1.47 0 011.5 1.5v25.9zM3 56.1h35V13.9H3v42.2zm24.6-2.8c-3.8 0-6.8-3.1-6.7-6.9 0-3.8 3.1-6.8 6.9-6.7 3.7 0 6.7 3.1 6.7 6.8 0 3.8-3.1 6.9-6.9 6.8zm0-10.7c-2.2 0-3.9 1.8-3.9 3.9 0 2.2 1.8 3.9 3.9 3.9s3.9-1.8 3.9-3.9-1.7-3.9-3.9-3.9zm-11.3.1H9a1.47 1.47 0 01-1.5-1.5c0-.9.6-1.5 1.5-1.5h7.2c.8-.2 1.6.3 1.8 1.1s-.2 1.6-1 1.8c-.2.2-.5.2-.7.1zm15.6-6.4H9a1.47 1.47 0 01-1.5-1.5c0-.9.6-1.5 1.5-1.5h22.9c.8 0 1.5.6 1.5 1.4s-.6 1.5-1.4 1.5c0 .1 0 .1-.1.1zm0-6.5H9a1.47 1.47 0 01-1.5-1.5c0-.9.6-1.5 1.5-1.5h22.9c.8 0 1.5.6 1.5 1.4s-.6 1.5-1.4 1.5c0 .1 0 .1-.1.1zm-15.6-6.5H9c-.8 0-1.5-.6-1.5-1.4s.6-1.5 1.4-1.5h7.3a1.54 1.54 0 011.5 1.5c0 .7-.6 1.4-1.4 1.4z" fill="currentColor"/></svg>