<svg xmlns="http://www.w3.org/2000/svg" viewBox="0 0 60 60"><path d="M59.1 1.8c-.1-.5-.5-.8-.9-1-5.2-1.3-10.6-1-15.5.8C38.7 3 35 5.3 32 8.3l-4.2 4.2-15.3 2.4c-.3 0-.5.2-.8.4l-9.8 9.8c-.5.5-.5 1.4 0 1.9.2.2.6.4.9.4l9.6.4-2.4 2.4c-.5.5-.5 1.4 0 1.9l1.4 1.4L7.2 40c-.4.5-.3 1.2.2 1.7l10.8 10.8c.5.5 1.2.5 1.7.2l6.5-4.2 1.4 1.4c.5.5 1.4.5 1.9 0l2.4-2.4.4 9.6c0 .5.4 1 .9 1.2a.9.9 0 00.5.1c.4 0 .7-.1 1-.4l9.8-9.8c.2-.2.3-.5.4-.8l2.4-15.3 4.2-4.2c3-3.1 5.2-6.7 6.7-10.7a25.28 25.28 0 00.7-15.4zM19.4 49.9l-9.3-9.3 3.3-5.1 4.6 4.6-.5.5c-.5.5-.6 1.4 0 1.9.5.5 1.4.6 1.9 0l.5-.5 4.6 4.6-5.1 3.3zm30.3-23.8l-9.2 9.2c-.5.5-.5 1.4 0 1.9s1.4.5 1.9 0l1.8-1.8-1.7 11.2-7.4 7.4-.4-9 3.8-3.8c.5-.5.6-1.4 0-1.9-.5-.5-1.4-.6-1.9 0l-7.8 7.8-6.9-6.9 16.4-16.4c.5-.5.5-1.4 0-1.9s-1.4-.5-1.9 0L19.9 38.2 13 31.3l7.8-7.8c.5-.5.5-1.4 0-1.9s-1.4-.5-1.9 0L15 25.2l-9-.4 7.3-7.3 11.2-1.8-1.8 1.8 1.9 1.9 9.2-9.2c3.8-3.8 12.7-9.4 22.8-7 2.5 10.2-3.1 19.1-6.9 22.9z" fill="currentColor"/><path d="M7.5 45.7c.5-.5.6-1.4 0-1.9-.5-.5-1.4-.6-1.9 0L.4 49c-.5.5-.5 1.4 0 1.9s1.4.5 1.9 0l5.2-5.2zm4.3 2.3c-.5-.5-1.4-.5-1.9 0l-7.3 7.3c-.5.5-.5 1.4 0 1.9s1.4.5 1.9 0l7.3-7.3c.5-.5.5-1.3 0-1.9 0 0-.1 0 0 0zm2.5 4.5l-5.2 5.2c-.5.5-.5 1.4 0 1.9s1.4.5 1.9 0l5.2-5.2c.5-.5.5-1.4 0-1.9s-1.4-.5-1.9 0z" fill="#c9292c"/></svg>