<svg xmlns="http://www.w3.org/2000/svg" viewBox="0 0 48 59"><path d="M47.5 28.4L17.4 58.5c-.6.6-1.6.6-2.1 0L.5 43.7c-.6-.6-.6-1.6 0-2.1l1.4-1.4c.6-.6 1.5-.6 2.1 0s.6 1.6 0 2.1l-.3.3 12.7 12.7 28-28-.4-.3c-.6-.6-.6-1.6 0-2.1.6-.6 1.6-.6 2.1 0l1.3 1.3c.7.6.7 1.6.1 2.2z" fill="#c9292c"/><path d="M47.6 17.4L17.4 47.6c-.6.6-1.6.6-2.1 0L.5 32.7c-.6-.6-.6-1.6 0-2.1L30.6.4c.6-.6 1.6-.6 2.1 0l14.8 14.8c.6.7.6 1.6.1 2.2zm-31.2 27l28-28L31.7 3.6l-28 28 12.7 12.8zM28.1 28c-2.2 2.2-5.8 2.3-8.1 0-2.2-2.2-2.3-5.8 0-8.1s5.8-2.3 8.1 0c2.2 2.3 2.2 5.9 0 8.1zm-6-5.9c-1 1-1.1 2.7 0 3.8 1 1 2.7 1.1 3.8 0 1-1 1.1-2.7 0-3.8-1-1-2.7-1-3.8 0zm13.3-7.4l-2.8 2.8a1.57 1.57 0 01-2.2 0c-.6-.6-.6-1.5 0-2.1l2.8-2.8a1.57 1.57 0 012.2 0c.6.6.6 1.6 0 2.1zM17.5 32.6l-2.8 2.8a1.57 1.57 0 01-2.2 0c-.6-.6-.6-1.5 0-2.1l2.8-2.8c.6-.6 1.5-.6 2.1 0 .7.6.7 1.6.1 2.1z" fill="currentColor"/></svg>