<svg xmlns="http://www.w3.org/2000/svg" viewBox="0 0 79.4 60"><path d="M75 60H2c-1.1 0-2-.9-2-2s.9-2 2-2h73c2.4 0 4.3-.4 4.3 2s-1.9 2-4.3 2zm-7.6-8.4h-22c-1.1 0-2-.9-2-2s.9-2 2-2h20V3.9H11.6v43.7h20c1.1 0 2 .9 2 2s-.9 2-2 2h-22c-1.1 0-2-.9-2-2V2c0-1.1.9-2 2-2h57.7c1.1 0 2 .9 2 2v47.7c0 1-.8 1.9-1.9 1.9zm-28.7 0h-.4c-1.1 0-2-.9-2-2s.9-2 2-2h.4c1.1 0 2 .9 2 2s-.9 2-2 2z" fill="currentColor"/><path d="M38.5 36.4c-.2 0-.4 0-.5-.1l-9.8-3c-.8-.3-1.4-1-1.4-1.9V17.2c0-1.1.9-2 2-2 .2 0 .4 0 .6.1l9.2 2.9 9.2-2.9c1-.3 2.1.2 2.5 1.3.1.2.1.4.1.6v14.2c0 .9-.6 1.6-1.4 1.9l-9.7 3h-.1c-.4.1-.5.1-.7.1zm2-14.7v10.1l5.8-1.8V19.9l-5.8 1.8zM30.7 30l5.8 1.8V21.7l-5.8-1.8V30z" fill="#c9292c"/></svg>