<svg xmlns="http://www.w3.org/2000/svg" viewBox="0 0 59 59"><path d="M23.6 58.8c-.2 0-.4 0-.6-.1l-4.7-2.1-4.4 2c-.8.4-1.7 0-2.1-.7-.1-.2-.1-.4-.1-.7v-6.7H7.4A1.47 1.47 0 015.9 49V1.5C5.8.7 6.5 0 7.4 0h39.5a1.47 1.47 0 011.5 1.5v26.3c0 .9-.7 1.5-1.6 1.5a1.54 1.54 0 01-1.5-1.5V3.1H8.9v44.4h19.2a1.47 1.47 0 011.5 1.5 1.54 1.54 0 01-1.5 1.5H25v6.7c.1.9-.6 1.6-1.4 1.6zm-5.3-5.5c.2 0 .4 0 .6.1l3.1 1.4v-4.3h-7.2v4.3l2.8-1.3c.2-.1.4-.2.7-.2zM1.5 50.5A1.54 1.54 0 010 49V1.5A1.54 1.54 0 011.5 0 1.47 1.47 0 013 1.5V49c.1.8-.6 1.5-1.5 1.5zm34.4-31.7H18.4a1.47 1.47 0 01-1.5-1.5 1.47 1.47 0 011.5-1.5h17.5c.9 0 1.5.8 1.5 1.6-.1.8-.7 1.4-1.5 1.4zm-5.6-6.3H24a1.47 1.47 0 01-1.5-1.5A1.54 1.54 0 0124 9.5h6.4c.9 0 1.6.6 1.6 1.5s-.6 1.6-1.5 1.6c-.1-.1-.1-.1-.2-.1z" fill="currentColor"/><path d="M57.5 59c-.4 0-.8-.2-1.1-.5L51 53.1C45.9 57 38.6 56 34.8 51c-3.5-4.6-3.1-11.1 1-15.2a11.53 11.53 0 0116.3 0c4.1 4.1 4.5 10.6 1 15.2l5.4 5.4a1.57 1.57 0 010 2.2 1.53 1.53 0 01-1 .4zM38 38c-3.3 3.3-3.3 8.7 0 12s8.7 3.3 12 0 3.3-8.7 0-12c-1.6-1.6-3.8-2.5-6-2.5-2.3 0-4.4.9-6 2.5z" fill="#c9292c"/></svg>