<svg xmlns="http://www.w3.org/2000/svg" viewBox="0 0 70 61"><g fill="currentColor"><path d="M23.1 33.4c6.2 0 11.2-5 11.2-11.2S29.3 11 23.1 11s-11.2 5-11.2 11.2 5 11.2 11.2 11.2zm0-18.4a7.17 7.17 0 017.2 7.2 7.17 7.17 0 01-7.2 7.2 7.17 7.17 0 01-7.2-7.2 7.17 7.17 0 017.2-7.2z"/><path d="M70 8.5V2c0-1.1-.9-2-2-2H2C.9 0 0 .9 0 2v57c0 1.1.9 2 2 2h66c1.1 0 2-.9 2-2v-5.1c0-6-4-5.5-4 0V57l-19.8-.1V4.1L66 4v4.4c0 4.6 4 5.1 4 .1zM4.6 56.9l1.6-4c2.5-6.1 5.3-9.6 8.9-11l6.3 8.6c.1.2.3.3.4.4.9.7 2.2.5 2.8-.4L31 42c3.7 1.4 6.5 4.9 8.9 11l1.6 4H4.6zm15-15.7h6.9L23.1 46l-3.5-4.8zm22.5 6.6c-2.7-5.3-7.2-10.6-15.3-10.6h-7.5c-8.1 0-12.5 5.4-15.3 10.6V4.1h38v43.7z"/></g><path d="M55 15c1.1 0 2 .9 2 2s-.9 2-2 2-2-.9-2-2 .9-2 2-2zm0 8h8c1.1 0 2 .9 2 2s-.9 2-2 2h-8c-1.1 0-2-.9-2-2s.9-2 2-2zm0 8h13c1.1 0 2 .9 2 2s-.9 2-2 2H55c-1.1 0-2-.9-2-2s.9-2 2-2zm0 8h8c1.1 0 2 .9 2 2s-.9 2-2 2h-8c-1.1 0-2-.9-2-2s.9-2 2-2z" fill="#c9292c"/></svg>