<svg xmlns="http://www.w3.org/2000/svg" viewBox="0 0 68 59"><path d="M1.6 59A1.58 1.58 0 010 57.4c0-.2 0-.4.1-.6l4.4-10.9c2-4.8 5.5-11.2 13.3-11.2h5.9c4.2 0 8.1 2.1 10.3 5.6 0 .1.2.3.5.7.8 1.1 1.1 1.5 1.1 1.6.5.7.3 1.8-.4 2.3s-1.8.3-2.3-.4c-.1-.1-.7-1-1.1-1.5-.3-.4-.5-.6-.5-.7-1.1-1.6-2.6-2.9-4.4-3.6L22 45.5c-.5.7-1.5.9-2.3.4-.1-.1-.3-.2-.4-.4l-4.9-6.8c-2.9 1.1-5 3.9-7 8.6L3.1 58c-.2.6-.8 1-1.5 1zm16.6-21.2l2.6 3.6 2.6-3.6h-5.2zM66.4 59H9.1c-.9 0-1.6-.8-1.6-1.7a1.58 1.58 0 011.6-1.6h57.3c.9 0 1.6.8 1.6 1.7a1.58 1.58 0 01-1.6 1.6zm-3.1-6.9H50.8a1.58 1.58 0 110-3.2h12.6c.8 0 1.4-.6 1.4-1.4s-.6-1.4-1.4-1.4H50.8a1.58 1.58 0 110-3.2h12.6c2.6 0 4.7 2.2 4.6 4.8-.1 2.3-2.1 4.4-4.7 4.4zm-30.6-.3c-.2 0-.4 0-.6-.1-.1 0-.2-.1-.3-.1-1.6-1-4.5-1.9-5.6-.4-.5.7-1.5.9-2.3.4s-.9-1.5-.4-2.3c2-2.9 6-2.5 9.1-.9 3.2-1.6 7.1-2 9.1.9.5.7.3 1.8-.4 2.3s-1.8.3-2.3-.4c-1.1-1.5-4-.5-5.6.4-.1.1-.2.1-.3.1 0 0-.2.1-.4.1z" fill="currentColor"/><path d="M35.7 27.7a1.58 1.58 0 01-1.6-1.6V6.4C34.1 2.9 37 0 40.5 0h21.2C65.2 0 68 2.9 68 6.4v11.4c0 3.5-2.9 6.4-6.4 6.4H42.4l-5.9 3.3c-.3.1-.5.2-.8.2zm4.7-24.4a3.12 3.12 0 00-3.1 3.1v16.9l3.8-2.1c.2-.1.5-.2.8-.2h19.7a3.12 3.12 0 003.1-3.1V6.4a3.12 3.12 0 00-3.1-3.1H40.4zM56.8 17h-13a1.58 1.58 0 01-1.6-1.6 1.58 1.58 0 011.6-1.6h13a1.58 1.58 0 011.6 1.6 1.58 1.58 0 01-1.6 1.6zm-4-6.6h-9a1.58 1.58 0 01-1.6-1.6 1.58 1.58 0 011.6-1.6h9a1.58 1.58 0 011.6 1.6 1.58 1.58 0 01-1.6 1.6z" fill="#c9292c"/><path d="M20.8 14c-4.9 0-8.8 4-8.8 8.8 0 4.9 4 8.9 8.8 8.9s8.8-4 8.8-8.9c0-4.8-3.9-8.8-8.8-8.8zm.1 14.5a5.59 5.59 0 110-11.2 5.59 5.59 0 110 11.2z" fill="currentColor"/></svg>