<svg version="1.1" id="circle-forward-big" xmlns="http://www.w3.org/2000/svg" x="0" y="0" viewBox="0 0 40 40" xml:space="preserve"><g fill="none" stroke="currentColor" stroke-width="2"><path d="M20 1h0c10.5 0 19 8.5 19 19h0c0 10.5-8.5 19-19 19h0C9.5 39 1 30.5 1 20h0C1 9.5 9.5 1 20 1z"/><path stroke-linecap="round" d="M15.6 16.5V24"/><path stroke-linecap="round" stroke-linejoin="round" d="M20.3 23.9c-.4.2-1 0-1.2-.4 0-.1-.1-.3-.1-.4v-5.9c0-.5.4-.9.9-.9.1 0 .3 0 .4.1l5.8 2.9c.4.2.6.7.4 1.2-.1.2-.2.3-.4.4l-5.8 3z"/></g></svg>