<?xml version="1.0" encoding="utf-8"?>
<svg version="1.1" id="circle-forward-big" xmlns="http://www.w3.org/2000/svg" xmlns:xlink="http://www.w3.org/1999/xlink" x="0px" y="0px"
	 viewBox="0 0 40 40" enable-background="new 0 0 40 40" xml:space="preserve">
<g>
	<path fill="none" stroke="currentColor" stroke-width="2" d="M20,1L20,1c10.5,0,19,8.5,19,19l0,0c0,10.5-8.5,19-19,19l0,0
		C9.5,39,1,30.5,1,20l0,0C1,9.5,9.5,1,20,1z"/>
	<path fill="none" stroke="currentColor" stroke-width="2" stroke-linecap="round" d="M15.6,16.5V24"/>
	<path fill="none" stroke="currentColor" stroke-width="2" stroke-linecap="round" stroke-linejoin="round" d="M20.3,23.9
		c-0.4,0.2-1,0-1.2-0.4c0-0.1-0.1-0.3-0.1-0.4v-5.9c0-0.5,0.4-0.9,0.9-0.9c0.1,0,0.3,0,0.4,0.1l5.8,2.9c0.4,0.2,0.6,0.7,0.4,1.2
		c-0.1,0.2-0.2,0.3-0.4,0.4L20.3,23.9z"/>
</g>
</svg>
