<svg version="1.1" id="circle-hand-big" xmlns="http://www.w3.org/2000/svg" x="0" y="0" viewBox="0 0 40 40" xml:space="preserve"><g fill="none" stroke="currentColor" stroke-width="2"><path d="M20 1h0c10.5 0 19 8.5 19 19h0c0 10.5-8.5 19-19 19h0C9.5 39 1 30.5 1 20h0C1 9.5 9.5 1 20 1z"/><path stroke-linecap="round" stroke-linejoin="round" d="M24.1 14.6l-2.9-.9c-1.6-.5-3.2.3-3.7 1.9-.1.3-.2.6-.2.9v4.4l-1.7-1.4c-.5-.3-1.1-.3-1.6.2-.3.3-.3.9-.1 1.3l2.5 3.8c.9 1.3 2.2 2.1 3.8 2.1h2.2c.9 0 1.9-.3 2.6-1.1h0c.7-.7 1.1-1.6 1.1-2.6v-5.6c-.1-1.5-.8-2.6-2-3z"/></g></svg>