<svg xmlns="http://www.w3.org/2000/svg" xmlns:xlink="http://www.w3.org/1999/xlink" viewBox="0 0 242 152"><style>.F{stroke-width:2}.G{stroke:#212225}.H{stroke-linecap:round}</style><g fill="none" class="F"><g class="G H"><path d="M86 113.966v16c0 1.7-1.3 3-3 3h-5c-1.7 0-3-1.3-3-3v-16"/><use xlink:href="#B"/><path d="M108 113.966v5c0 1.7-1.3 3-3 3h-5c-1.7 0-3-1.3-3-3v-5"/><use xlink:href="#B" x="22"/><path d="M130 113.966v15c0 1.7-1.3 3-3 3h-5c-1.7 0-3-1.3-3-3v-15"/><use xlink:href="#B" x="44"/><path d="M152 113.966v5c0 1.7-1.3 3-3 3h-5c-1.7 0-3-1.3-3-3v-5"/><use xlink:href="#B" x="66"/></g><g stroke="#dbdde5"><path d="M153.2 54.966H176c5.5 0 10 4.5 10 10v39a4.95 4.95 0 01-5 5H56a4.95 4.95 0 01-5-5v-39c0-5.5 4.5-10 10-10h23"/><path d="M55 72.966h126" class="H"/></g></g><path d="M76.4 68.666c-4 0-2.9-6.7-1.1-6.7H84v6.7h-7.6zm76.6-.2v-5.8h8.7c1.8 0 2.9 5.8-1.1 5.8H153z" fill="#212225"/><path d="M153.1 61.966h7.4c1.9 0 3.5 1.6 3.5 3.5s-1.6 3.5-3.5 3.5h-84c-1.9 0-3.5-1.6-3.5-3.5s1.6-3.5 3.5-3.5h7.4" fill="none" class="F G"/><circle cx="170" cy="90.966" r="6" fill="currentColor"/><g fill="none" class="F"><circle cx="170" cy="90.966" r="5" class="G"/><g stroke="#dbdde5"><circle cx="150" cy="90.966" r="5"/><circle cx="130" cy="90.966" r="5"/><path d="M67 85.966h45c1.7 0 3 1.3 3 3v4c0 1.7-1.3 3-3 3H67c-1.7 0-3-1.3-3-3v-4c0-1.7 1.3-3 3-3z"/></g></g><path d="M180 151.966v-12h-7v-2h7v-11h2v11h16v2h-16v12h-2zm-120 0v-12H44v-2h16v-11h2v11h7v2h-7v12h-2zm160-32v-20h-10v-2h10v-3h2v3h5v2h-5v20h-2zm-200 0v-20h-5v-2h5v-3h2v3h10v2H22v20h-2zm200-48v-12h-10v-2h10v-38h-38v12h-2v-12h-3v-2h3v-11h2v11h38v-11h2v11h10v2h-10v38h20v2h-20v12h-2zm-200 0v-12H0v-2h20v-38H10v-2h10v-11h2v11h38v-11h2v11h3v2h-3v12h-2v-12H22v38h10v2H22v12h-2z" fill="#dbdde5"/><path d="M83 66.966v-43c0-2.2 1.8-4 4-4h32c3.3 0 5-1.7 5-4m14 4h5l11 11v38" fill="none" class="F G"/><path d="M117.3 55.966c3.6 0 6.8-3 6.9-6.8-.1-3.7-3.2-6.7-6.9-6.7-3.8 0-6.9 3-6.9 6.7 0 3.8 3.1 6.8 6.9 6.8m0 2c-2.4 0-4.7-.9-6.4-2.7-1.6-1.7-2.5-3.8-2.5-6.1s.8-4.4 2.5-6.1 4-2.7 6.4-2.7c2.3 0 4.5.9 6.2 2.5 1.7 1.7 2.7 3.8 2.7 6.2 0 2.3-1 4.5-2.7 6.2-1.8 1.8-3.9 2.7-6.2 2.7z" fill="#212225"/><g fill="none" class="F G"><path d="M117.9 23.466c-.2.2-.5.3-.7.5-3.7 2.5-5.7 5.5-5.8 13.8v1.1h11.2v-1.1c0-4.6 1.9-6.8 5.9-9.2 5.1-3 8.4-6.7 8.4-13 .1-9.4-7.8-14.6-18.7-14.6-9.9 0-18.1 4.9-18.2 15.8h12.1c0-3.2 2.6-5.8 5.8-5.8h.2c3.1 0 5.9 1.8 5.9 4.9" class="H"/><path d="M142 19.866v10.1c0 1.2.3 2 2 2h9"/></g><defs><path id="B" d="M97 113.966v10c0 1.7-1.3 3-3 3h-5c-1.7 0-3-1.3-3-3v-10"/></defs></svg>