<svg version="1.1" id="circle-hand" xmlns="http://www.w3.org/2000/svg" x="0" y="0" viewBox="0 0 20 20" xml:space="preserve"><g fill="none" stroke="currentColor" stroke-width="2"><path d="M10 1h0c5 0 9 4 9 9h0c0 5-4 9-9 9h0c-5 0-9-4-9-9h0c0-5 4-9 9-9z"/><path stroke-linecap="round" stroke-linejoin="round" d="M11.9 7.4L10.6 7c-.8-.2-1.5.2-1.8.9 0 .1-.1.3-.1.4v2.1l-.8-.6c-.2-.2-.5-.2-.7.1-.2.1-.2.4-.1.6l1.2 1.8c.4.6 1 1 1.8 1h1c.4 0 .9-.1 1.2-.5h0c.3-.3.5-.8.5-1.2V8.9c0-.7-.3-1.3-.9-1.5z"/></g></svg>