<svg version="1.1" xmlns="http://www.w3.org/2000/svg" x="0" y="0" viewBox="0 0 20 20" xml:space="preserve"><g id="alert-triangle" transform="translate(.27 .25)" stroke="currentColor" fill="none" stroke-width="2" stroke-linecap="round"><path id="Path_620" stroke-linejoin="round" d="M9.8 15.1c-.2 0-.3.1-.3.3 0 .2.1.3.3.3.2 0 .3-.1.3-.3h0c0-.1-.2-.3-.3-.3h0"/><path id="Line_193" stroke-linejoin="round" d="M9.8 12.8v-6"/><path id="Path_621" stroke-miterlimit="10" d="M11 1.6C10.6.9 9.8.6 9.1.9c-.3.1-.5.4-.6.7L.9 17c-.3.6 0 1.3.6 1.6.2.1.3.1.5.1h15.6c.7 0 1.2-.5 1.2-1.2 0-.2 0-.4-.1-.5L11 1.6z"/></g></svg>
