<?xml version="1.0" encoding="utf-8"?>
<!-- Generator: Adobe Illustrator 22.0.1, SVG Export Plug-In . SVG Version: 6.00 Build 0)  -->
<svg version="1.1" id="Layer_1" xmlns="http://www.w3.org/2000/svg" xmlns:xlink="http://www.w3.org/1999/xlink" x="0px" y="0px"
	 viewBox="0 0 20 20" style="enable-background:new 0 0 20 20;" xml:space="preserve">
<g id="alert-triangle" transform="translate(0.27 0.25)">
	<path id="Path_620" stroke="currentColor" fill="none" stroke-width="2" stroke-linecap="round" stroke-linejoin="round" d="M9.8,15.1c-0.2,0-0.3,0.1-0.3,0.3c0,0.2,0.1,0.3,0.3,0.3c0.2,0,0.3-0.1,0.3-0.3l0,0
		C10.1,15.3,9.9,15.1,9.8,15.1L9.8,15.1"/>
	<line id="Line_193" stroke="currentColor" fill="none" stroke-width="2" stroke-linecap="round" stroke-linejoin="round" x1="9.8" y1="12.8" x2="9.8" y2="6.8"/>
	<path id="Path_621" stroke="currentColor" fill="none" stroke-width="2" stroke-linecap="round" stroke-miterlimit="10" d="M11,1.6c-0.4-0.7-1.2-1-1.9-0.7C8.8,1,8.6,1.3,8.5,1.6L0.9,17c-0.3,0.6,0,1.3,0.6,1.6
		c0.2,0.1,0.3,0.1,0.5,0.1h15.6c0.7,0,1.2-0.5,1.2-1.2c0-0.2,0-0.4-0.1-0.5L11,1.6z"/>
</g>
</svg>
