<svg version="1.1" id="Слой_1" xmlns="http://www.w3.org/2000/svg" x="0" y="0" viewBox="0 0 19.9 19.9" xml:space="preserve"><g id="app-window-link" transform="translate(.2 .2)" stroke="currentColor" fill="none" stroke-width="2" stroke-linecap="round" stroke-linejoin="round"><path id="Path_382" d="M17.6 6.8V2c0-.6-.5-1.2-1.1-1.2H2C1.4.8.8 1.3.8 1.9V2h0v13.2c0 .6.5 1.2 1.1 1.2h4.9"/><path id="Line_102" d="M.8 4.4h16.8"/><path id="Path_383" d="M14 15.7c.1.6-.1 1.1-.5 1.5l-1 1c-.8.7-2 .7-2.7-.1 0 0 0 0 0 0-.7-.7-.7-1.9 0-2.6l1-1c.4-.4.9-.6 1.5-.5"/><path id="Path_384" d="M15.7 14c.6.1 1.1-.1 1.5-.5l1-1c.7-.8.7-2-.1-2.7 0 0 0 0 0 0-.7-.7-1.9-.7-2.6 0l-1 1c-.4.4-.6.9-.5 1.5"/><path id="Line_103" d="M12.2 15.8l3.6-3.6"/></g></svg>