<svg version="1.1" xmlns="http://www.w3.org/2000/svg" x="0" y="0" viewBox="0 0 17.9 17.9" xml:space="preserve"><g id="hyperlink-2" transform="translate(.188 .2)" stroke="currentColor" fill="none" stroke-width="2" stroke-linecap="round" stroke-linejoin="round"><path id="Line_87" d="M5 12.5L12.5 5"/><path id="Path_364" d="M5.7 8.8c-.9-.1-1.8.2-2.4.9l-1.6 1.6c-1.2 1.3-1.2 3.3.1 4.5C3 17 5 17 6.2 15.8l1.6-1.6c.6-.6 1-1.5.9-2.4"/><path id="Path_365" d="M11.8 8.7c.9.1 1.8-.3 2.4-.9l1.6-1.6c1.2-1.3 1.2-3.3-.1-4.5 0 0 0 0 0 0-1.2-1.2-3.2-1.2-4.4 0L9.7 3.3c-.7.6-1 1.5-.9 2.4"/></g></svg>
