<svg version="1.1" xmlns="http://www.w3.org/2000/svg" x="0" y="0" viewBox="0 0 16.9 18.1" xml:space="preserve"><g id="image-file-landscape" transform="translate(-.5 .3)" stroke="currentColor" fill="none" stroke-width="2" stroke-linecap="round" stroke-linejoin="round"><path id="Path_376" d="M16.4 15.7c0 .6-.5 1.1-1.1 1.1H2.6c-.6 0-1.1-.5-1.1-1.1h0V1.8c0-.6.5-1.1 1.1-1.1h10.7c.3 0 .5.1.7.3l2.1 2c.2.2.3.5.3.8v11.9z"/><path id="Path_387" d="M6.1 4.9c.2 0 .3.1.3.3 0 .1-.1.3-.2.3h-.1c-.2 0-.2-.2-.2-.3s.1-.3.2-.3h0"/><path id="Path_388" d="M13.8 9L12 6.2c-.1-.3-.5-.5-.8-.3-.1 0-.1.1-.2.1l-.2.2-2 2.9-1.3-1c-.3-.3-.8-.2-1.1.1h0l-2 4.2h6.1"/></g></svg>
