<svg version="1.1" xmlns="http://www.w3.org/2000/svg" x="0" y="0" viewBox="0 0 21 20.2" xml:space="preserve"><g id="image-link" transform="translate(1.1 1.1)" stroke="currentColor" fill="none" stroke-width="2" stroke-linecap="round" stroke-linejoin="round"><path id="Path_379" d="M6.2 16.3h-5c-.7 0-1.3-.6-1.3-1.3V1.2C-.1.5.5-.1 1.2-.1H10c.3 0 .7.1.9.4l2.4 2.4c.2.2.4.6.4.9v2.6"/><path id="Path_380" d="M3.7 4c.2 0 .3.1.3.3 0 .1-.1.3-.2.3h-.1c-.1 0-.3-.1-.3-.2v-.1c0-.1.1-.3.3-.3-.1 0 0 0 0 0h0"/><path id="Path_381" d="M10.2 8.5L8.7 6.2c-.2-.3-.6-.4-.9-.2 0 0 0 0 0 0-.1 0-.1.1-.2.2L6 8.6l-1-.8c-.2-.2-.6-.2-.8 0l-.1.1h0l-1.6 3.3h5"/><path id="Path_385" d="M13.7 14.7c.1.6-.1 1.2-.5 1.6l-1.1 1.1c-.8.8-2.1.7-2.9-.1-.7-.8-.7-2 0-2.8l1.1-1.1c.4-.4 1-.6 1.6-.5"/><path id="Path_386" d="M15.5 12.9c.6.1 1.2-.1 1.6-.5l1.1-1.1c.8-.8.7-2.1-.1-2.9-.8-.7-1.9-.7-2.7 0l-1.1 1.1c-.4.4-.6 1-.5 1.6"/><path id="Line_104" d="M11.8 14.8l3.8-3.8"/></g></svg>
