<svg version="1.1" xmlns="http://www.w3.org/2000/svg" x="0" y="0" viewBox="0 0 18.3 18.1" xml:space="preserve"><g id="list-numbers" transform="translate(.465 .3)" stroke="currentColor" fill="none" stroke-linecap="round" stroke-linejoin="round"><path id="Line_95" stroke-width="2" d="M6.1 2.9h10.7"/><path id="Line_96" stroke-width="2" d="M6.1 9.3h10.7"/><path id="Line_97" stroke-width="2" d="M6.1 15.7h10.7"/><path id="Path_373" d="M.8 13.3c.2-.6.7-.9 1.3-.8.6.2.9.7.8 1.3-.1.5-.5.8-1 .8.6 0 1.1.5 1.1 1.1s-.5 1.1-1.1 1.1c-.5 0-.9-.3-1-.8"/><path id="Path_374" d="M.8 8.2c0-.6.5-1.1 1.1-1.1h0c.6 0 1.1.5 1.1 1.1h0c0 .3-.1.6-.3.9L.9 10.3H3"/><path id="Path_375" d="M.8.7h.5c.3 0 .5.2.5.4V5"/><path id="Line_98" d="M.8 5h2.1"/></g></svg>
