<svg version="1.1" id="Layer_1" xmlns="http://www.w3.org/2000/svg" x="0" y="0" viewBox="0 0 20 18.6" xml:space="preserve"><g id="page_reference_" transform="translate(.25 -.875)" stroke="currentColor" fill="none" stroke-width="2" stroke-linecap="round" stroke-linejoin="round"><path id="Path_622" d="M15.2 16c-4.1.6-5.4 2-5.4 2V4.1s-2-2.2-8.6-2.3c-.1 0-.2 0-.3.1-.1.2-.2.3-.2.4v13.1c0 .2.2.4.4.4 6.6.1 8.6 2.3 8.6 2.3"/><path id="Path_623" d="M9.8 4.1s2-2.2 8.6-2.3c.1 0 .2 0 .3.1.1.1.1.2.1.3V12"/><path id="Path_624" d="M15.1 16v-3.5c0-.2.2-.4.5-.4h3.1L15.1 16z"/></g></svg>