<?xml version="1.0" encoding="utf-8"?>
<!-- Generator: Adobe Illustrator 22.0.1, SVG Export Plug-In . SVG Version: 6.00 Build 0)  -->
<svg version="1.1" id="Layer_1" xmlns="http://www.w3.org/2000/svg" xmlns:xlink="http://www.w3.org/1999/xlink" x="0px" y="0px"
	 viewBox="0 0 20 18.6" style="enable-background:new 0 0 20 18.6;" xml:space="preserve">
<g id="page_reference_" transform="translate(0.25 -0.875)">
	<path id="Path_622" stroke="currentColor" fill="none" stroke-width="2" stroke-linecap="round" stroke-linejoin="round" d="M15.2,16c-4.1,0.6-5.4,2-5.4,2V4.1c0,0-2-2.2-8.6-2.3c-0.1,0-0.2,0-0.3,0.1
		C0.8,2.1,0.7,2.2,0.7,2.3v13.1c0,0.2,0.2,0.4,0.4,0.4c6.6,0.1,8.6,2.3,8.6,2.3"/>
	<path id="Path_623" stroke="currentColor" fill="none" stroke-width="2" stroke-linecap="round" stroke-linejoin="round" d="M9.8,4.1c0,0,2-2.2,8.6-2.3c0.1,0,0.2,0,0.3,0.1c0.1,0.1,0.1,0.2,0.1,0.3v9.8"/>
	<path id="Path_624" stroke="currentColor" fill="none" stroke-width="2" stroke-linecap="round" stroke-linejoin="round" d="M15.1,16v-3.5c0-0.2,0.2-0.4,0.5-0.4h3.1L15.1,16z"/>
</g>
</svg>
