<svg version="1.1" id="Слой_1" xmlns="http://www.w3.org/2000/svg" x="0" y="0" viewBox="0 0 24.9 20" xml:space="preserve"><g id="social-video-youtube-clip" transform="translate(.3 -3)" stroke="currentColor" fill="none" stroke-width="2" stroke-linecap="round" stroke-linejoin="round"><path id="Path_393" d="M21 9V7c0-1.7-1.3-3-3-3H3.9C2.2 3.9.8 5.3.7 7v.1h0v8.2c0 1.7 1.3 3.1 3 3.1 0 0 0 0 0 0h6.6m-1.7-3.7V7l6.1 3.9-6.1 3.8z"/><g id="Group_4" transform="translate(12.715 11.236)"><path id="Path_385" d="M5.4 7.3c.1.6-.1 1.3-.6 1.7l-1.2 1.2c-.8.8-2.1.8-2.9 0l-.1-.1h0c-.8-.8-.8-2.2 0-3l1.2-1.2c.5-.4 1.1-.6 1.7-.5"/><path id="Path_386" d="M7.3 5.4c.6.1 1.3-.1 1.7-.6l1.2-1.2c.8-.9.7-2.2-.1-3.1-.8-.8-2.2-.8-3 0L5.9 1.8c-.4.5-.6 1.1-.5 1.7"/><path id="Line_104" d="M3.3 7.4l4.1-4.1"/></g></g></svg>