<svg version="1.1" id="Слой_1" xmlns="http://www.w3.org/2000/svg" x="0" y="0" viewBox="0 0 20.4 22.1" xml:space="preserve"><g id="social-music-podcast" transform="translate(-1.649 .296)" stroke="currentColor" fill="none" stroke-width="2" stroke-linecap="round" stroke-linejoin="round"><path id="Path_390" d="M6.6 11.7c-1.5-2.4-.8-5.6 1.6-7.1s5.6-.8 7.1 1.6c.4.7.7 1.4.8 2.2"/><path id="Path_391" d="M4.8 14.7C1.7 11.2 2 5.9 5.5 2.9c3.4-3 8.6-2.8 11.7.5 1.1 1.2 1.9 2.7 2.1 4.4"/><path id="Path_392" d="M12.7 13H9.8c-1 0-1.8.8-1.8 1.8 0 0 0 0 0 0v.2l.3 1.6"/><circle id="Ellipse_6" cx="11" cy="9" r="2.1"/><g id="Group_3" transform="translate(10.129 10.098)"><path id="Path_385" d="M5.3 7.2c.1.6-.1 1.2-.5 1.7l-1.2 1.2c-.8.8-2.1.8-2.9 0L.6 10h0c-.8-.8-.8-2.1 0-2.9l1.2-1.2c.5-.4 1.1-.6 1.7-.5"/><path id="Path_386" d="M7.3 5.3c.6.1 1.2-.1 1.7-.5l1.2-1.2c.8-.9.7-2.2-.1-3C9.3-.2 8-.2 7.2.6L6 1.8c-.5.4-.7 1.1-.6 1.7"/><path id="Line_104" d="M3.4 7.3l4-4"/></g></g></svg>