<svg xmlns="http://www.w3.org/2000/svg" viewBox="0 0 15 24"><path d="M6.77 24a1 1 0 01-1-1v-2.59H2.3v-.01H1a1 1 0 01-1-1V19a1 1 0 011-1h1.3V6H1a1 1 0 01-1-1v-.4a1 1 0 011-1h1.3v-.007h3.467V1a1 1 0 011-1h.308a1 1 0 011 1v2.593h.813a6.017 6.017 0 014.092 1.211 3.954 3.954 0 011.37 3.1 3.4 3.4 0 01-.843 2.4 4.06 4.06 0 01-2.129 1.211v.164a3.658 3.658 0 011.763.543 3.829 3.829 0 011.337 1.4 4.23 4.23 0 01.514 2.143 4.476 4.476 0 01-.646 2.389 4.4 4.4 0 01-1.908 1.654 7.177 7.177 0 01-3.109.6H8.075V23a1 1 0 01-1 1zm-.989-6.5h2.836a3.208 3.208 0 002.125-.575 1.91 1.91 0 00.662-1.518 2.211 2.211 0 00-.726-1.708 2.822 2.822 0 00-1.981-.665H5.781zm0-6.873H8.36a2.733 2.733 0 001.775-.57 1.9 1.9 0 00.707-1.565 1.866 1.866 0 00-.63-1.469 2.607 2.607 0 00-1.787-.559H5.782z" fill="currentColor"/></svg>