<svg xmlns="http://www.w3.org/2000/svg" viewBox="0 0 29.04 27"><path d="M14.159.08a.813.813 0 011.068 1.068.819.819 0 01-1.314.26.827.827 0 01.246-1.328M7.353.813a.631.631 0 01.832.613.631.631 0 01-.907.569.644.644 0 01.075-1.182m13.943 1.199a.636.636 0 01-.121-1.208c.449-.219.86.191.926.617a.7.7 0 01-.808.591M8.902 3.709a.985.985 0 11-.139 1.626.993.993 0 01.138-1.626m9.81.431a.994.994 0 011.776-.045 1.042 1.042 0 01-.649 1.443 1.027 1.027 0 01-1.126-1.4M13.34 5.5a1.222 1.222 0 011.176-1.151 1.291 1.291 0 011.008.655 1.16 1.16 0 01-.542 1.58 1.535 1.535 0 01-.865.075A1.258 1.258 0 0113.34 5.5m-10.122.926a.812.812 0 11-.131 1.359.815.815 0 01.131-1.359m21.734 0a.809.809 0 11.089 1.4.81.81 0 01-.089-1.4m-8.766 1.14a1.962 1.962 0 11-1.215 2.548 1.971 1.971 0 011.215-2.548m-4.822.1a1.962 1.962 0 11-.914 2.654 1.978 1.978 0 01.914-2.654M6.535 9.315a1.234 1.234 0 011.182-1.009 1.3 1.3 0 011.148 1.15 1.224 1.224 0 01-1.145 1.189 1.151 1.151 0 01-1.185-1.33m14.261-.88a1.157 1.157 0 11-.087 2 1.165 1.165 0 01.087-2m-11.4 3.1a1.961 1.961 0 11-1.263 2.736 1.978 1.978 0 011.263-2.736m9.146 0a1.963 1.963 0 11-1.146 2.805 1.983 1.983 0 011.157-2.814m-14.576.975a.993.993 0 011.242 1.252.981.981 0 01-1.588.416.993.993 0 01.346-1.668m19.759 1.05a1.116 1.116 0 011.041-1.173 1.045 1.045 0 01.945 1.026.985.985 0 01-1.431.869 1.329 1.329 0 01-.555-.722M.387 12.856a.638.638 0 11-.256.979.65.65 0 01.256-.979zm27.659-.012a.633.633 0 01.927.3.623.623 0 01-.617.867c-.623.057-.825-.892-.31-1.167m-16.262 2.651a1.961 1.961 0 11-1.526 1.89 1.984 1.984 0 011.526-1.89m4.571 0a1.964 1.964 0 11-1.436 1.449 1.973 1.973 0 011.436-1.449m-8.814.732a1.157 1.157 0 11-.719 1.909 1.166 1.166 0 01.719-1.909m13.406.037a1.156 1.156 0 11-.219 2.062 1.159 1.159 0 01.219-2.062m3.749 3.753a.806.806 0 01.817-1.129 1 1 0 01.682.418c.038.313.1.685-.157.927a.807.807 0 01-1.342-.215m-21.48-.984a.817.817 0 011.212.819.814.814 0 11-1.212-.818m10.817 1.185a1.154 1.154 0 11-.215 2.05 1.167 1.167 0 01.215-2.05m-5.01 1.168a.981.981 0 011.374.917.969.969 0 01-1.083.956.969.969 0 01-.292-1.873m10.149.01a.986.986 0 11-.116 1.651.994.994 0 01.116-1.651m1.765 4.363a.7.7 0 01.5-1.028c.365.074.75.348.674.771a.648.648 0 01-1.176.257m-14.007-.366c.111-.335.381-.668.775-.581a.641.641 0 01.242 1.174.688.688 0 01-1.017-.593m6.759.384a.8.8 0 011.174-.473c.279.12.361.432.433.7-.038.138-.073.277-.106.415a.913.913 0 01-.683.4.8.8 0 01-.817-1.043" fill="currentColor"/></svg>