<svg xmlns="http://www.w3.org/2000/svg" viewBox="0 0 29.31 29.33"><g fill="currentColor"><path data-name="Контур 648" d="M0 14.642a14.655 14.655 0 0029.31.05v-.111a14.391 14.391 0 00-.4-3.347 1.574 1.574 0 00-3.064.719 11.53 11.53 0 11-8.528-8.5 1.572 1.572 0 001.892-1.165A1.551 1.551 0 0018.051.409 14.637 14.637 0 00.4 11.233a14.994 14.994 0 00-.4 3.409z"/><path data-name="Контур 649" d="M22.097 3.856c-.026.026-.038.051-.051.063a2.349 2.349 0 00-.63 1.4v.252c0 .063-.012.113-.012.176a4.224 4.224 0 01-4.63 3.794 4.086 4.086 0 01-.555-.087 2.377 2.377 0 01-.317-.089 5.022 5.022 0 00-1.374-.151 5.523 5.523 0 00-3.636 1.462c-.05.05-.113.089-.164.151a5.494 5.494 0 107.761 7.765 5.586 5.586 0 00.618-.743 5.505 5.505 0 00.834-4.424 2.832 2.832 0 01-.077-.3c0-.014-.012-.026-.012-.051a4.228 4.228 0 013.179-5.08 3.169 3.169 0 01.594-.087l.083-.017a1.981 1.981 0 01.265-.012h.026a2.376 2.376 0 001.45-.681c.089-.1.178-.2.253-.3a2.347 2.347 0 00-.568-3.289 2.376 2.376 0 00-3.037.248z"/></g></svg>