<svg viewBox="0 0 24 24" fill="none" xmlns="http://www.w3.org/2000/svg"><circle cx="1.5" cy="15.5" r="1.5" fill="currentColor"/><path fill-rule="evenodd" clip-rule="evenodd" d="M22.309 7.5c-.954 0-1.727.757-1.727 1.69 0 1.337-.217 1.689-1.727 1.689h-.144c-.878.072-1.551.792-1.547 1.653v.036c0 1.302-.253 1.618-1.727 1.618a.275.275 0 00-.18.035c-.913.087-1.594.861-1.546 1.756.049.895.809 1.595 1.726 1.587.892 0 1.632-.677 1.69-1.547v-.142c0-1.196.396-1.654 1.692-1.689h.036c.904-.003 1.648-.7 1.69-1.583v-.106c0-1.232.396-1.69 1.728-1.69.954 0 1.727-.756 1.727-1.688-.015-.902-.77-1.624-1.691-1.619zm-10.147 3.378h-.144c-1.51 0-1.727-.351-1.727-1.689 0-.933-.774-1.689-1.727-1.689-.954 0-1.728.756-1.728 1.69 0 1.337-.216 1.653-1.727 1.653h-.144c-.878.073-1.55.793-1.547 1.654 0 .933.774 1.689 1.727 1.69.893 0 1.632-.678 1.691-1.548v-.106c0-1.232.396-1.69 1.728-1.69 1.332 0 1.727.458 1.727 1.654 0 .933.773 1.689 1.727 1.69.46.005.903-.171 1.228-.49a1.65 1.65 0 00.5-1.2c-.04-.85-.717-1.542-1.584-1.619z" fill="currentColor"/></svg>