<svg xmlns="http://www.w3.org/2000/svg" viewBox="0 0 19.30 25.42"><g data-name="Сгруппировать 700"><path data-name="Контур 633" d="M9.653 0A9.662 9.662 0 000 9.653a10.114 10.114 0 00.511 3.141 1.349 1.349 0 102.554-.868 6.8 6.8 0 01-.383-2.477 6.973 6.973 0 117.38 7.151s-1.354.077-2.018.179c-.332.051-.587.1-.766.128a.1.1 0 01-.128-.128l.23-1.124 1.251-5.772a1.332 1.332 0 10-2.6-.562s-3.013 14.046-3.039 14.2a1.332 1.332 0 102.6.562c.026-.153.434-2.018.434-2.018a3.392 3.392 0 012.86-2.656c.306-.051 1.507-.128 1.507-.128A9.655 9.655 0 009.653 0zm.69 22.218a1.618 1.618 0 101.251 1.915 1.607 1.607 0 00-1.251-1.915z" fill="currentColor"/></g></svg>