<svg version="1.1" id="Слой_1" xmlns="http://www.w3.org/2000/svg" x="0" y="0" viewBox="0 0 32 32" xml:space="preserve"><path d="M24.2 10.7c-.6-.3-1.4-.3-2 0l-4.6 2.6-3.1 1.7-4.6 2.6c-.6.3-1.4.3-2 0l-3.7-2.1c-.6-.3-1-1-1-1.7V9.9c0-.7.4-1.3 1-1.7l3.6-2c.6-.3 1.4-.3 2 0l3.6 2c.6.3 1 1 1 1.7v2.6l3.1-1.8V8.2c0-.7-.4-1.3-1-1.7L9.8 2.7c-.6-.3-1.4-.3-2 0L1 6.5c-.6.3-1 1-1 1.7v7.6c0 .7.4 1.3 1 1.7l6.8 3.8c.6.3 1.4.3 2 0l4.6-2.6 3.1-1.8 4.6-2.6c.6-.3 1.4-.3 2 0l3.6 2c.6.3 1 1 1 1.7v4c0 .7-.4 1.3-1 1.7l-3.6 2.1c-.6.3-1.4.3-2 0l-3.6-2c-.6-.3-1-1-1-1.7v-2.6l-3.1 1.8v2.6c0 .7.4 1.3 1 1.7l6.8 3.8c.6.3 1.4.3 2 0l6.8-3.8c.6-.3 1-1 1-1.7v-7.6c0-.7-.4-1.3-1-1.7l-6.8-3.9z"/></svg>