<?xml version="1.0" encoding="utf-8"?>
<!-- Generator: Adobe Illustrator 25.2.3, SVG Export Plug-In . SVG Version: 6.00 Build 0)  -->
<svg version="1.1" id="Слой_1" xmlns="http://www.w3.org/2000/svg" xmlns:xlink="http://www.w3.org/1999/xlink" x="0px" y="0px"
	 viewBox="0 0 32 32" style="enable-background:new 0 0 32 32;" xml:space="preserve">
<path d="M24.2,10.7c-0.6-0.3-1.4-0.3-2,0l-4.6,2.6l-3.1,1.7l-4.6,2.6c-0.6,0.3-1.4,0.3-2,0l-3.7-2.1c-0.6-0.3-1-1-1-1.7V9.9
	c0-0.7,0.4-1.3,1-1.7l3.6-2c0.6-0.3,1.4-0.3,2,0l3.6,2c0.6,0.3,1,1,1,1.7v2.6l3.1-1.8V8.2c0-0.7-0.4-1.3-1-1.7L9.8,2.7
	c-0.6-0.3-1.4-0.3-2,0L1,6.5c-0.6,0.3-1,1-1,1.7v7.6c0,0.7,0.4,1.3,1,1.7l6.8,3.8c0.6,0.3,1.4,0.3,2,0l4.6-2.6l3.1-1.8l4.6-2.6
	c0.6-0.3,1.4-0.3,2,0l3.6,2c0.6,0.3,1,1,1,1.7V22c0,0.7-0.4,1.3-1,1.7l-3.6,2.1c-0.6,0.3-1.4,0.3-2,0l-3.6-2c-0.6-0.3-1-1-1-1.7
	v-2.6l-3.1,1.8v2.6c0,0.7,0.4,1.3,1,1.7l6.8,3.8c0.6,0.3,1.4,0.3,2,0l6.8-3.8c0.6-0.3,1-1,1-1.7v-7.6c0-0.7-0.4-1.3-1-1.7L24.2,10.7
	z"/>
</svg>
