<svg version="1.1" xmlns="http://www.w3.org/2000/svg" x="0" y="0" viewBox="0 0 32 32" xml:space="preserve"><g id="SOL" transform="translate(-1469.713 -978.525)"><path id="Фигура_2026_копия" d="M1470.3 1007.2c-.6 0-.9-.7-.3-1.3l4.5-4.5c.3-.4.9-.7 1.4-.6h25.1c.6 0 1 .6.3 1.3-.7.6-4.4 4.4-4.6 4.6-.3.4-.8.5-1.3.5h-25.1zm5.7-9.6c-.5.1-1-.1-1.3-.5l-4.6-4.6c-.7-.6-.3-1.3.3-1.3h25.1c.6 0 1.1.2 1.4.6.3.3 4 3.9 4.5 4.5.5.5.3 1.3-.3 1.3H1476zm-5.7-9.4c-.6 0-.9-.7-.3-1.3l4.5-4.5c.3-.4.9-.7 1.4-.6h25.1c.6 0 1 .6.3 1.3l-4.6 4.6c-.3.4-.8.5-1.3.5h-25.1z"/></g></svg>
