<?xml version="1.0" encoding="utf-8"?>
<!-- Generator: Adobe Illustrator 25.2.3, SVG Export Plug-In . SVG Version: 6.00 Build 0)  -->
<svg version="1.1" id="Слой_1" xmlns="http://www.w3.org/2000/svg" xmlns:xlink="http://www.w3.org/1999/xlink" x="0px" y="0px"
	 viewBox="0 0 32 32" style="enable-background:new 0 0 32 32;" xml:space="preserve">
<g id="SOL" transform="translate(-1469.713 -978.525)">
	<path id="Фигура_2026_копия" d="M1470.3,1007.2c-0.6,0-0.9-0.7-0.3-1.3s4.2-4.2,4.5-4.5c0.3-0.4,0.9-0.7,1.4-0.6h25.1
		c0.6,0,1,0.6,0.3,1.3c-0.7,0.6-4.4,4.4-4.6,4.6c-0.3,0.4-0.8,0.5-1.3,0.5H1470.3z M1476,997.6c-0.5,0.1-1-0.1-1.3-0.5
		c-0.3-0.3-4-4-4.6-4.6c-0.7-0.6-0.3-1.3,0.3-1.3h25.1c0.6,0,1.1,0.2,1.4,0.6c0.3,0.3,4,3.9,4.5,4.5c0.5,0.5,0.3,1.3-0.3,1.3
		L1476,997.6z M1470.3,988.2c-0.6,0-0.9-0.7-0.3-1.3s4.2-4.2,4.5-4.5c0.3-0.4,0.9-0.7,1.4-0.6h25.1c0.6,0,1,0.6,0.3,1.3
		s-4.4,4.4-4.6,4.6c-0.3,0.4-0.8,0.5-1.3,0.5L1470.3,988.2z"/>
</g>
</svg>
