<svg xmlns="http://www.w3.org/2000/svg" viewBox="0 0 27 27"><path data-name="Контур 647" d="M13.419 0a13.419 13.419 0 1013.419 13.419A13.419 13.419 0 0013.419 0zm-3.356 18.055l-.127.127a9.984 9.984 0 01-.836.745l-.336.263a.123.123 0 01-.077.027.1.1 0 01-.064-.018.116.116 0 01-.054-.132l.132-.595a3.706 3.706 0 00-.091-1.953l-.073-.219a9.597 9.597 0 00-.286-.749L6.7 11.9l-.168-.5a2.413 2.413 0 01-.1-.477l-.027-.25a2.308 2.308 0 01.663-1.894l.127-.127a9.984 9.984 0 01.836-.745l.336-.263a.123.123 0 01.141-.009.116.116 0 01.054.132l-.132.595a3.706 3.706 0 00.091 1.953l.073.218c.082.254.182.5.286.749l1.553 3.656.168.5a2.413 2.413 0 01.1.477l.027.25a2.331 2.331 0 01-.665 1.89zm5.24 1.2l-.163.163a11.4 11.4 0 01-1.054.935l-.436.345a.136.136 0 01-.082.027.151.151 0 01-.068-.025.128.128 0 01-.059-.141l.173-.767a4.688 4.688 0 00-.118-2.466l-.091-.277a9.968 9.968 0 00-.363-.949l-1.962-4.606-.209-.627a2.963 2.963 0 01-.132-.595l-.039-.318a2.9 2.9 0 01.826-2.375l.163-.163a11.4 11.4 0 011.054-.935l.436-.345a.13.13 0 01.154-.009.128.128 0 01.059.141l-.173.767a4.688 4.688 0 00.123 2.465l.091.277c.1.318.227.64.363.949l1.957 4.614.209.627a2.963 2.963 0 01.132.595l.036.318a2.9 2.9 0 01-.83 2.374zm4.468-1.2l-.127.127a9.984 9.984 0 01-.836.745l-.336.263a.123.123 0 01-.077.027.1.1 0 01-.064-.018.116.116 0 01-.054-.132l.132-.595a3.706 3.706 0 00-.091-1.953l-.073-.218a9.597 9.597 0 00-.286-.749L16.407 11.9l-.168-.5a2.413 2.413 0 01-.1-.477l-.027-.25a2.308 2.308 0 01.663-1.894l.127-.127a9.984 9.984 0 01.836-.745l.336-.263a.123.123 0 01.141-.009.116.116 0 01.054.132l-.132.595a3.706 3.706 0 00.091 1.953l.073.218c.082.254.182.5.286.749l1.553 3.656.168.5a2.413 2.413 0 01.1.477l.027.25a2.313 2.313 0 01-.663 1.89z" fill="currentColor"/></svg>