<svg xmlns="http://www.w3.org/2000/svg" viewBox="0 0 30 26"><g data-name="Layer 1" fill="currentColor"><path data-name="Контур 645" d="M25.8 3.327L22.186 5.17l-17.469 8.9A10.405 10.405 0 0120.109 3.637l2.071-1.055.309-.158A12.711 12.711 0 002.311 12.711q0 .486.037.967a2.312 2.312 0 01-1.256 2.233L0 16.472v2.6l3.215-1.638 1.041-.531 1.026-.522L23.7 6.993l2.069-1.054 4.277-2.18v-2.6z"/><path data-name="Контур 646" d="M30.044 6.357L6.328 18.433l-2.07 1.056L0 21.657v2.6l4.229-2.155 3.618-1.845 17.487-8.911a10.607 10.607 0 01.089 1.368 10.407 10.407 0 01-15.5 9.071l-.127.067-2.242 1.143a12.711 12.711 0 0020.18-10.282c0-.327-.013-.653-.037-.976a2.313 2.313 0 011.255-2.235l1.093-.557z"/></g></svg>