<svg fill="none" xmlns="http://www.w3.org/2000/svg"><path opacity=".544" d="M18.666 8c1.725.455 3.45 1.17 5.042 2.016l.133.065c.199 1.041.199 2.147.066 3.252-.73-.39-1.46-.845-2.122-1.43C20.458 10.861 19.13 9.625 18.666 8" fill="currentColor"/><path d="M8.414.686a11.791 11.791 0 017.534-.132c3.182 1.054 5.845 3.36 7.273 6.457.455.856.715 1.779.78 2.767a29.101 29.101 0 00-5.715-2.372c-3.118-1.12-6.43-1.977-9.417-3.492-.714-.395-1.559-.856-1.753-1.713C7.05 1.345 7.83.95 8.414.686M.723 7.703c.671-1.922 1.879-3.645 3.488-5.036.403 3.313 1.812 6.428 4.16 8.88 2.817 2.916 6.774 4.573 10.866 4.573 1.61 0 3.22-.265 4.763-.596-1.543 5.567-7.714 9.212-13.416 8.35C3.876 22.946-.82 16.717.12 10.09c.134-.861.268-1.59.603-2.386z" fill="currentColor"/></svg>