<?xml version="1.0" encoding="utf-8"?>
<!-- Generator: Adobe Illustrator 25.0.0, SVG Export Plug-In . SVG Version: 6.00 Build 0)  -->
<svg version="1.1" id="Слой_1" xmlns="http://www.w3.org/2000/svg" xmlns:xlink="http://www.w3.org/1999/xlink" x="0px" y="0px"
	 viewBox="0 0 19.9 19.9" style="enable-background:new 0 0 19.9 19.9;" xml:space="preserve">
<style type="text/css">
	.st0{fill:none;stroke:#000000;stroke-width:2;stroke-linecap:round;stroke-linejoin:round;}
</style>
<g id="app-window-link" transform="translate(0.2 0.2)">
	<path id="Path_382" class="st0" d="M17.6,6.8V2c0-0.6-0.5-1.2-1.1-1.2c0,0-0.1,0-0.1,0H2c-0.6,0-1.2,0.5-1.2,1.1c0,0,0,0.1,0,0.1
		l0,0v13.2c0,0.6,0.5,1.2,1.1,1.2c0,0,0.1,0,0.1,0h4.8"/>
	<line id="Line_102" class="st0" x1="0.8" y1="4.4" x2="17.6" y2="4.4"/>
	<path id="Path_383" class="st0" d="M14,15.7c0.1,0.6-0.1,1.1-0.5,1.5l-1,1c-0.8,0.7-2,0.7-2.7-0.1c0,0,0,0,0,0
		c-0.7-0.7-0.7-1.9,0-2.6l1-1c0.4-0.4,0.9-0.6,1.5-0.5"/>
	<path id="Path_384" class="st0" d="M15.7,14c0.6,0.1,1.1-0.1,1.5-0.5l1-1c0.7-0.8,0.7-2-0.1-2.7c0,0,0,0,0,0
		c-0.7-0.7-1.9-0.7-2.6,0l-1,1c-0.4,0.4-0.6,0.9-0.5,1.5"/>
	<line id="Line_103" class="st0" x1="12.2" y1="15.8" x2="15.8" y2="12.2"/>
</g>
</svg>
