<?xml version="1.0" encoding="utf-8"?>
<!-- Generator: Adobe Illustrator 25.0.0, SVG Export Plug-In . SVG Version: 6.00 Build 0)  -->
<svg version="1.1" id="Слой_1" xmlns="http://www.w3.org/2000/svg" xmlns:xlink="http://www.w3.org/1999/xlink" x="0px" y="0px"
	 viewBox="0 0 19.2 18" style="enable-background:new 0 0 19.2 18;" xml:space="preserve">
<g id="browser-page-mail" transform="translate(-0.5 -1.2)">
	<path id="Rectangle_332" stroke="currentColor" fill="none" stroke-width="2" stroke-linecap="round" stroke-linejoin="round"  d="M3,2.2h14.2c0.8,0,1.5,0.7,1.5,1.5v13c0,0.8-0.7,1.5-1.5,1.5H3c-0.8,0-1.5-0.7-1.5-1.5v-13
		C1.5,2.9,2.2,2.2,3,2.2z"/>
	<line id="Line_106" stroke="currentColor" fill="none" stroke-width="2" stroke-linecap="round" stroke-linejoin="round"  x1="1.5" y1="5.9" x2="18.7" y2="5.9"/>
	<path id="Rectangle_333" stroke="currentColor" fill="none" stroke-width="2" stroke-linecap="round" stroke-linejoin="round"  d="M4.7,8.4h10.8c0.4,0,0.8,0.3,0.8,0.8c0,0,0,0,0,0v1c0,0.4-0.3,0.8-0.8,0.8c0,0,0,0,0,0H4.7
		c-0.4,0-0.8-0.3-0.8-0.8c0,0,0,0,0,0v-1C4,8.7,4.3,8.4,4.7,8.4z"/>
	<path id="Rectangle_334" stroke="currentColor" fill="none" stroke-width="2" stroke-linecap="round" stroke-linejoin="round"  d="M4.7,13.3h2.2c0.4,0,0.8,0.3,0.8,0.8c0,0,0,0,0,0v1c0,0.4-0.3,0.8-0.8,0.8c0,0,0,0,0,0H4.7
		C4.3,15.8,4,15.4,4,15v-1C4,13.6,4.3,13.3,4.7,13.3z"/>
	<line id="Line_107" stroke="currentColor" fill="none" stroke-width="2" stroke-linecap="round" stroke-linejoin="round"  x1="10.1" y1="13.3" x2="16.3" y2="13.3"/>
	<line id="Line_108" stroke="currentColor" fill="none" stroke-width="2" stroke-linecap="round" stroke-linejoin="round"  x1="10.1" y1="15.8" x2="16.3" y2="15.8"/>
</g>
</svg>
