<?xml version="1.0" encoding="utf-8"?>
<!-- Generator: Adobe Illustrator 25.0.0, SVG Export Plug-In . SVG Version: 6.00 Build 0)  -->
<svg version="1.1" id="Слой_1" xmlns="http://www.w3.org/2000/svg" xmlns:xlink="http://www.w3.org/1999/xlink" x="0px" y="0px"
	 viewBox="0 0 17.8 17.9" style="enable-background:new 0 0 17.8 17.9;" xml:space="preserve">
<g id="H6" transform="translate(-670.8 -133.8)">
	<line id="Line_116" stroke="currentColor" fill="none" stroke-width="2" stroke-linecap="round" x1="671.8" y1="134.8" x2="671.8" y2="150.6"/>
	<line id="Line_117" stroke="currentColor" fill="none" stroke-width="2" stroke-linecap="round" x1="680.6" y1="134.8" x2="680.6" y2="150.6"/>
	<line id="Line_118" stroke="currentColor" fill="none" stroke-width="2" stroke-linecap="round" x1="679.9" y1="142.9" x2="672.5" y2="142.9"/>
	<path id="Path_411" stroke="currentColor" fill="none" stroke-width="2" stroke-linecap="round" stroke-linejoin="round" d="M687.2,144.6c-0.4-0.3-0.9-0.4-1.4-0.3c-1,0-1.9,0.9-1.9,1.9v0v2.6c0,1,0.9,1.9,1.9,1.9l0,0l0,0
		c1,0,1.7-0.8,1.7-1.8c0-0.3-0.1-0.7-0.3-0.9c-0.6-1-2.6-1.5-3.4,0.7"/>
</g>
</svg>
