<?xml version="1.0" encoding="utf-8"?>
<!-- Generator: Adobe Illustrator 25.0.0, SVG Export Plug-In . SVG Version: 6.00 Build 0)  -->
<svg version="1.1" id="Слой_1" xmlns="http://www.w3.org/2000/svg" xmlns:xlink="http://www.w3.org/1999/xlink" x="0px" y="0px"
	 viewBox="0 0 17.9 17.9" style="enable-background:new 0 0 17.9 17.9;" xml:space="preserve">
<g id="hyperlink-2" transform="translate(0.188 0.2)">
	<line id="Line_87" stroke="currentColor" fill="none" stroke-width="2" stroke-linecap="round" stroke-linejoin="round"  x1="5" y1="12.5" x2="12.5" y2="5"/>
	<path id="Path_364" stroke="currentColor" fill="none" stroke-width="2" stroke-linecap="round" stroke-linejoin="round"  d="M5.7,8.8C4.8,8.7,3.9,9,3.3,9.7l-1.6,1.6c-1.2,1.3-1.2,3.3,0.1,4.5C3,17,5,17,6.2,15.8l1.6-1.6
		c0.6-0.6,1-1.5,0.9-2.4"/>
	<path id="Path_365" stroke="currentColor" fill="none" stroke-width="2" stroke-linecap="round" stroke-linejoin="round"  d="M11.8,8.7c0.9,0.1,1.8-0.3,2.4-0.9l1.6-1.6C17,4.9,17,2.9,15.7,1.7c0,0,0,0,0,0
		c-1.2-1.2-3.2-1.2-4.4,0L9.7,3.3C9,3.9,8.7,4.8,8.8,5.7"/>
</g>
</svg>
