<?xml version="1.0" encoding="utf-8"?>
<!-- Generator: Adobe Illustrator 25.0.0, SVG Export Plug-In . SVG Version: 6.00 Build 0)  -->
<svg version="1.1" id="Слой_1" xmlns="http://www.w3.org/2000/svg" xmlns:xlink="http://www.w3.org/1999/xlink" x="0px" y="0px"
	 viewBox="0 0 16.9 18.1" style="enable-background:new 0 0 16.9 18.1;" xml:space="preserve">
<g id="image-file-landscape" transform="translate(-0.5 0.3)">
	<path id="Path_376" stroke="currentColor" fill="none" stroke-width="2" stroke-linecap="round" stroke-linejoin="round"  d="M16.4,15.7c0,0.6-0.5,1.1-1.1,1.1H2.6c-0.6,0-1.1-0.5-1.1-1.1l0,0V1.8c0-0.6,0.5-1.1,1.1-1.1
		h10.7c0.3,0,0.5,0.1,0.7,0.3l2.1,2c0.2,0.2,0.3,0.5,0.3,0.8V15.7z"/>
	<path id="Path_387" stroke="currentColor" fill="none" stroke-width="2" stroke-linecap="round" stroke-linejoin="round"  d="M6.1,4.9c0.2,0,0.3,0.1,0.3,0.3c0,0.1-0.1,0.3-0.2,0.3c0,0-0.1,0-0.1,0c-0.2,0-0.2-0.2-0.2-0.3
		S6,4.9,6.1,4.9L6.1,4.9"/>
	<path id="Path_388" stroke="currentColor" fill="none" stroke-width="2" stroke-linecap="round" stroke-linejoin="round"  d="M13.8,9L12,6.2c-0.1-0.3-0.5-0.5-0.8-0.3C11.1,5.9,11.1,6,11,6l-0.2,0.2l-2,2.9l-1.3-1
		C7.2,7.8,6.7,7.9,6.4,8.2l0,0l-2,4.2h6.1"/>
</g>
</svg>
