<?xml version="1.0" encoding="utf-8"?>
<!-- Generator: Adobe Illustrator 25.0.0, SVG Export Plug-In . SVG Version: 6.00 Build 0)  -->
<svg version="1.1" id="Слой_1" xmlns="http://www.w3.org/2000/svg" xmlns:xlink="http://www.w3.org/1999/xlink" x="0px" y="0px"
	 viewBox="0 0 21 20.2" style="enable-background:new 0 0 21 20.2;" xml:space="preserve">
<style type="text/css">
	.st0{fill:none;stroke:#000000;stroke-width:2;stroke-linecap:round;stroke-linejoin:round;}
</style>
<g id="image-link" transform="translate(1.1 1.1)">
	<path id="Path_379" class="st0" d="M6.2,16.3h-5c-0.7,0-1.3-0.6-1.3-1.3V1.2c0-0.7,0.6-1.3,1.3-1.3H10c0.3,0,0.7,0.1,0.9,0.4
		l2.4,2.4c0.2,0.2,0.4,0.6,0.4,0.9v2.6"/>
	<path id="Path_380" class="st0" d="M3.7,4C3.9,4,4,4.1,4,4.3c0,0.1-0.1,0.3-0.2,0.3c0,0-0.1,0-0.1,0c-0.1,0-0.3-0.1-0.3-0.2
		c0,0,0-0.1,0-0.1C3.4,4.2,3.5,4,3.7,4C3.6,4,3.7,4,3.7,4L3.7,4"/>
	<path id="Path_381" class="st0" d="M10.2,8.5L8.7,6.2C8.5,5.9,8.1,5.8,7.8,6c0,0,0,0,0,0C7.7,6,7.7,6.1,7.6,6.2L6,8.6L5,7.8
		c-0.2-0.2-0.6-0.2-0.8,0c0,0-0.1,0.1-0.1,0.1l0,0l-1.6,3.3h5"/>
	<path id="Path_385" class="st0" d="M13.7,14.7c0.1,0.6-0.1,1.2-0.5,1.6l-1.1,1.1c-0.8,0.8-2.1,0.7-2.9-0.1c-0.7-0.8-0.7-2,0-2.8
		l1.1-1.1c0.4-0.4,1-0.6,1.6-0.5"/>
	<path id="Path_386" class="st0" d="M15.5,12.9c0.6,0.1,1.2-0.1,1.6-0.5l1.1-1.1c0.8-0.8,0.7-2.1-0.1-2.9c-0.8-0.7-1.9-0.7-2.7,0
		l-1.1,1.1c-0.4,0.4-0.6,1-0.5,1.6"/>
	<line id="Line_104" class="st0" x1="11.8" y1="14.8" x2="15.6" y2="11"/>
</g>
</svg>
