<?xml version="1.0" encoding="utf-8"?>
<!-- Generator: Adobe Illustrator 25.0.0, SVG Export Plug-In . SVG Version: 6.00 Build 0)  -->
<svg version="1.1" id="Слой_1" xmlns="http://www.w3.org/2000/svg" xmlns:xlink="http://www.w3.org/1999/xlink" x="0px" y="0px"
	 viewBox="0 0 18.3 18.1" style="enable-background:new 0 0 18.3 18.1;" xml:space="preserve">
<g id="list-numbers" transform="translate(0.465 0.3)">
	<line id="Line_95"  stroke="currentColor" fill="none" stroke-width="2" stroke-linecap="round" stroke-linejoin="round" x1="6.1" y1="2.9" x2="16.8" y2="2.9"/>
	<line id="Line_96"  stroke="currentColor" fill="none" stroke-width="2" stroke-linecap="round" stroke-linejoin="round" x1="6.1" y1="9.3" x2="16.8" y2="9.3"/>
	<line id="Line_97"  stroke="currentColor" fill="none" stroke-width="2" stroke-linecap="round" stroke-linejoin="round" x1="6.1" y1="15.7" x2="16.8" y2="15.7"/>
	<path id="Path_373"  stroke="currentColor" fill="none" stroke-linecap="round" stroke-linejoin="round" d="M0.8,13.3c0.2-0.6,0.7-0.9,1.3-0.8c0.6,0.2,0.9,0.7,0.8,1.3c-0.1,0.5-0.5,0.8-1,0.8
		c0.6,0,1.1,0.5,1.1,1.1s-0.5,1.1-1.1,1.1c-0.5,0-0.9-0.3-1-0.8"/>
	<path id="Path_374"  stroke="currentColor" fill="none" stroke-linecap="round" stroke-linejoin="round" d="M0.8,8.2c0-0.6,0.5-1.1,1.1-1.1l0,0C2.5,7.1,3,7.6,3,8.2l0,0c0,0.3-0.1,0.6-0.3,0.9l-1.8,1.2H3"
		/>
	<path id="Path_375"  stroke="currentColor" fill="none" stroke-linecap="round" stroke-linejoin="round" d="M0.8,0.7h0.5c0.3,0,0.5,0.2,0.5,0.4c0,0,0,0,0,0.1V5"/>
	<line id="Line_98"  stroke="currentColor" fill="none" stroke-linecap="round" stroke-linejoin="round" x1="0.8" y1="5" x2="2.9" y2="5"/>
</g>
</svg>
