<?xml version="1.0" encoding="utf-8"?>
<!-- Generator: Adobe Illustrator 25.0.0, SVG Export Plug-In . SVG Version: 6.00 Build 0)  -->
<svg version="1.1" id="Слой_1" xmlns="http://www.w3.org/2000/svg" xmlns:xlink="http://www.w3.org/1999/xlink" x="0px" y="0px"
	 viewBox="0 0 20 20" style="enable-background:new 0 0 20 20;" xml:space="preserve">
<style type="text/css">
	.st0{fill:none;stroke:#000000;stroke-width:2;stroke-linecap:round;stroke-linejoin:round;}
</style>
<g id="monitor" transform="translate(0.2 0.2)">
	<path id="Path_395" class="st0" d="M12.8,18.8h-6l0.6-3.6h4.8L12.8,18.8z"/>
	<line id="Line_109" class="st0" x1="4.9" y1="18.8" x2="14.6" y2="18.8"/>
	<line id="Line_110" class="st0" x1="0.8" y1="12.8" x2="18.8" y2="12.8"/>
	<path id="Rectangle_335" class="st0" d="M3.8,0.8h12c1.6,0,3,1.3,3,2.9c0,0,0,0.1,0,0.1v8.4c0,1.6-1.3,3-2.9,3c0,0-0.1,0-0.1,0h-12
		c-1.6,0-3-1.3-3-2.9c0,0,0-0.1,0-0.1V3.8c0-1.6,1.3-3,2.9-3C3.7,0.8,3.8,0.8,3.8,0.8z"/>
</g>
</svg>
