<?xml version="1.0" encoding="utf-8"?>
<!-- Generator: Adobe Illustrator 25.0.0, SVG Export Plug-In . SVG Version: 6.00 Build 0)  -->
<svg version="1.1" id="Слой_1" xmlns="http://www.w3.org/2000/svg" xmlns:xlink="http://www.w3.org/1999/xlink" x="0px" y="0px"
	 viewBox="0 0 23 20" style="enable-background:new 0 0 23 20;" xml:space="preserve">
<style type="text/css">
	.st0{fill:none;stroke:#000000;stroke-width:2;stroke-linecap:round;stroke-linejoin:round;}
</style>
<g id="social-media-twitter" transform="translate(0.3 -2)">
	<path id="Path_389" class="st0" d="M18.2,8.8c0.1-0.3,0-0.2,0-0.5V7.5L20,6.2l-1.8-0.8l0.9-2.1L16.9,4c-0.7-0.7-1.6-1-2.6-1
		c-2.1,0-3.9,1.7-3.9,3.8l0,0v0.9c-3,0.7-5.7-0.9-8.2-3.8c-0.4,2.3,0,4,1.3,5.2L0.8,8.7C1,10.6,2.5,12,4.4,12.1L2,13
		c0.9,1.7,2.4,2,4.5,2.1c-1.7,1.2-3.7,1.8-5.8,1.7c2.5,1.3,5.4,1.8,8.2,1.5"/>
	<g id="Group_2" transform="translate(11.183 10.749)">
		<path id="Path_385" class="st0" d="M5.1,6.9C5.2,7.5,5,8.1,4.6,8.6L3.5,9.7c-0.8,0.8-2,0.8-2.8,0c0,0-0.1-0.1-0.1-0.1l0,0
			c-0.8-0.7-0.8-2-0.1-2.7c0,0,0,0,0.1-0.1l1.1-1.1c0.4-0.4,1-0.6,1.6-0.5"/>
		<path id="Path_386" class="st0" d="M7,5.1C7.6,5.2,8.2,5,8.7,4.6l1.1-1.1c0.7-0.8,0.7-2.1-0.1-2.9C9-0.2,7.7-0.2,7,0.5
			c0,0,0,0-0.1,0.1L5.7,1.7c-0.4,0.4-0.6,1-0.5,1.6"/>
		<line id="Line_104" class="st0" x1="3.2" y1="7" x2="7.1" y2="3.2"/>
	</g>
</g>
</svg>
