<?xml version="1.0" encoding="utf-8"?>
<!-- Generator: Adobe Illustrator 25.0.0, SVG Export Plug-In . SVG Version: 6.00 Build 0)  -->
<svg version="1.1" id="Слой_1" xmlns="http://www.w3.org/2000/svg" xmlns:xlink="http://www.w3.org/1999/xlink" x="0px" y="0px"
	 viewBox="0 0 24.9 20" style="enable-background:new 0 0 24.9 20;" xml:space="preserve">
<style type="text/css">
	.st0{fill:none;stroke:#000000;stroke-width:2;stroke-linecap:round;stroke-linejoin:round;}
</style>
<g id="social-video-youtube-clip" transform="translate(0.3 -3)">
	<path id="Path_393" class="st0" d="M21,9V7c0-1.7-1.3-3-3-3H3.9C2.2,3.9,0.8,5.3,0.7,7c0,0,0,0.1,0,0.1l0,0v8.2
		c0,1.7,1.3,3.1,3,3.1c0,0,0,0,0,0h6.6 M8.6,14.7V7l6.1,3.9L8.6,14.7z"/>
	<g id="Group_4" transform="translate(12.715 11.236)">
		<path id="Path_385" class="st0" d="M5.4,7.3C5.5,7.9,5.3,8.6,4.8,9l-1.2,1.2c-0.8,0.8-2.1,0.8-2.9,0c0,0,0,0-0.1-0.1l0,0
			c-0.8-0.8-0.8-2.2,0-3l1.2-1.2c0.5-0.4,1.1-0.6,1.7-0.5"/>
		<path id="Path_386" class="st0" d="M7.3,5.4C7.9,5.5,8.6,5.3,9,4.8l1.2-1.2c0.8-0.9,0.7-2.2-0.1-3.1c-0.8-0.8-2.2-0.8-3,0L5.9,1.8
			C5.5,2.3,5.3,2.9,5.4,3.5"/>
		<line id="Line_104" class="st0" x1="3.3" y1="7.4" x2="7.4" y2="3.3"/>
	</g>
</g>
</svg>
