<svg version="1.1" id="Слой_1" xmlns="http://www.w3.org/2000/svg" x="0" y="0" viewBox="0 0 23 20" xml:space="preserve"><g id="social-media-twitter" transform="translate(.3 -2)" stroke="currentColor" fill="none" stroke-width="2" stroke-linecap="round" stroke-linejoin="round"><path id="Path_389" d="M18.2 8.8c.1-.3 0-.2 0-.5v-.8L20 6.2l-1.8-.8.9-2.1-2.2.7c-.7-.7-1.6-1-2.6-1-2.1 0-3.9 1.7-3.9 3.8h0v.9c-3 .7-5.7-.9-8.2-3.8-.4 2.3 0 4 1.3 5.2L.8 8.7c.2 1.9 1.7 3.3 3.6 3.4L2 13c.9 1.7 2.4 2 4.5 2.1-1.7 1.2-3.7 1.8-5.8 1.7 2.5 1.3 5.4 1.8 8.2 1.5"/><g id="Group_2" transform="translate(11.183 10.749)"><path id="Path_385" d="M5.1 6.9c.1.6-.1 1.2-.5 1.7L3.5 9.7c-.8.8-2 .8-2.8 0l-.1-.1h0c-.8-.7-.8-2-.1-2.7l.1-.1 1.1-1.1c.4-.4 1-.6 1.6-.5"/><path id="Path_386" d="M7 5.1c.6.1 1.2-.1 1.7-.5l1.1-1.1c.7-.8.7-2.1-.1-2.9C9-.2 7.7-.2 7 .5l-.1.1-1.2 1.1c-.4.4-.6 1-.5 1.6"/><path id="Line_104" d="M3.2 7l3.9-3.8"/></g></g></svg>