<?xml version="1.0" encoding="utf-8"?>
<!-- Generator: Adobe Illustrator 25.0.0, SVG Export Plug-In . SVG Version: 6.00 Build 0)  -->
<svg version="1.1" id="Слой_1" xmlns="http://www.w3.org/2000/svg" xmlns:xlink="http://www.w3.org/1999/xlink" x="0px" y="0px"
	 viewBox="0 0 13.7 18" style="enable-background:new 0 0 13.7 18;" xml:space="preserve">
<g id="text-bold" transform="translate(-2.8 0.3)">
	<path id="Path_355" stroke="currentColor" fill="none" stroke-width="2" stroke-linecap="round" stroke-linejoin="round" d="M3.8,16.7h6.9c2.6,0,4.8-2.1,4.8-4.7c0,0,0-0.1,0-0.1c0-2.6-2.1-4.8-4.7-4.8c0,0-0.1,0-0.1,0
		h0.5c1.7,0,3.2-1.4,3.2-3.1c0,0,0-0.1,0-0.1c0-1.7-1.4-3.2-3.1-3.2c0,0-0.1,0-0.1,0H3.8"/>
	<line id="Line_75" stroke="currentColor" fill="none" stroke-width="2" stroke-linecap="round" stroke-linejoin="round" x1="5.9" y1="0.7" x2="5.9" y2="16.7"/>
	<line id="Line_76" stroke="currentColor" fill="none" stroke-width="2" stroke-linecap="round" stroke-linejoin="round" x1="10.7" y1="7.1" x2="5.9" y2="7.1"/>
</g>
</svg>
