<svg xmlns="http://www.w3.org/2000/svg" viewBox="0 0 20.3 15.3" fill="currentColor"><path d="M5.197 15.328c-1.9-.1-3.7-.7-5.2-1.8l2.4-2.4c.7.6 1.6.9 2.6.9 1.7 0 2.6-.5 2.6-1.7 0-.6-.4-1.1-.9-1.3s-1.1-.3-1.7-.3h-1.8v-2.2l3-3.1h-5.5v-3.3h9.2c-.7.4-1.4 1-1.9 1.8-.6.9-.9 1.9-.8 2.9 0 .6.1 1.1.3 1.7l-.1.1h.1c.4 1 1 1.8 1.9 2.4l-2.7 3.7a4.36 4.36 0 0 0 1.9 1.9c-1.1.4-2.3.7-3.4.7zm6.1-5h0c-.6-.3-1.1-.7-1.5-1.1.5.3 1 .5 1.5.7v.4zm3 5c4 0 5.9-2 5.9-4.8 0-5.5-8.5-4-8.5-6.3 0-.9.8-1.5 2.1-1.5 1.6 0 3.1.6 4.3 1.6l1.8-2.3c-1.6-1.4-3.7-2.1-5.8-2.1-3.5 0-5.6 2-5.6 4.5 0 5.6 8.5 3.8 8.5 6.4 0 .8-.8 1.6-2.6 1.6s-3.5-.7-4.7-2l-1.7 2.4c1.8 1.8 4 2.6 6.3 2.5z"></path></svg>
