<svg version="1.1" xmlns="http://www.w3.org/2000/svg" x="0" y="0" viewBox="0 0 18.7 20.9" xml:space="preserve" fill="currentColor"><g id="Android" transform="translate(0 -2)"><path id="Path_39" class="st0" d="M.3 2.3C.1 2.6 0 3 0 3.4v17.9c0 .4.1.8.4 1.1l.1.1 10-10v-.2L.3 2.3z"/><path id="Path_40" class="st0" d="M13.8 15.9l-3.3-3.3v-.2L13.8 9l.1.1 4 2.3c.6.2 1 .9.8 1.6-.1.4-.4.7-.8.8l-4.1 2.1z"/><path id="Path_41" class="st1" d="M13.9 15.8l-3.4-3.4L.3 22.5c.4.4 1 .4 1.7.1l11.9-6.8"/><linearGradient id="Path_42_1_" gradientUnits="userSpaceOnUse" x1="-219.775" y1="463.064" x2="-219.742" y2="463.021" gradientTransform="matrix(13.529 0 0 -10.4051 3007.282 4850.815)"><stop offset="0" stop-color="#c7e1fa"/><stop offset=".069" stop-color="#2da771"/><stop offset=".476" stop-color="#15cf74"/><stop offset=".801" stop-color="#06e775"/><stop offset="1" stop-color="#00f076"/></linearGradient><path id="Path_42" class="st2" d="M13.9 9L2 2.3c-.5-.4-1.2-.4-1.7.1l10.1 10L13.9 9z"/><path id="Path_43" class="st3" d="M13.8 15.7L2 22.4c-.5.4-1.1.4-1.6 0l-.1.1.1.1c.5.4 1.1.4 1.6 0l11.8-6.9z"/><path id="Path_44" class="st4" d="M.3 22.4c-.2-.3-.3-.8-.3-1.2v.1c0 .4.1.8.3 1.1zm17.5-8.9l-4.1 2.3.1.1 4-2.4c.5-.1.8-.6.8-1.1 0 .4-.3.7-.8 1.1z"/><path id="Path_45" class="st5" d="M2 2.4l15.8 9c.5.3.8.6.8 1.1 0-.5-.3-.9-.8-1.1L2 2.4c-1.1-.7-2-.2-2 1v.1c0-1.2.9-1.8 2-1.1z"/></g></svg>
