<svg version="1.1" id="Слой_1" xmlns="http://www.w3.org/2000/svg" xmlns:xlink="http://www.w3.org/1999/xlink" x="0" y="0" viewBox="0 0 1200 1201" xml:space="preserve"><defs><path id="SVGID_1_" d="M0 0h1200v1201H0z"/></defs><clipPath id="SVGID_2_"><use xlink:href="#SVGID_1_" overflow="visible"/></clipPath><g id="Logo_ARK.io_Black" class="st0"><g id="logo" transform="translate(-655 -116)"><path id="Rectangle" class="st1" d="M715 116h1080c33.1 0 60 26.9 60 60v1080c0 33.1-26.9 60-60 60H715c-33.1 0-60-26.9-60-60V176c0-33.1 26.9-60 60-60z" fill="currentColor"/><path id="ARK" class="st2" d="M1253.4 608.2l-456.2 472.3 456.2-730 456.1 730.1-456.1-472.4zm-135.3 245.9H1388l77.9 80.6h-425.1l77.3-80.6zm56.8-58.3l78.5-81.3 79.4 81.4-157.9-.1z" fill="#212225"/></g></g></svg>