<svg xmlns="http://www.w3.org/2000/svg" viewBox="0 0 25 27"><path id="Прямоугольник_скругл._углы_12_копия_2" class="st0" d="M3.1 25.7V23c-.6-.2-1.1-.5-1.5-.8-1-.7-1.5-1.9-1.5-3.1V6.4c0-1.6.6-3.1 1.6-4.3C2.7.7 4.3 0 6.1 0h13c1.4.1 2.7.6 3.8 1.5C24.2 2.6 25 4.2 25 5.9v2.8c0 .5-.4 1-1 1h-3.6V19c-.1.9-.4 1.7-.9 2.4-.8 1.1-2 1.7-3.4 1.7H12c-.1 0-6.3 3.2-7 3.6-.3.2-.6.3-.8.3-.7 0-1.1-.5-1.1-1.3zm0-21.9c-.6.8-.9 1.7-.9 2.7v12c-.1 1.1.7 2.1 1.8 2.2 1.3.2 1.4 1 1.4 1.2v1.5s5.1-2.1 5.3-2.3c.3-.3.7-.4 1.1-.4h4.6c1-.2 1.7-1 1.7-2v-9h-7.2c-.6.1-1.2-.4-1.3-1V6c0-.8-.3-1.6-.9-2.3C8 2.9 7 2.4 5.9 2.4c-1.1 0-2.1.5-2.8 1.4zm9.8-1.4h-2.4c1.7 1.8 1.3 5 1.3 5.1h10.9V6.2c0-1.1-.4-2.1-1.2-2.8-.6-.6-1.4-1-2.3-1.1-.8 0-4.1 0-6.3.1zM11 17c0-.6.4-1 1-1s1 .4 1 1-.4 1-1 1-1-.4-1-1zm-5 1c-.6 0-1-.4-1-1s.4-1 1-1h2c.6 0 1 .4 1 1s-.4 1-1 1H6zm0-4c-.6 0-1-.4-1-1s.4-1 1-1h9c.6 0 1 .4 1 1s-.4 1-1 1H6z"/></svg>