<svg width="17" height="17" fill="none" xmlns="http://www.w3.org/2000/svg"><g clip-path="url(#clip0)"><path d="M17 8.462A8.5 8.5 0 118.463 0 8.5 8.5 0 0117 8.462z" fill="#7E8A9C"/><path d="M16.363 8.465A7.862 7.862 0 118.466.643a7.863 7.863 0 017.897 7.822z" fill="#3C4249"/><path d="M8.645 1.15a4.323 4.323 0 011.51 0c.505.08.993.243 1.444.483.448.246.836.58 1.221.894.386.314.77.635 1.135.986.373.345.698.739.967 1.17.278.428.505.886.678 1.365.328.965.442 2.004.278 2.995h-.048c-.165-.982-.388-1.918-.74-2.81-.165-.447-.359-.883-.58-1.306a12.894 12.894 0 00-.766-1.231A4.455 4.455 0 0012.72 2.66c-.399-.285-.858-.469-1.302-.644-.444-.175-.884-.354-1.348-.487a17.082 17.082 0 00-1.425-.33v-.05z" fill="#C4C8CF"/><path d="M12.488 5.69c-.57-.164-1.162-.398-1.76-.635-.035-.15-.168-.338-.437-.566-.392-.34-1.126-.33-1.761-.18-.701-.166-1.394-.224-2.058-.062-5.436 1.497-2.354 5.15-4.35 8.823.285.602 3.345 4.117 7.774 3.174 0 0-1.515-3.64 1.903-5.387 2.772-1.422 4.775-4.053.689-5.166z" fill="#7E8A9C"/><path d="M13.159 8.081a.33.33 0 11-.659.004.33.33 0 01.659-.004z" fill="#fff"/><path d="M8.53 4.306c.396.028 1.828.493 2.197.746-.308-.893-1.344-1.012-2.197-.746z" fill="#7E8A9C"/><path d="M8.907 6.565a1.52 1.52 0 11-1.521-1.52 1.52 1.52 0 011.52 1.519z" fill="#fff"/><path d="M8.456 6.578a1.07 1.07 0 11-2.139 0 1.07 1.07 0 012.139 0z" fill="#3C4249"/><path d="M14.39 8.751c-1.232.868-2.632 1.527-4.62 1.527-.93 0-1.118-.986-1.733-.504-.317.25-1.435.81-2.323.767-.887-.043-2.326-.563-2.727-2.458-.16 1.895-.24 3.29-.954 4.89 1.416 2.268 4.794 4.018 7.86 3.264-.327-2.3 1.687-4.553 2.816-5.704.431-.437 1.25-1.15 1.681-1.781z" fill="#7E8A9C"/><path d="M14.342 8.808c-.382.348-.837.607-1.3.834-.47.223-.958.4-1.46.532-.503.13-1.027.228-1.558.18-.531-.048-1.074-.229-1.425-.627l.016-.019c.431.28.93.379 1.424.393a6.667 6.667 0 001.497-.123 8.176 8.176 0 001.454-.45c.47-.194.935-.419 1.336-.74l.016.02z" fill="#3C4249"/></g><defs><clipPath id="clip0"><path fill="#fff" d="M0 0h17v17H0z"/></clipPath></defs></svg>