<svg version="1.1" xmlns="http://www.w3.org/2000/svg" x="0" y="0" viewBox="0 0 40 44" xml:space="preserve"><g id="_3" transform="translate(-1569.811 -737.002)"><path id="Фигура_11_копия_24" d="M1589.8 781c-.3 0-.6-.1-.9-.2-.5-.3-17-9.5-18-10.1-.7-.4-1.1-1.1-1.1-1.8v-19.8c-.1-.8.4-1.6 1.1-1.9l2.5-1.4 1.1-.6c4.8-2.7 13.7-7.6 14.2-7.9.3-.2.6-.3 1-.3s.9.1 1.2.4c1 .5 17.3 9.6 17.8 9.9.7.3 1.1 1 1 1.8v20c0 .7-.5 1.4-1.1 1.7-.1.1-17.5 9.8-17.9 10-.2.1-.6.2-.9.2zm9.8-24l-4.1 3.3v4.7l-3.4 2.7v2l2.7 2.7h2.7l7.5-11.3-5.4-4.1zm-18.9 0l-5.4 4 7.5 11.3h2.7l2.7-2.7v-2l-3.4-2.7v-4.7l-4.1-3.2zm4-1.3l2.7 4-1.4 4.7h8.1l-1.4-4.7 2.7-4h-10.7zm-2-8.7l-2 7.3h19l-2-7.3h-15z" fill="currentColor"/></g></svg>
