<svg xmlns="http://www.w3.org/2000/svg" xmlns:xlink="http://www.w3.org/1999/xlink" viewBox="0 0 65.9 70"><defs><path id="facebook_svg__A" d="M-11.8 0h90v70h-90z"/></defs><clipPath id="facebook_svg__B"><use xlink:href="#facebook_svg__A"/></clipPath><g clip-path="url(#facebook_svg__B)"><path d="M49.9 0h-8.7c-9.7 0-16 6.8-16 17.2v7.9h-8.7c-.8 0-1.4.7-1.4 1.4V38c0 .8.6 1.4 1.4 1.4h8.7v29c0 .8.6 1.4 1.4 1.4h11.3c.8 0 1.4-.7 1.4-1.4v-29h10.2c.8 0 1.4-.7 1.4-1.4V26.6c0-.4-.1-.7-.4-1-.2-.3-.6-.4-1-.4H39.3v-6.7c0-3.2.7-4.9 4.7-4.9h5.8c.8 0 1.4-.7 1.4-1.4V1.4c0-.7-.6-1.4-1.3-1.4z" fill="currentColor"/></g></svg>