<svg xmlns="http://www.w3.org/2000/svg" xmlns:xlink="http://www.w3.org/1999/xlink" viewBox="0 0 75.1 70"><defs><path id="github_svg__A" d="M-7.5 0h90v70h-90z"/></defs><clipPath id="github_svg__B"><use xlink:href="#github_svg__A"/></clipPath><g clip-path="url(#github_svg__B)"><path d="M67.8 17.9c-3-5.4-7.4-9.9-12.7-13.1-10.8-6.4-24.3-6.4-35.1 0-5.3 3.2-9.7 7.7-12.7 13.1C.4 30.2 1.2 45.4 9.3 57c4.2 6.1 10.3 10.6 17.2 13 .6.2 1.3.1 1.8-.3.4-.4.6-.9.6-1.4v-6.7l-1 .2c-.8.1-1.7.2-2.5.2a17.33 17.33 0 01-3.2-.3 7.27 7.27 0 01-3.1-1.4c-.9-.7-1.6-1.7-2-2.9l-.6-1.2c-.4-.8-.9-1.6-1.4-2.4-.5-.7-1.2-1.4-2-1.8l-.3-.2-.6-.6c-.2-.2-.3-.4-.4-.7-.1-.2 0-.4.2-.5.4-.2.9-.2 1.3-.2l.9.1c.8.2 1.6.6 2.3 1.1.9.6 1.7 1.5 2.2 2.4a7.88 7.88 0 002.5 2.9c.9.6 1.9 1 3 1 .9 0 1.7-.1 2.6-.2.7-.1 1.4-.4 2.1-.7.1-1.8.9-3.5 2.2-4.8-1.6-.2-3.1-.4-4.7-.8-1.5-.4-2.9-1-4.3-1.8a13.89 13.89 0 01-3.7-3.1c-1.1-1.5-1.9-3.1-2.4-4.9-.7-2.3-1-4.6-.9-7a13.52 13.52 0 013.6-9.6c-1.1-3.1-1-6.5.3-9.5.9-.3 2.2-.1 3.9.6 1.3.5 2.6 1.1 3.8 1.8.8.5 1.5.9 1.9 1.3a32.5 32.5 0 0117.5 0l1.7-1.1c1.3-.8 2.7-1.5 4.2-2.1a5.23 5.23 0 013.7-.5c1.4 3.5 1.5 6.7.4 9.5a13.69 13.69 0 013.6 9.6 27.43 27.43 0 01-.9 7c-.5 1.8-1.3 3.4-2.4 4.9-1 1.3-2.3 2.3-3.7 3.1-1.3.8-2.8 1.4-4.3 1.8s-3.1.7-4.7.8c1.6 1.4 2.4 3.6 2.4 6.6v9.9c0 .5.2 1 .6 1.4.5.4 1.2.5 1.8.3 7-2.4 13-6.9 17.2-13 8.2-11.4 9-26.6 2.1-38.9z" fill="currentColor"/></g></svg>