<svg xmlns="http://www.w3.org/2000/svg" xmlns:xlink="http://www.w3.org/1999/xlink" viewBox="0 0 31 28" fill="currentColor"><defs><path id="gitlab_svg__a" d="M.4.7h30v27.1H.4z"/></defs><clipPath id="gitlab_svg__b"><use xlink:href="#gitlab_svg__a" overflow="visible"/></clipPath><path d="M30.1 13.4L24.4 1.5c-.2-.4-.5-.6-.9-.6s-.8.3-.9.6l-4.3 11.6H12L7.9 1.6c-.1-.4-.5-.7-.9-.7s-.8.2-1 .6L.7 13.4c-.2.4-.1.8.2 1.1l13.3 12.7c.4.4 1 .4 1.4 0l14.2-12.7c.4-.2.5-.7.3-1.1zM6.9 4.6l3 8.5H3.1l3.8-8.5zM4.5 15.1h6.1l3.1 8.8-9.2-8.8zM15 21.7l-2.3-6.6h4.8L15 21.7zm1.3 2.3l3.3-8.9h6.6L16.3 24zm10.9-10.9h-6.8l3.2-8.7 4.3 9c-.2-.2-.5-.3-.7-.3z" clip-path="url(#gitlab_svg__b)"/></svg>