<svg version="1.1" id="iOS" xmlns="http://www.w3.org/2000/svg" x="0" y="0" viewBox="0 0 17.7 21.8" xml:space="preserve" fill="currentColor"><path id="_Path_" class="st0" d="M14.8 11.6c0-1.7.9-3.3 2.4-4.2-.9-1.3-2.4-2.1-4-2.2-1.7-.2-3.3 1-4.2 1-.9 0-2.2-1-3.6-1C3.5 5.4 1.8 6.4.9 8-1 11.3.4 16.3 2.3 19c.9 1.3 2 2.8 3.4 2.8 1.4-.1 1.9-.9 3.6-.9 1.7 0 2.1.9 3.6.9s2.4-1.3 3.3-2.7c.7-.9 1.2-2 1.5-3.1-1.8-.8-2.9-2.5-2.9-4.4z"/><path id="_Path_2" class="st0" d="M12.1 3.5c.8-1 1.2-2.2 1.1-3.5-1.2.1-2.4.7-3.2 1.7-.8.9-1.3 2.1-1.2 3.3 1.3 0 2.5-.5 3.3-1.5z"/></svg>