<svg xmlns="http://www.w3.org/2000/svg" xmlns:xlink="http://www.w3.org/1999/xlink" viewBox="0 0 90 70"><defs><path id="linkedin_svg__A" d="M0 0h90v70H0z"/></defs><clipPath id="linkedin_svg__B"><use xlink:href="#linkedin_svg__A"/></clipPath><g clip-path="url(#linkedin_svg__B)"><path d="M66.4 70V40.8c0-6.1-3.2-9.7-8.7-9.7s-9.2 3.8-9.3 10.2V70H34.9V20.3h12.9v8.8h.6c2.2-5.8 7.5-9.4 14.7-9.4 10.2 0 16.9 7.1 16.9 18.7V70H66.4zm-55.9 0V20.3h13.6V70H10.5zM10 6.9c.1-3.9 3.4-7 7.3-7 3.9-.1 7.2 3 7.4 7-.1 4-3.4 7.1-7.4 7-3.9.1-7.2-3-7.3-7z" fill="currentColor"/></g></svg>