<svg version="1.1" xmlns="http://www.w3.org/2000/svg" x="0" y="0" viewBox="0 0 19 23" xml:space="preserve" fill="currentColor"><path id="Linux" class="st0" d="M18.4 18.5c-.7-.3-.9-.6-.9-1.2 0-.5-.2-.9-.5-1.3.3-1 .3-2 0-3-.8-1.8-1.8-3.6-3.1-5.1-.5-.8-.7-1.7-.6-2.6 0-1.1-.2-2.2-.6-3.2C12.3.8 11.1 0 9.7 0c-.8 0-1.6.3-2.3.7-1.3 1-1.2 3-1 4.4v.5c.1.8.1 1.5-.1 2.3-.2.3-.4.7-.7 1-.3.4-.7.9-1 1.4-.3.7-.6 1.4-.8 2.2L3.2 14c-.3.5-.3 1-.2 1.5-.2.2-.4.4-.5.6-.2.4-.6.7-1.4.8-.3 0-.6.2-.8.5-.1.4-.1.8 0 1.1.1.4.1.9-.1 1.3 0 .1-.1.3-.1.4-.1.4-.1.6 0 .8.3.5 1.2.7 2.2.8.6.1 1.2.3 1.8.5.6.2 1.1.4 1.7.5H6c.6 0 1.1-.3 1.3-.8.8-.2 1.6-.3 2.4-.3.8 0 1.6.1 2.4.3.2.3.4.6.7.8.2.1.5.2.8.2.5 0 1.1-.2 1.4-.6.8-.7 1.7-1.2 2.6-1.7.2-.1.4-.2.5-.3.4-.2.7-.6.7-1.1.2-.4 0-.7-.4-.8zm-11-.1c-.1-.4-.6-.9-1.3-1.4-.5-.3-1-.8-1.3-1.3-.3-1-.1-2.1.4-3.1.3-.5.5-1 .6-1.5.1-.5.3-1 .6-1.5.5-.6.8-1.2.9-1.9.3.4.8.7 1.4.8h.2c.4-.3.8-.5 1.2-.8.3-.2.7-.4 1.1-.6 1 2 1.8 4 2.4 6.2.1.8.1 1.6-.1 2.4h-.2c-.5 0-.7.3-.7.5-.1.8-.1 1.5-.1 2.3-.6.8-1.5 1.4-2.5 1.6-.5.1-1 .1-1.6.1h-.8l-.6-.9c.3-.1.5-.5.4-.9zm.9-13.6c0 .1 0 .1 0 0-.1 0-.1-.1-.1-.1 0-.4-.3-.8-.7-.8-.2 0-.4.2-.5.4.1-.5.3-.8.6-.8.4 0 .7.5.7 1.1v.2zm2.8.4c0-.1.1-.2.1-.3.1-.5-.3-.9-.7-.9-.6 0-.9.4-.9.8v.1h-.1c0-.1-.1-.3-.1-.5-.1-.5.2-1 .6-1.1.5-.1 1 .2 1.1.6v.4c.2.4.1.7 0 .9zm-.4 1.2l-.2.1c-.1 0-.2.1-.3.2l-.1.1c-.4.3-.9.5-1.3.7-.1 0-.2 0-.4-.2l-.1-.1c-.4-.1-.6-.3-.8-.6.1-.1.4-.3.6-.5.2-.2.5-.4.8-.5.3.1.7.2 1 .4.1 0 .3.1.3.1.2.1.4.2.5.3zm2.6 14.1c.2-.8.3-1.6.3-2.4v-1.2c0 .4.1 1.1.6 1.3.2.1.4.1.6.1.5 0 1-.2 1.4-.5.1-.1.3-.3.4-.5v.2c0 .6.2 1.1.7 1.5h.1c.2.1.6.3.6.4-.3.2-.6.4-.9.5-.6.3-1.2.7-1.8 1.1-.3.4-.8.7-1.3.9h-.1c-.4-.2-.7-.7-.6-1.4zm-12-2c0-.1-.1-.3 0-.4 0-.1.5-.2.7-.2.3 0 .5-.1.8-.2.2-.2.4-.4.5-.7.1-.2.2-.3.3-.5.2 0 .6.4.9.9.1.1.2.3.3.5.4.7.8 1.4 1.2 2 .3.3.7.8.6 1.3-.1.3-.3.6-.6.7h-.1c-.8-.1-1.5-.4-2.2-.7h-.1c-.5-.2-.9-.3-1.4-.3-.4 0-.7-.1-1.1-.2-.1-.1 0-.4.1-.6.1-.2.1-.4.1-.6.1-.5.1-.7 0-1z"/></svg>
