<svg version="1.1" xmlns="http://www.w3.org/2000/svg" x="0" y="0" viewBox="0 0 22 20" xml:space="preserve" fill="currentColor"><path id="MacOS" class="st0" d="M18.3 19.9c-.4-.1-.8-.4-1-.8l-5.6-10 1.9-3.3 3.6 6.4h3.2c.9 0 1.6.8 1.6 1.7 0 .9-.7 1.6-1.6 1.6h-1.3l1.1 1.9c.4.8.2 1.8-.6 2.3-.3.2-.6.3-.9.3-.1 0-.2 0-.4-.1zm-15.8-.1c-.8-.5-1-1.5-.6-2.3l.3-.6h3.7l-1.2 2.2c-.3.6-.9.9-1.5.9-.2 0-.5-.1-.7-.2zm-.9-4.2c-.9 0-1.6-.8-1.6-1.7 0-.9.7-1.6 1.6-1.6h3.2l4.4-7.7L8 2.5c-.5-.8-.2-1.8.5-2.3.8-.4 1.7-.2 2.2.6l.3.5.2-.4c.4-.8 1.4-1.1 2.2-.6.4.2.6.6.8 1 .1.4.1.9-.2 1.3l-5.5 9.8H12l1.9 3.3-12.3-.1z"/></svg>
