<?xml version="1.0" encoding="utf-8"?>
<!-- Generator: Adobe Illustrator 22.0.1, SVG Export Plug-In . SVG Version: 6.00 Build 0)  -->
<svg version="1.1" id="Layer_1" xmlns="http://www.w3.org/2000/svg" xmlns:xlink="http://www.w3.org/1999/xlink" x="0px" y="0px"
	 viewBox="0 0 59 52" style="enable-background:new 0 0 59 52;" xml:space="preserve">
<path id="Фигура_11_копия_11" class="st0" d="M42.8,52H16.3c-1.1,0.1-2.1-0.5-2.5-1.5l-0.1-0.2l-0.7-1.2
	C4.9,35.2,0.7,27.9,0.4,27.4c-0.6-0.9-0.5-2,0.1-2.9C1.2,23.2,13.4,2.1,13.8,1.3c0.4-0.9,1.4-1.4,2.4-1.3H43c1,0,1.9,0.6,2.4,1.5
	c0.1,0.2,13.1,22.8,13.4,23.3c0.4,0.7,0.4,1.6,0,2.4c-0.5,0.9-12.9,22.5-13.5,23.5C44.7,51.5,43.8,52,42.8,52z M27.8,26
	c1.2,0,2.3,0.7,2.7,1.8c0.4,0.8,7.7,13.4,8.6,14.9l0,0L48.7,26L39.1,9.3H19.9L10.3,26H27.8z" fill="currentColor" />
</svg>
