<svg version="1.1" id="Layer_1" xmlns="http://www.w3.org/2000/svg" x="0" y="0" viewBox="0 0 59 52" xml:space="preserve"><path id="Фигура_11_копия_11" class="st0" d="M42.8 52H16.3c-1.1.1-2.1-.5-2.5-1.5l-.1-.2-.7-1.2C4.9 35.2.7 27.9.4 27.4c-.6-.9-.5-2 .1-2.9.7-1.3 12.9-22.4 13.3-23.2.4-.9 1.4-1.4 2.4-1.3H43c1 0 1.9.6 2.4 1.5.1.2 13.1 22.8 13.4 23.3.4.7.4 1.6 0 2.4-.5.9-12.9 22.5-13.5 23.5-.6.8-1.5 1.3-2.5 1.3zm-15-26c1.2 0 2.3.7 2.7 1.8.4.8 7.7 13.4 8.6 14.9L48.7 26 39.1 9.3H19.9L10.3 26h17.5z" fill="currentColor"/></svg>