<svg xmlns="http://www.w3.org/2000/svg" xmlns:xlink="http://www.w3.org/1999/xlink" viewBox="0 0 90 69"><defs><path id="reddit_svg__A" d="M0 0h90v69H0z"/></defs><clipPath id="reddit_svg__B"><use xlink:href="#reddit_svg__A"/></clipPath><g clip-path="url(#reddit_svg__B)"><path d="M9.1 42.5c0-.5 0-1 .1-1.4A10.73 10.73 0 014 31.9c-.1-5.7 4.5-10.5 10.2-10.6 2.2 0 4.3.7 6 2 6.2-4.4 14.3-6.9 22.9-7.2L49 1.6C49.5.4 50.7-.2 51.9.1l14.6 3.5C67.9 1.4 70.3 0 72.9 0c4.3.1 7.7 3.7 7.7 8 .2 4.2-3.1 7.8-7.3 8s-7.7-3-8-7.2l-12.5-3-4.3 10.4c7.9.6 15.4 3.1 21.1 7.2 1.7-1.4 3.9-2.1 6.1-2.1 5.7.1 10.3 4.9 10.2 10.6 0 3.9-2.1 7.5-5.5 9.4v1.2c0 14.6-16 26.5-35.7 26.5S9.1 57.1 9.1 42.5zm23.4 11.2c-.8 1.2-.6 2.8.6 3.7a19.5 19.5 0 0023.6 0c1.1-.9 1.4-2.5.6-3.7-.8-1.1-2.3-1.4-3.5-.7 0 0-.1 0-.1.1-5.2 4-12.4 4-17.6 0-.4-.3-1-.5-1.5-.5-.9 0-1.7.4-2.1 1.1zm20-13.9c.1 2.8 2.5 5 5.3 4.9s5-2.5 4.9-5.3c-.1-2.7-2.4-4.9-5.1-4.9-2.9.1-5.2 2.4-5.1 5.3zm-25.5 0c.1 2.8 2.5 5 5.3 4.9s5-2.5 4.9-5.3c-.1-2.7-2.4-4.9-5.1-4.9-2.9.1-5.2 2.4-5.1 5.3zM70.3 8c-.1 1.4 1 2.6 2.4 2.7s2.6-1 2.7-2.4V8c.1-1.4-1-2.6-2.4-2.7s-2.6 1-2.7 2.4V8zM57.6 39.8zm-25.5 0z" fill="currentColor"/></g></svg>