<svg xmlns="http://www.w3.org/2000/svg" xmlns:xlink="http://www.w3.org/1999/xlink" viewBox="0 0 90 70"><defs><path id="twitter_svg__A" d="M0 0h90v70H0z"/></defs><clipPath id="twitter_svg__B"><use xlink:href="#twitter_svg__A"/></clipPath><g clip-path="url(#twitter_svg__B)"><path d="M87 8.3c-3.2 1.4-6.6 2.4-10 2.8 3.7-2.2 6.4-5.7 7.7-9.8-3.4 2.1-7.1 3.5-11 4.3C70.3 2 65.7 0 60.9 0c-9.7.1-17.5 8-17.4 17.7 0 1.4.1 2.7.4 4-14.1-.7-27.2-7.4-36-18.5C6.4 6 5.5 9 5.5 12.2c0 5.9 2.9 11.4 7.7 14.7-2.8-.1-5.5-.8-7.9-2.2v.2c0 8.4 5.8 15.6 14 17.3a17.59 17.59 0 01-4.6.6c-1.1 0-2.2-.1-3.3-.3 2.3 7.1 8.8 12.1 16.3 12.3-6.1 4.9-13.8 7.5-21.6 7.5-1.4 0-2.8-.1-4.2-.2C10 67.3 19.3 70 28.7 70c32.1 0 49.6-26.9 49.6-50.2 0-.8 0-1.5-.1-2.3 3.5-2.5 6.5-5.6 8.8-9.2z" fill="currentColor"/></g></svg>