<svg xmlns="http://www.w3.org/2000/svg" width="311" height="141.745"><g data-name="Group 600"><g data-name="Group 599"><path data-name="Rectangle 335" fill="#eef3f5" d="M191.999 96h8v2h-8z"/><path data-name="Rectangle 336" fill="#eef3f5" d="M191.999 79h8v2h-8z"/><path data-name="Rectangle 337" fill="#eef3f5" d="M87.999 96h7v2h-7z"/><path data-name="Rectangle 338" fill="#eef3f5" d="M87.999 79h7v2h-7z"/><path data-name="Rectangle 331" fill="#eef3f5" d="M87.999 117h8v6h-8z"/><path data-name="Rectangle 332" fill="#eef3f5" d="M191.999 117h8v6h-8z"/><path data-name="Rectangle 333" fill="#eef3f5" d="M83.999 112h16v3h-16z"/><path data-name="Rectangle 334" fill="#eef3f5" d="M186.999 112h16v3h-16z"/><g data-name="Rectangle 328" transform="translate(75.999 67)" fill="none" stroke="#dbdee5" stroke-width="2"><rect width="134" height="14" rx="4" stroke="none"/><rect x="1" y="1" width="132" height="12" rx="3"/></g><g data-name="Rectangle 329" transform="translate(75.999 82)" fill="none" stroke="#dbdee5" stroke-width="2"><rect width="134" height="14" rx="4" stroke="none"/><rect x="1" y="1" width="132" height="12" rx="3"/></g><g data-name="Rectangle 330" transform="translate(68.999 104)" fill="none" stroke="#dbdee5" stroke-width="2"><rect width="149" height="9" rx="4" stroke="none"/><rect x="1" y="1" width="147" height="7" rx="3"/></g><path data-name="Path 497" d="M88.312 67.249V61.88h6.564v5.369" fill="none" stroke="#dbdee5" stroke-width="2"/><path data-name="Path 498" d="M88.312 79.776v3.037" fill="none" stroke="#dbdee5" stroke-width="2"/><path data-name="Path 499" d="M94.876 79.776v3.375" fill="none" stroke="#dbdee5" stroke-width="2"/><path data-name="Path 500" d="M88.312 96.024v9.124" fill="none" stroke="#dbdee5" stroke-width="2"/><path data-name="Path 501" d="M94.876 96.024v9.463" fill="none" stroke="#dbdee5" stroke-width="2"/><path data-name="Path 502" d="M191.978 67.249V61.88h6.564v5.369" fill="none" stroke="#dbdee5" stroke-width="2"/><path data-name="Path 503" d="M191.978 79.776v3.037" fill="none" stroke="#dbdee5" stroke-width="2"/><path data-name="Path 504" d="M198.542 79.776v3.375" fill="none" stroke="#dbdee5" stroke-width="2"/><path data-name="Path 505" d="M191.978 96.024v9.124" fill="none" stroke="#dbdee5" stroke-width="2"/><path data-name="Path 506" d="M198.542 96.024v9.463" fill="none" stroke="#dbdee5" stroke-width="2"/><path data-name="Path 507" d="M83.772 112.399v4.724h15.97v-4.724" fill="none" stroke="#dbdee5" stroke-width="2"/><path data-name="Path 508" d="M88.312 116.949v23.759" fill="none" stroke="#dbdee5" stroke-width="2"/><path data-name="Path 509" d="M95.275 116.949v23.759" fill="none" stroke="#dbdee5" stroke-width="2"/><path data-name="Path 510" d="M187.438 112.399v4.724h15.97v-4.724" fill="none" stroke="#dbdee5" stroke-width="2"/><path data-name="Path 511" d="M191.978 116.949v23.759" fill="none" stroke="#dbdee5" stroke-width="2"/><path data-name="Path 512" d="M198.941 116.949v23.759" fill="none" stroke="#dbdee5" stroke-width="2"/></g><g data-name="Ellipse 49" transform="translate(91 73)" fill="#fff" stroke="#212225" stroke-width="2"><circle cx="1" cy="1" r="1" stroke="none"/><circle cx="1" cy="1" r="2" fill="none"/></g><g data-name="Ellipse 50" transform="translate(91 88)" fill="#fff" stroke="#212225" stroke-width="2"><circle cx="1" cy="1" r="1" stroke="none"/><circle cx="1" cy="1" r="2" fill="none"/></g><g data-name="Ellipse 51" transform="translate(194 73)" fill="#fff" stroke="#212225" stroke-width="2"><circle cx="1" cy="1" r="1" stroke="none"/><circle cx="1" cy="1" r="2" fill="none"/></g><g data-name="Ellipse 52" transform="translate(194 88)" fill="#fff" stroke="#212225" stroke-width="2"><circle cx="1" cy="1" r="1" stroke="none"/><circle cx="1" cy="1" r="2" fill="none"/></g><path data-name="Path 513" d="M82.191 140.708h40.669" fill="none" stroke="#212225" stroke-width="2"/><path data-name="Path 514" d="M139.599 140.708h117.873" fill="none" stroke="#212225" stroke-width="2"/><g data-name="Ellipse 53" transform="translate(221 13)" fill="none" stroke="#212225" stroke-width="2"><circle cx="25.5" cy="25.5" r="25.5" stroke="none"/><circle cx="25.5" cy="25.5" r="24.5"/></g><path data-name="Path 515" d="M243.467 63.029v77.328" fill="none" stroke="#212225" stroke-width="2"/><path data-name="Path 516" d="M248.883 67.436v36.29" fill="none" stroke="#dbdee5" stroke-linecap="round" stroke-width="2"/><path data-name="Path 517" d="M248.883 113.658v22.647" fill="none" stroke="#dbdee5" stroke-linecap="round" stroke-width="2"/><path data-name="Фигура 1 копия" fill="none" stroke="#dbdee5" stroke-width="2" d="M22.224 140.745h58.234"/><path data-name="Прямоугольник, скругл. углы 13" d="M51.341 141.091a7.093 7.093 0 017.093-7.093h2.986a7.093 7.093 0 017.093 7.093" fill="none" stroke="#dbdee5" stroke-width="2"/><path data-name="Прямоугольник, скругл. углы 13 копия" d="M28.943 140.718a3.575 3.575 0 013.392-3.733h1.428a3.575 3.575 0 013.392 3.733" fill="none" stroke="#dbdee5" stroke-width="2"/><path data-name="Прямоугольник, скругл. углы 13 копия 3" d="M65.566 135.491h4.227a4.992 4.992 0 014.719 5.226" fill="none" stroke="#dbdee5" stroke-width="2"/><path data-name="Прямоугольник, скругл. углы 13 копия 4" d="M226.197 136.754a7.345 7.345 0 016.28-3.529h3.095a7.349 7.349 0 017.349 7.349" fill="none" stroke="#212225" stroke-width="2"/><path data-name="Прямоугольник, скругл. углы 13 копия 5" d="M219.711 140.961a4.56 4.56 0 014.474-4.642h1.884a4.56 4.56 0 014.474 4.642" fill="none" stroke="#212225" stroke-width="2"/><path data-name="Прямоугольник 1 копия 14" d="M20.888 136v-19.429H0v-1.554h20.888V103.36h1.547v11.657H42.55v1.554H22.435V136zm266.129-10.88V108.8h-16.246v-1.554h16.246V77.714h-8.51V76.16h8.51v-6.994h1.548v6.994h10.057v1.554h-10.057v29.532H311v1.554h-22.435v16.32zm-28.624-13.211V108.8H255.3v-1.554h3.094v-3.109h1.547v3.109h3.095v1.554h-3.096v3.108zM20.888 96.366v-3.109h-3.094V91.7h3.094v-3.106h1.547V91.7h3.095v1.555h-3.095v3.108zm41.776-9.326v-37.3h-14.7v-1.557h14.7V18.652h-8.51V17.1h8.51V0h1.547v17.1h29.4V0h1.547v17.1h9.283v1.554h-9.284v29.529h3.094v1.554h-3.094v6.217H93.61v-6.217h-29.4v37.3zM93.61 48.183V18.652h-29.4v29.531zm114.5 6.994V18.652h-6.963V17.1h6.963v-4.666h1.547V17.1h11.6v1.554h-11.6v36.523zM115.271 21.76v-3.108h-3.095V17.1h3.095v-3.111h1.547V17.1h3.094v1.554h-3.094v3.106z" fill="#dbdee5"/><g data-name="Ellipse 54" transform="translate(226 18)" fill="none" stroke="#e5f0f8" stroke-width="2"><ellipse cx="20" cy="20.5" rx="20" ry="20.5" stroke="none"/><ellipse cx="20" cy="20.5" rx="19" ry="19.5"/></g><path data-name="Прямоугольник 1 копия" d="M255.143 47.307V29.398h-18.412v4.184l1.952 2.831v-5.15h14.548v14.178h-5.45v-9.178l-5.6 7.8-5.45-7.908v11.152h1.952v-4.888l3.462 4.925 3.686-5.037v5z" fill="#007dff"/></g></svg>